<mxfile host="app.diagrams.net" modified="2024-05-28T12:05:19.305Z" agent="Mozilla/5.0 (Windows NT 10.0; Win64; x64) AppleWebKit/537.36 (KHTML, like Gecko) Chrome/121.0.0.0 Safari/537.36" etag="l4TLk4ZofbyHkVFkHeip" version="24.4.9" type="device">
  <diagram name="PÃ¡gina-1" id="XUp15-wVA_6xLkyBHC2f">
    <mxGraphModel dx="2261" dy="782" grid="1" gridSize="10" guides="1" tooltips="1" connect="1" arrows="1" fold="1" page="1" pageScale="1" pageWidth="827" pageHeight="1169" math="0" shadow="0">
      <root>
        <mxCell id="0" />
        <mxCell id="1" parent="0" />
        <mxCell id="dNDYI4cQHrYuXAy6lbNG-1" value="" style="rounded=0;whiteSpace=wrap;html=1;fillColor=#fff2cc;strokeColor=#d6b656;" vertex="1" parent="1">
          <mxGeometry x="74" y="120" width="680" height="340" as="geometry" />
        </mxCell>
        <mxCell id="dNDYI4cQHrYuXAy6lbNG-3" value="" style="rounded=0;whiteSpace=wrap;html=1;fillColor=#fff2cc;strokeColor=#d6b656;" vertex="1" parent="1">
          <mxGeometry x="80" y="510" width="360" height="640" as="geometry" />
        </mxCell>
        <mxCell id="dNDYI4cQHrYuXAy6lbNG-4" value="" style="shape=image;verticalLabelPosition=bottom;labelBackgroundColor=default;verticalAlign=top;aspect=fixed;imageAspect=0;image=data:image/png,iVBORw0KGgoAAAANSUhEUgAAASwAAACoCAYAAABaK9MPAAAAAXNSR0IArs4c6QAAIABJREFUeF7snQeUVFXWtp97b+Xq7upMzlFECYIRs4g5jDmNYYxjDqOOGRVhHB0DZsWIgoAIIqKImAAlSs6h6Ryru3LVjf+cU+D4zfr+f33rX/Z8uqhylXRXOHXrhLffvfe791bI3XIzkJuB3Az8TmZA+Z1cZ+4yczOQm4HcDJADrNwmyM1AbgZ+NzOQA6zfzVLlLjQ3A7kZyAFWbg/kZiA3A7+bGcgB1u9mqXIXmpuB3AzkACu3B3IzkJuB380M5ADrd7NUuQvNzUBuBnKAldsDuRnIzcDvZgZygPW7WarcheZmIDcDOcDK7YHcDORm4HczAznA+t0s1X/mQp3oppKmpsbicHNbCDc01Ff3SSbiJfFYtJNpWprtGL5MOpkfi8Q6JFKxUs2xFRTFq5AVIYtfHceRP2uqiqKp4KiK4zjiId3ldts+r3ejz+cvUjTvLre3IOnxeay8/NCmklCBVVCQtzOYXxApyC/AsY3mwh5Htv5nvnnuU34PM5ADrN/DKv1K1+jUrwlGE+s779y+5eDmcE2nZDLcM9rY2CsZa+3e2traU9O0vKKiIjRFRVVVQqF8bNvGrWnyd3ET/7r2/CyeE0CkKBKk5H0PbsnHxN0wDBRFk+8Vv4v3i7ttgWk7qJpfvs+0MhiZGOlMjGQqQiYdx7BM2qJx/P48CgrKN4SKOleGCjpuKy7qvL1DebdGb1H5yq7Dh9cryv7xX2mKcsP8xmcgB1i/8QX6/7m8tt1ri+qrtvZprKkYUVu748CWhqph0bbanoqS6lhWkkco5CXg01DJoDgJ3Ir1M6CYpkk6nSbg99OhQwf8fi9+v5+A1/czYHm9Xjxuj6BQgL0Ho9SfwQsJaIJZOaBlwUq8DFv8D2zLQtd19IyNaStY8vdkFqwSERLJKOl0Et1I4/MHMS0Vy/agqnnYjpd0BhIJk6Rus72mEc0TtEKhkh87deqxqmfXPhu6d++7slu/ftuU4hGR/5/5y73ntzsDOcD67a7N/+jKnMav82q2bThgzZoV5+7Ysf6wdKL5sLygSlGhn7w8Dy7VQdMUVDQUXGCpBAMFlJV2okPHEgJ5CoaZzDKn/CDk54NjQToFlg7JBCg22I6w97I/SyZl49g2SpZ4QdYKFBRMUCkJUJZpSlaVff5fDE2C2N7HVQVUF6hu0NygekBxgeLew9ZUSBmkMxkM00Y3LMKRNuobmoi0teFVXdiWIb+dojrEU3Gam5tpbYuTMRV69hn0Sdee+3/bd+ChP3TpdeAmpWhY2/9oYnMv+k3OQA6wfpPL8n+/qKYdC/qvX//T8LXrN50brtlxRKHV1LFLqZ+isgJUl4GeaEJT05SUBCkuK6BT1w5yMJftQyvoAGoAFC/ETIEoZMwEqkvB7fZKTMoYljz4quqgOBaapmFZjiRIqiRLNpZl4CgOLpcLW7xJsKm9/wpTUHWkKZgRIGNkUAUgOao0L1Xp8nKwNQcLi6Kiwj3A5BVeL1THjeqID5K+L2zFxlFUFDQcAZaKLfHM41XB4wLDhFgbVjpO2kjSGglTX19PWySBiQvFFSCVcdHUYtLcYqBoxbu7dB/06fAhhy/av/+gz5VeOQD7PR2BHGD9xlfLCa8Irfpx/vlV6388urpq7SmOEivq2q0zPk8Rmq2i6knyCoOU9epBUXGQInHW8/2gmJCOkDbCuFwqLksAght0C9xesBxi0aRkNuLMa6qPaNJC8RYRSyZIp5vx+b3Ypo+mpigp20FAkyBShplGdatEosLP5MKt+LCTBh6PB12AlW2gOSYut4JuZnB5PJiGguaoFGh+Eqkolt9E9diU5edLf5Y3r4hgMI8ifxDVMejevSumlcJypyUwoqsEvT5sS5c+Lp9fxUjH8AuKp4lrczAFiHr8KMFSMF1kIglsN+zauZum2iYSkRQYDj63l2QmRUXlLiJ6yu67/9A3evY/5MdDT33yrd/4dtjnLy8HWL/BLRCtXVH647IFF6xf9f0FbbUVR/brWkT3Ui96qhZFjdKlUxkD+w4FzQf5BaC5SGcS0hfkylgoli1NK8Wn0BStR/icjIiOCw+GqZBMGVTV1coD3taWZNfOaryeAjKmm/W7aglH2ygs0IiETTwuD6orSHM0iWE7+DyKZD2RhEHGkB+NmYFifx6xaALV75LP+90KiZSJ4slag5ow9dImBUoAf8BFXI3haBY+CwryguDzEYtFUC2LUL6fvICfLt1KQdMpLSlkyH7DiEYiuFWFQw8djle816dgZRLYjpFlbDZoihsrAy58oDrgNlHQ8fq94FIgEiHa2EBtXTW7a6rJ2CoFZV3YVdtKxY4kZXkHfXnwESfOPPjEkVNz5uNv73DkAOs3siZtbd8XrZg//crl33x2e9Bld+3epaN0YgtTLZjno0+vbnTuXIgWAKw0dnMLjmGieTzgc5PEQnUHibbo2E4QS/XREk+yu76Oyup62sJxwi06O3fF5XMGBm2JMGk7geqoGDGVjA4pl0U0ZRLygEdx4xgaug6+UAcs2yDo0XG7IJ4yKSovJZmM4fP50DMOXpefTFr4w2wCQT+JZBLb68WyVXyah2g4SpEvSDIRw1QdLBEdTOiSsRlWClNBOtRNAwJ+cCtQXpSPZeoEgm4CeUEcxYVHUSgOevG5bbr3LqNr9zK6demI36PRtaSU8oJ8igJebCuO4SRxuzOoWkKoKqR5q3kD4CsAdx56HCpratm1cz1WXEeJe6Sfb3tNJUqgYMngYUdOO+r0C95VCnPyit/CUckB1v/yKnw3f+KlPyyce4OZrDx8YI9CfFYURU/Rr1dPevftg6WouEPFVFVU4fUH0HURwfNQXFQg/Te6KQ6gl4q6GjbtqmXjhhpqG9PU1LWRMBzC8YQEjLRukUyoGFY5GVPDdukEi7wE8nyoqChpL5rbixLImnwuS8OjaNL/7vEGMR0Php7GI6KKLoWM42A7Onl+lXAkjMcXwsYlzVThoxIgI9QMKcsgPz+fZCSBzxXASVl4PD5st4ZuOGiKF69XI62HQbOwLA2X1yc8ViSiCbyOh3QygaGkiGdSJFI2kXCr4E+EAuAKKPj8UF5cSMeSQooCfjzodCz106t7B/r27k5+gRuXJ4bXZxPI8xMKFWE5LhzHjYZfhC3xFyoQ1Gj9aS3NDc1s21mN4skjjZ/1O6pxhzrOO/bEc9499IS/TP1f3jL79MfnAOt/Yfl3bp49YN2KuTcv+WrWjYP7dMejWPhcCj17dGdQv364FItEWz2KnQI1Q8owUV2FFJT2QMvvQiSeYcWGn9hd3UBtTYqfVm+mOdKG6nbT1GoSTzqkkhDMz8ftduMPeNDcNi5PPmaiAF8gH9uVJBoN45huFMG4LJVUMkMyESYZj0v2Fgj4JM2JxhJYpr03zoiDIf32IojoF1aXCkkHDEH+hINfyB1MG5fwm+9xqWs2+N1giBcBhgIZqSWFQLAAE5NUMknIX0AqGZWP9+zWEZfmxePzYjoGlqIRyCtFccBKNaM4pgggykhkIhYh0hqWDM3rgQ7lGuWlZUKqSocORRQXq3TtHKSsJEDXTsWUFRXQo2MxPiNNfkDDFfJgmzF0zcHt86F5CmluaGPntl3s3rWTogI/TS0Rtu5oNkYccvqTp55z23il4xBB23K3/+AM5ADrPzjZu1bMOOTjjyf/I9a2+/D+PYIEXEm6luTRr5dgAcUkYkmSGX1PNM1C+JqLSkIy3F9Vn2TJiu2s2dzI0rWbcAIaja0WbRGIRyHoV/D4/HiChRSEilEsF/F4Ukb0LMcglmxFVRzCNUkpSXf5IJMRZp/EFhkF7N4lyLCBAznwgP2p3L2DqR8v/hmEhCgh4PJhm2nKSzzMnPsOncrzyUeltqqa1995i4lv/oAgLMkUHDF8IHM/fotkZDtejyk/yzIcktEM730wk+fe+BJdANceiZaIFfTtmc9Dd91JcchHTdV2nn3hDSpqs68x94ChJi7eAb8Gfr8mgwSO4ibP55aaMRsLU7Glsz+V1DEToCdj6JZOt25eOpUHKS/2k+9W6VEe4sA+HejesRBv0EVZ1xJCXYrke1XbJUKmFAjQLsyjZc1y1q5dTyKjofo6smF7koLiPu9fcdWfH/P1HrXlP7iN9umPygHWf2j53xl38mwruvuMjsUFWIbJQSMOprSsANNoo6mhCj2TxOtzo3i9+ILF2FaQ2sYUC75bxbI1O2iK2TS3mliGj3gyQUaxcAuQ8nfE580nk8yg6ykcVae2pg13VqMptQi6CMNlg2lcfNoIjjj0IPx5hdx4698kUM2c9jSjj+6BojdiJ5JYtogCCuWDxnvTF/HwY3PRBZMBilzw0+o32b37B8pKC7ATHoxUmuJiDzf95W98skh4imD0YT2Y9taTNO1ehkoK3eXF7VZoqttMh449+WJhBfc9/hlhIWbQ4KKT+zPpmQfYveUH0vF6FFWn76CRPDFxNs+8+hNJEdz8p1zr0Qcv48ABPVn09Vqef3U2KVVBtxUCbgfTcOT3FJ8fKinCNKHY55c+taSRRPVBU0MUxUDOT+8uHgoLfXTpGCI/6HDg0L50715K17Ig3UMBOpQWgB3P6tJcfijugN3YxubtO9m6Ywuq28umzZX0HXTcM+fe+sEd/6GttE9/TA6w2nn5RTrMHbect/n4kWVdnWQNRxx0EEWdO9NY30Jcz4hgPJZjE/Tl42geNu+uZunqTWzcVEd9s01rAmqaoCkGHrcLRYfOnTqSMsOkTYOELhiEIx3nmqJLUBkxpAPHHnYUE1+eTlKwE5kaY+H3wI6lb+EYMTZuaeDcS8eJ6D/TPniAgWVN+Inh8hQTTyQJhlxkLAdffnfufuAVZsyukWN/OuUuyooz9O7biWXLV9IahpOPP5ba7d/T2GZx8uUziJtw5IhiPnr7SfTwRiY+/w/CppfBBw7iD2ceStWuSoqKDuDS6yewbIdQX0HjmonsWPM1RSUF7Nq1kZIyH47qx3D14OqbX2NzZRYwZ7xzHV4tQyZTxMV/egZpk7ngluvO4cRjD6OusZbHxj3DrjpHCvHdZtZkFbk7AnOMDEitqiHfJvzrErQ7l0G3zoWUlwQozVM4bHB3enbMY8j+/bAtk+KScml62qqF5jJRiqFy/Tp+WrOdpFXE+gp7xRMvrRjZzttpnx8+B1jtvAXuOreDM2bUILwui8NGHEimrZlorIm0K42hqWQMD5G4lyWLdrB6UwM1SZPGWJq2NpPmcFZULtiOIWiDI4L1YskMaSJJyaaQFZji8HnQ0Jn1/nhGjegnHfdnn3c53222Se9Ro5958kBmvnoTtTs2sn03nPPHl2h1wazpD3FgsIp4SwsnXvIJ3hBcceEh3HXLpTQ1rmfeN8u5+9FVkmjEayexbc1Sdje4ufCKF4WLiMcfOJeLju2CbSucdd3zrNthc+jwYqa99xyJ+nXcfc+TfLE06986aqTCzCmvs2v7BqbOns/41zbw9LhLOXuIX5qnj778JR/OrWDUKPj7+L9SW7GTpSt2M/bpHwV5YuGcm2iL7CZGCRde+TZpG+kre/SeExl1cH8cW+emm19jRxWMPv4g/v7I1VRW7uTOR55lww4RGwWvS0XTsxQ0I3xsbnAMSc7knJaVKnTuFKBPtzKCLhcjBw9g9OHDKc5zCPgT+PJMTCWJyx/ASHj48vtFtNop1m+P/TThmV3D23lL7dPD5wCrHZf/yftP+7pvKH5MnhJh9CknULNjK1ZGpyXShlYYZPWWnXy7ZCeRqEZdjUV9q8KuNkfgkgQpW5ymPY5p1S3Cd0l6FPn4619u4oBhg7j59ttZvSmSBTVFxePYzH7vPgZ085DvyjDj02+5bcISdHfWB/Tuyzdz5IA4HUM+1mywOeWiV2nzwQdvPcAZA0zqqmsYcsZ7pIE8YP2PL5FO/cTGXVWce83nXH7JSJ6//0xi4Sh/uOI5lm7JkFGhwAORdc9Sv3sHz09ZyfOTlnDkqGLefv1p0k1bueOO8SxYIYXsIhDIysVPEWnZyPI1G7hr3FIWffE0vqqvMHSVY676lJh03MPkd24j5DFYt2YnD4ybJ1dq/kd/xHZaaYzlccnVU8jY4NHgifuO4ZChnYnH2rj7/s+oaIAxxw9j3N2n0drWwF/Hvc/ilQnJpmZ/9Bb1Wzfx4isvs646RkrOsUgnUvBpbjJWBim2BzoVavTtUk7P8nw6FSucfupBDOxfhi8o5B0qju7B160LH3/0Jo0xL7H44I/+8vB757bjttqnh84BVjst/8LPHrlq2aI5k0YdMJyRg7uxdtkMmd8XTflZubGJr1dWs6vepLYpQ12tSCLJmiaWV8UQScKW8O24UNQ8TOGx1jIo2Hzx/r3s16OAgE/hiWde4Y3pu4nqWSbmceDLKbfRNZQkqDTTGNUYdX7WLBQpfrs3TkJpWkC+plFZX8qxf3gWUbvl04+epX9gA83hBo667BM0L3hTArDeQnXXMPXT2dw7fjnjH72IS0YVE4mmOeKCSdQJZPEreNMO0dUTaKuvYf7KMDfe+z4HH+FiynsvEK/ezt13PcXiFZCwoWdP+Pbr56irWMUH0+bw9Bthflo8EU/tt6xdtY1rHl1DDA1bs+jWI0j1zmwgzhFCfQO+/uQKrHgrbU0lXHvzm9LUE7e/P3Aao4/fn4qqndx6z3S21cOpJx/Eo7ePoK2phnHPfcVPa1Ik07Bq8Rs0bf2SbRXV3DB2MXbARSpjyjny7I1iijnzgK1nfWeCxfbrXUzf7gWU5utceObB9O9VQreuHTEtBYM8Vq6tYPHyHZxz4fWjBo48Z3E7ba19etgcYLXT8t92dffwuaceU9Sjw2BCXotk6wqqair4aME61u0w+WGtjakF8BeU0FBdQ1Cz5aHQxV92TcUxbBm+d0TYTSYUi6oKsHXR43gzlTh6hO+WbuPaB1cRV7Jqcp8Gn026jt5lCYo8bRhaKade9TbbakGk7G396V2atswmzxNg6848Tr34Zclmpr83gWP3j7J1+xrufXYuPfsM5cYLLqBn1zK2Vm3m2juf4qcd8PaLt3DWQQrh1hj9TnoTM1iAlYxS5IW1c+7GSYepjhVz6oVPctDh8O6bT2O1VFCxbTe1jW58BSEOP3Ig6zYso2/vflx19XiWrYedm94jtu0LPvloPn+b1EgbXnQyMg1IzIEwe3UH8r3wxbSr0BJthGs8/PmOqYhMZuGTmnDfSRxx6ADqm1u46+HJrKmCP5w1godu6o+ZDHP/Y1+yeJkl/WWbl79AxepJQmDGhbf+SGUETBU+nfUWwVSYJd8v4tGJH0vnvU9kMxlgybpeWalG/x5eBnR2ccbokZx1xlGE8gtQ8nrQXFnH4uU/sHxd5ZpxLy8e2k5ba58eNgdY7bD8FRU/7PfehD9uPGL4AI698BbSu3dRV7mC2V/M59MfK1lf4dCz91Apxly1fhlOGgZ09TGw3yA+XbBKMi1xsLweVZZQkYUQBCApkNz+MlXr5uNR0tiuzgw9aRJCtWRo4BIM671r6dsxTUBrQ/WW8e5n9dz/2FzGjTuRs08ZihHeQklxR9ZuUTn7wpfloZzx3sMMKt9N584ubH8HonGdgKlT35Tk7dnLmfjmalp1+OTDZxhWupFwuJGjLp5NWOQgOkHySLDkwz9THLJZW61z6XVvMnykwqzpr1KzcR6hoI3liDpYAeJRi4xdwjdLG7n/0el0KIOFX7xConEZ8+Z9z0PPbUPx+AgVuWlqiWGbWcBKCwEr8PWsG/AYDSimwvqt9Sze2sLCrzZz82VDOe2Eo6msaePW+99hYxOccsp+jLutP+lIA2P//iPfLxGpO7D86wnUbX5Vikjf+bSFd2c1EE3DvI//gVGxiMbmZm4a/53843HsqKEsXLgaS7CsPZFXEW0V13L2iQO44qJjGH368VnthU9j2itPsakiwsMPLQgqnTsLcpu7/YozkAOsX3Ey9w419dWxT1lN39zZt0seA/qPwBPIp7a+iuvueIYm08fgQ07GJsC8z+cQaY3y43eTGdCliL/c/RAff/YT4bgtD4QUXYqCBHt0UhefdQCvPnIhRvM6vJpBwijh/BveZe0ug1bTkk7rrz+6nm6hOJlYHZ26DeSnHSpnnz+RmTP+yJDBnVi3YhF9+g2joiGPMWdMkL6t2R88yFEDEih2C62EiMVT9OhQQCSq4y8ezE13T2TqrPVMeevvjOi2iUQywoizPiIqS2EFyCPJ9m8eQrHCbGqEsy5+gSMO8/HWa38j1byKnZt/IFSST2lhOYW+Up55eS7PfhCWDu9CL2xY9TZG21om/OMlXpuVZtghQ5gz43XizRW4zAR1TW0ce9btOCZMeeliOhVmZFqOlleEld9b1tnqVWBQuXULjWGFW+//kNUNcPZZB/L4Db0xUi3c+cj3/PhT1rG+4Yd/UL3uWQwjguE9hEtvmE+rAbOnP4K7fiHNLa1c+cg60gp8MuUJevfszuIV6/nzbROymjAhsdBUigM2px/bl789dBNFAZNMsoWNmzewtSpFoMNxN5x55V9faYfttU8PmQOsdlj+f9x5yZyyUPVpJx7Tn3RrI8mMzZrdUSbPWMq3S9OMOeUPxJw4Xy+cT9CCDSveoaVxC2+/P4uJ727E0jwgUm6k10qXwCWEni89dSOnDA+w+MvJnHrKaFJWByZM/JGX3v+elNBZKbBwxhV0zIsTa2xh6LAjqGy0OOPs8Sxb9CCVuzbLvLnhB49hxfoIF1z5tPQrfTr9CQ7p2EhVdQWHXzQLVz786cL+PHTXn2iu3UZTs8IZ57zOGy8/zNHDm2mJRxh80mRignEoUOCHVR/fimYlmL+ykb/c/wmjDs7jw/ffoKVuE9dfM5bN22Dj6keJVm5m2bpKLvzrIgwvuNNQsfot1PAy3ps5m9tfr2X44T357I3x1K5ZQL7ZRMzwcdZN02huhdmTrqQsLyMTqCvrG8kv74eVaaPMVU24tgp/sDe3PjSfZVVw1hmH8ti1g7AyYW4bO4vl67JVcNYueYbmra/RpVQlEi/h7se+Y8EGmDnjEfIiC6muqeWqh7fL3MYZr/wRK9VK3Axy/Z1TZcRVRCbLO3agX68yOgciPHTnBfQoT+FXTRJxD198u4l0oNfEy+98/ZZ22F779JA5wGqH5X/smhN3d+nQ2v2sU4aQaNxCc1uGDxfsYO7XLRw66nwpBs0ocRrq6ymwYcfat2lt2ciLr0/m1em1JAxVVjewbAvhzg0I/NLhi5kT6Baq5/23nuXWW6+lsU2lsraIsy4fT0JWRBAM6yp6FsP2LdV079aHUFGIT+d8zCUXnM/ypcswTI1+g4+gshWOO+1+MhrMmvw4R/SIUl1XyyEXTpZO+oAF86bdyP49MiRiMPK4N3j0/ss4/9QAsUyKMZe9y+babMUakXbT/NODRBrr+ej7Ru4fO5tRQzzM+lAA8W5uuOleVq6Db+Y9QqlVRSzjcPilb1KfBq8FO1a+BbXfsGL9Ws4Z+xMF5XBQOVx8/ADOObo3jXE44dp5NLTBvLevIc8dIxyLc/UNn+ItgNIQ3HhhKYcOG4Db05kLr53OumY4efRQnrnzcCLNtTz47Od8s0LEP2H1908Tr/yQzoUZmhvTrNiS4qYJlUyf8QDu5s9oaAzzp4crpAxjzhvnoRoRwgkv19w5R/oLO/fpwfARh+NzZajesJB7/nwKY0aVkmytR88U8emCNTRaJQvumjB3dDtsr316yBxgtcPy337uQGfk4HxOG70/kaZttMThs0WtvP3xRg4f8weCRV158fnnZWTQD2xd8z6RxpW8+c5UXnmvFpE8Y4o6T8LjrKholkmBMGWWTkHXN3P/fWO54/Zz8eeVAKUcceI42lSkMPTLyX9mQNdC1m+sI5WOcvhhXTCMNB6tE8898wYnHXcS3fsPYmNjC6df9ITM7Zs5eRyH902ws3I3h13wPqHyIJm6BB++dgsjh0FNfRNHnT6FU8b04YPXr6Nm1zbGv7KESVM3oCtw9skDmPrM+bS0NHHBnVNZtqqNIwd7mDl5Iq1tlVxzwzgWr4Yn7j+Ly47uIgv8XTf2PT75PiaUBKz4+iU6WCupqavlqEvnSamEYJ5P3ns4fziuhKaYxUnXfkZdGBbNvJFkrJpIxsWl132EJSJ5GfjHX0dx+rEHsWt3DXc+OIPV9XD26fsz/roRZOJh7n5qDt+tlNPJ0m//Qdu2GWxZvYRTTjyE2jYfx1/8LR9OuQet5UuaW6Nc/tB2me84d9IFmMlGEkYRV98+k5gLCkpDnDz6DDASVG76lkvPGs6V5w2hrXEneXkd+XjeCjY1eDY/9uKi/dphe+3TQ+YAqx2W/4YzuztHDy/lzBOHUFu1jnBS49Nv2pjy+RYOOuFUCsq6M/vDWYTr6nA7sHP9+8TDq3jttXd5aXKTZDiW8LrvyZsTzvYxQ7ox5c0naY1u5/AjH+S+e7pxxZ+uor4+wrW3P8vXa7LJdvPfv4GDD+zDt4u3MfXDt3jpxVtJJ2MUFg/juCOvY8LYPzFwyBBWVldy7h+fIh6HOVPHc+SAJOs3rOb0q+aQSEMQ2LFmMoa5kyWr13LJjTMky9u+5FHsTJi4XsRZFz5MQxi+mPs43QqqiSRNhpz0hvSLHTPUw5zpL1JTvYW7H3yKLxdnNVjhNU9SuWsj329u4a6xc4ik4dkJV3HSMOEcSvPi1OVMencbQsXw+Yxb8Opr8RV2ZegpkxGW8rwPriedqCVBIedd9S7+Mj+tDSmevuckTj1mKA0NNdw/7j02t8CoQ/rw1C2HoydaufOJT/l2pZRasWnlq+xe9QHvvvYtTzxxIpsrInz2bR3nnX0OVtNidtW2cNXjO7AU+HTShdiJFmJGIVfdNp2YcIJ5BBieR9DlsG3tV1x0xjCuPn8YyUgVRSUdmTzzW7bU5W0d9/LiAe2wvfbpIXOA1Q7Lf/kJZc6YI7px9klDaGncSmvKxawFzUxNSsuuAAAgAElEQVRfsJkDjjqF/NJurFi0nPXLlxNwYNva1wk3reD1t6bx4uRWEiJOL0JR4mZDvgbP3XMWJ486gEi0iYzZxOD9y2kK1+P1d+C5N+bz9ifVsrHD5BeuoX+PUlZvCXPtDa+yYc2DslTxpg1x/njJS3z43uV07tWVmqTC6Rc8TiwF096+j6P6RghX72D5ugz9BoygT49CAv48MkohN/51PJM/3yz1SK88dBkXnz6Kuuo19BrYEyNpkEwmZch/4uuz+PukTdLHc/wRpbw76UmaGiq56y+PsWi5JaMIC2c/QEGBSZue4djTnsEQaXoO7FjxGA3V6xl44KF8Of8rAprCgf37EK6voLre5txbPpEm2nez7sTQ69lWHePGez9BLYJ4Gzxz78kcf9hAqmt2M/65mVQlAow69ADuvaQvVjrC2Be+Y+WGKK1tgmG9RPPWubz5+lx6DfRywkln4vfnU7tzCwVWmJo2h0se3SQFvPNevxg7ESZiFHLlrVOl7ksA8umnnUpxUGPHxu+58vzDufSMQcRbd1Nc2ol3p3/D5tq8reNfywHWr328coD1a8/oP028i48udk46qhtnjhlKNLyDWMrDzK/qmfrFRg448lSCxV1Yv2Idq5b8IEsab175Mg31K3jr/Vm8OKWFuEhwE46hvQzLhKUf30Z5wMRxFZFMx8gPZbDtCIplsrXK4Yb7PsGwNV576nIGDOjE8vUNXHbli3w07Ur2G7g/77w9nxefnc+MD66nW++ubK5JcO5l4xFVkufOfJKhnZso8dmk08VYeEml28gv6sak9xbz4IR3iYv0FaGFMmHuh2MZvp+fZKwKBTel5T14edJ0HpmwiJQskwdnnDaEic+NlUndV115C4uWNssS7LffciZ/uvocVFXnjrvH8vmXVWRScMcNh3LzDeewc9taFDtDp7Ji4tEUbi3Evfe/xMLVonIofD3zXgy9jsY2kytvfh87BEYKHr/tOE45drgMHDw5cQabajUOGtKXv99xGJHmOh57/lsqG6E1kubzWc+TqvmWOZ98xOS5MHvOX6nb8h3HjBjIT999T0Wriz+O3yirSX/5xkVYiWbCegF/uv0jGShIZuDE0cfLelwNlau449rTOeOYroQbtuELhJg5bxVb6oNbx738fY5h/crnKwdYv/KEiuEuH9PFOW5kCaePPlACVlL3M+vrRibPWc/Q404jv6QHK35Yzrqly2QKzK71r9Bav5EXJ81g4pRa0iIz0G2Slx/A68kj2dTI7lVjiYVrqYuW8sPKLdTU7+LYwwdwQHeFZFrj/OvexVL8/P3xyxh8YD9Wbmrg6j8/xVmnD2TCuCe55OKb+eH73Xz0/u307N2DnY06F152N47j4uWJf6NP5wyZRC1uTx71TVGZ4zj1w/l8sWCjZB8pJY1uGVL5LXxvpxzfgYF9u5FOwo/L17N5Z5pEJoux4t6jV4ms+iDKJeuGTU1tRpbLEVqmM08+CL01gksL8MV3ayVzEkX4Rgwr59yTD6Ffr1JSmTQJXWHyh1/y9fdNkokFXfDF9IfxKRFa23TOveIltFJIp2HsLWM47YSDaQnX88ATr7O13ssRhw1h7PVDSMdaGPvMQqoaLdlKbNaUF2nY8jlzPpvHO5+bPPro+fQPVrB/Vy/1u+rYUAt/HL9dBhQ+e+E8SLcQ1vO45o5PyLggZcJhhx5GSUilrW49D9x+HmK9Y+EKLMfD3IXr2N4Y2vL4y98ObIfttU8PmQOsdlj+m88frI8c6HGffsL+chPrTpBZX9Xx1qw1HHD0KZR27s+Sbxezbo9JWL3lTZpr1vHCq1N495N6fMU9parb7XYhyuYV5bWxYMatVFfu4pLrXqcx5iMSS/PgX87notGdSCRS3P3EPL5fWsWsqY9SWhZi2eZ6rr9lPD4XLF/2DccefRrqP6X0j9x/M61tLWyuaOSLL5eAFaC0tADHbCASa6G+KZvHGIlDftCDS8mTTSKSmVbS1h7F5J4KCKKdoZBSCF+PyCXWRJhyTxka0WdHqB6E6FVUcRYCUAFWbo9oomqjmVlgU/GSxsJRTAJB0OIQdENSqP5FyWThM9rDNIUP7PSjezCgezn5oRDPvbwAf6cgTQ0JJtx7GaOPHEJNYwUPPfECjekO9O/VgafvH00q2sRDf5vNdiFpV+Dzj1+gZsMXfL7wOz74JsJJJ4zk1jN7Etu9DFvP0GCUcvML62UnskkPn4cr00TEKeLymz6W1SEEgzxg8AH07lZMuPYn/nrLHzj2oCKMVBPJtMOsL1ZTES7ZPP6173JO91/5fOUA61eeUDHcvVcd3rRfl1Tp6ScOJt68C9tVyLR5u3l71jp6H3Qk3fsMYeXyVaxYvARRor1i8zs0Vi3h7cmzmPVVhEDhIFymaLdl0ZoMc9Xlx3D+mBBGxuRPt0wnKsw2O8PwQWW8POFyTFPnhQ+W8NRzs/lw0jhUt4tFa7fy5nsf4nb5GX38aL788muCngCxpgbZhcZ0ufD581Ac0aoLjHQCy0njz4eEniZjebBFmWTRbjWZwjRtoqIyn2yemm2KKjKGpPh7L60yVNnNx9RNUUaPoFfDNOKyIKF4ScCXTzQt4Skr2xff0dTQFA3TpSO6SIRku/tsZQdD1LYStZCzbRCl80hUOBXWsvAj5Re5sZQQQY+PPmUBivJVDhjWh6+XrKCiReW4o0dy19UjScQaefL5j9m0Q/j54ItP/k7F2i+Zv3Aps3+M01hjsWzarUR3L0LP1FMV83P/6zvQDZXJ487DSdaSVIv4402zpVhWCF579urDsAN6E65azt03nc7ogzuQjtSiO16mz1lOQ6bbuoefm3dgO2yvfXrIHGC1w/Lff/0xdb1LIh3PGrM/qXA1Ll8pk+du4d3Z6+g06FAGDD6UzRu3sODzeVLWsG3dW7TVLWHGR58yc14dhlWMnRQt2n0Q9PLYo3+mX8cwu6uauP6uaeSVDJKdkq1kDXM+eJIvF37BusoEPy7dgJqyZCJv2uNF8wdx4cblEm22RCt4k6C7QDa3EM0nRF9AyxB1tgKo0m8G0Xg9lmLgyQ/R1taGZpq4NQ9G2pE+nbQIFQo0EQ4tIT0X6CEUGIJtibw/ocTIyrPEpZPnyz6XiP+raqiI1MW07DBu4Yt3srl8iqg4Ydn48JLBwhD1Q0Wlvb11X8RnCNPQWyC78ahu0dHHj09VCToGjhFFcem4CwoIp1wUFnrw65UcOnI/tlUmCcditIbDzPvkBSrWfcfnC5bw+dIolu5w7+XHcvCgAOGWFdRHXdzz3GZU/Lz9+Nlk2naRUUv40x2f0ibA3Q2lpeUcNnIw4cql3HfTWYw5oivNNdtw+Uokw4q7Bk6/+eH3zm+H7bVPD5kDrHZY/of+fGJ1x7yaLhefdQjRxl24PEV8tqie16YtoaT/4fQbdDCbNmxm4YLPpaxhx9rXidQs5eNp03hncpRbbzuZYw4ZyqChwzj25PP54IP30OwmpsyYy4tTluLJ70omnSDgcbAiDZL1ZDx5aK4gAdsn62alNQdDEU0eBA0ywdFxHBXF8ouezdhqAkN0kVFECwoXbsONY5k4ShoTHd0xMXQTbE30W0U3FJkPaMRTkvEENBeWlcJWs0naJQG4566TOWH0kfTv0002qhAtaYymatxujZb6WtpawtTVNLBu61YWrW1kwVLIWFmpgSgTk82h9KKI68PERsWUylQHRVRBFexKgJzbj2n7yC/Kx3El8WoOfkVDcxwU1cRxuzHcXjTFImCnSEXjUvvmaC6S8XoG9e/KoB4dqK9rYcnaRgJ5+TRXbGfp90+zZvk71IZ1JryyVZaOeX3c+VjxGkzKuGfcVDY3IcW2RSX5DOzVAXemigduOY8TDulMpLECRytg1hdrSHkPmH7jg2/mAOtXPl85wPqVJ1QM98Rd5ywPadtGnH/KEDJtdWieIj7/oZZXpy6mpP8oevUfztbNO/hy3lzJsHasexXi66ndvZ3BQ8dQ3xAlFYvgDRRxyz0TuOeBR5g980N+WLWRFjNExvHiFxoDXUe1HQk6uktDVdz4bR+Ko8iGpuLIK6JEqW3IzjCOo+A4fmmS2UoSkzSmqqI5bry6RwKWpaYxHR3TdjB0B83WaI3ECIaKiUaj0owTvjAPlrTqBHhNm/Igo48fTiZaheZJ4gqA1VTNdwvmkYlG8LkFw7OJxxMU5xeR1A2CpZ1oTsLmqgzrtrTx2fwauRJCNmChysoUmgAm041pGyikRNEZ+Rq/PwBqCLffi+KK4HHb+JQALtkpWnTFULBE13uR6eh4USwVS/HgiG7WpFFN0f0nI5FS85eRMTLEE7WMH3cDZQUNbN9ezYSJy/CqXl554kJSrZUYdoixT0+lJgV1reDPczP8wD6ose2MvfNiDhkYxEq3YThBZny6CjNv6LQbH3rzgnbYXvv0kDnAaofl/8eDl3/hN9ec+IeTD0BJtOCo+cxfWs9L739LWb8j6dZvKFW7a/ls5kfkI0rtvs761e/TvWsZutqDSCLI4h82sGp9BVurW9myqwK/T6OwtIyoIYDJi1dUGVVUWeJXHGdD0eQB9QqHtjCxFJc0qhRNmHCCKQmwUjBVRQKWYtuYjilNMeGp8mY8OLaB7hK9/GxsPSAV5JojeI5oFxaVnZzTsSheJaudGrJ/gIVznmHnluVs3biLdCqGrrdQUGDTs1uIjWtXk19QTlubjk0+ocIyZn+8SjZe7dfbS3F5Bwo6dsITKCUWUZkxdzEL1oTlNUl7URSkEh59qfg3UFVH+ttcXg2/rwjdMAjmq3hcbjxKAFUIp8Tb3DaOO1vYymXl4XH5yBhpNLdGwO8mnWjDSMQoys/DMCw0r4eUapCI1TG4ZyE9u/Vn/tc7sc0oE8ddCFYjsZTCg098guH3UFmn4/Hm0btrEYVaLY/efSFDe3lw9CieQDnvTltEqMeJL11229M3tsP22qeHzAFWOyz/xMevm+tKLTvlvFOGoCRaMe0AX//UwDNvLaSo5yH02u9gWprCzJzyPkEHmivmsGvn5yxasogly2pZu7mFtO0l7XjRvMXg8uD2ukmkU7Jxqkf14ETTspmF7dckS7IdDcWx8TmGPN+2ku3ALJo5SJPQcmd9RaL3n6OgWtLHjaXauBwNj+7DsU3S7pjo5g4ZL3ZGwclkpFNf8YjW9M14skW6pI+qtX4u381/je8WfM7UqRl694HSEjhoRA88njZCBV4s00NNbYT6xjSduvbh7vseYNGX3/Dpx3PYvquBTTuhSw/RAszNT5sMqkQITlQmVX1YGeFaF74t8ZmWjNqJul8uNwQDwj2vSvW72+3BrQSlaavsLWvqSssa7C7ycGxNBghUKca1cWkKHtVBFaCdSaN53bSaSbwBN34jg54wUbVCbKuNGy8fRYcyD5l/hh8effJdWmIqjWGbkpJyenbJJ+SqYdw9l9K7LINqiYqmIWYtWE9R9zF/P//Pj9/dDttrnx4yB1jtsPxvPfeXF5KNC2488/iB+M0khuVn2eYY41+ei7v8AAYNP5rW1ggfvv8e5cVurr36QhZ/+zm1Nc241E4oXj9Rs5n8wnzslAeXO49Y0sAlTCDFJpOIE3IF0FwKaSclo2mytoODLH0n+/aJ6J9YXc3EkTICD7botKwJ09DJ/i5AS9MlYHlFcXbLxlD1rG/LsjB1YfYFSCSSUr9gWmlSqbhkWLfedCT3/uVqnnxiHK+8tlWq24XBtrdZz9ADoFM59O/di+LCYgYPPphAXiE19Q0sXb6KxuowO6saWLktg0vk4aSyTvmMqKcjzV0Tr6LI1vS2iAzsqRUt25MZ4FM9BApCmJqB6nHj0vySKQpEE8CkCWaJI2twiVrzHo+AWNHaTJc/u9w2SWGi+oqJpWKohQqKYpGKxMj3ByTwqU4aK1pLx04ldOrZhzWbK2lrdWQ/SJ9fo2OxyvD+BTxx/xUUuxpwORkqq2Os2hIn0OHov11w0+P3tsP22qeHzAFWOyz/jLfH/aNm09TbTzi0Bx2Dbln7anOdw0NPf0jC05uRR55Cc3NYApaIgHXqFCLoD+DR8sAqRPOq2ME2MukYQTMoa5178ouICZWmInrl+Yk0Rgj4PNiaKa0mR1EkULlEpwihALAVhDZccwlyIgBLdDoWgGVIpuU2vPJxU9NRFQWPrklzy1KEIWli2ILBGXjxEI0kMa1sp2fhTxKG11WXH8ijD91KfWU1Dz30FF99H8sGD/dUAPW690QOrX+pHsRzsnmGAFgn20hVJDqLN+Wpoku07HuKxwdWPBsczH4b8OFGtJAQCclS2yVaewXzIaBkAcslnPWik7MLTVHQhNBLvFvUXReBBceFqrjQNOF9E0URdcm0HF2V86YraVweN5oATEuUS9axMyl8jtCgpVGCPgThi7XYtDS3yG8iasmfOboDD995sSwzk4g2UVObZuWWKL2GnnfjmIvveqkdttc+PWQOsNph+T/94JmbN696/fljhneid1kI1DyqY0HueuwtapLFHHfKBdTXNzJ9ygeyQFO37h0JFQZldE9PunH73WQ8bZh6iiKjAFN3UArcpCxdmm1+j1eaP5Zh40gaJUxAQ5pAmu3CcoQjXjjdFRTRzcEycZkOjlBHiaie7eAxRBt6m4zogyUkBbaFJUDO8UoflumkpBRC0y3JwIQD3jAzpK0Ulihg90+n+GMPnMHVF5xAUEnSXFdFXc1utu/aSU1tBYloUgJBU322Q7S4SSWEhjQ5BfAI004IT0UbLj0FbQlos2D1etHZBuI6KHkQSYrS8QHZ9t7RhA4D/GoAn8ePohq43G40jxtVEZ2D3NK3Jzx4gl0qHkvmBFoCGS0Xbk9A+u4MNYEv4JUXYxsKQU+IttYYjstPfoGfZLyOoM+NZqjy/UmPgWlatFbGiLclpHRDw+CME8p58M4L6BKMkk6EJWAtWt3AYWNuuejQ067OtbX/lc9XDrB+5QkVw82Z/I/rt6149eVjR3amS2kRiiufllSQmx98ia3NBZx+3tXU1tYyc/o0aYZ16VyOL+AhmF+AlXGTFg1RAzpeTSVo+NDTBk5AQXcMvG6NTNqQoX2hH9IUjwQgW836e0TEz1ZEtMzGlL4fVYKcZglXuyUfF8jhNhRsx5St2YVewHEsTFvFdHyYjoJh69hGCkWAlvB9ZRzSegZd+LNcAuCyTS8KHLjrhoH07pZH5w4FpHWb8pJSDD0to4pmRvRdVNG0IIlkDMtMoQgFv+YnkzEIqhpet0cO6PJ78BYHcHmCZDIB4hmFjxd8w5RpW6WjXvTjyoguqFL9rhIM5OEW/ii3JkFLVQW78kgph0vQNsE+tZT8fi4lIP8g2MJkdKvYLhPdTOMWjT5El+e0m4JgMfGMkHaIQINooGricjxS8xVDCGAhURcn0hJDkX8ydP5wYgeeeOhyiO2iU0mIJYt/Yu3OJEOOv/XCo8+6/sN22F779JA5wGqH5f/2szcvWD3nsanD9wsydMRImiNJgoXdufj6v7O2xs05l91CY20NM2dMk2ZaYUE+nbp0zAKO5sUU3SiEQlL8vscmsoUI6d9vwjayhe9FqJN+bvWcZVx7+4NJZuNkNVZCpyQ818JsEyBniyih0Gc50jFtOy4s2yW7wFi2IaOGInlQvk43ZH6fYBlZupQVigpZhsAPmaKztyWZqNJVAEJ9kExAjz4CCFXcbq9kP7qRJi8QwNYNioMhGQW0HB2Xz5Hq9VB+Hn26D2TAwB6Ud9bIZDQuOPc5WcpGyh5cHhyfMHcVgpoAKGHqaVLBr2kCuEQBxOwsIBilokgwE8ap+FmWnhbyNIG6ojKGAFThmBcO+z2RRhQxXzJUKdOGbJcAMYWdW3ZKZmvbKj5szjkxn3H3XYWZbKZ3jy58MWMK2+tg9HWvHTxg2MnL22F77dND5gCrHZZ//eJPRn797i3L+nd1OPGcc6moqaegsBMXXfMUX62FC664hnQ8yscfTcexbfwBHz169JAHLWs6ZaNZe8Hlv71EyZ6yUoX/7pYdQwwj2FP2/q+xs/aZLQQOjr0HsFx7QEuVDncBWLZtoRvJnwErY+jY5h4p+57hXapbvlZeumAvjldCpxsVm4TMIxTiUPFykXIjfFvCnBQdmLNm1c/4l/1dk5Ix+XjePxsGPTr2EI4adRjlRfsz+qRr2FkDrbK7kIrmd5MnQFDVfgFYIiIoGl5k51LVRJQxC1S/nE/5s+jkvGf6RDlqRQhrhYMt+84s0xKWpGNmpaymzs7tVdK0FdNf6IeLTi5l7N1XkIyE6VZexMx3X2N7vc0lD37Wv9ugo7e1w/bap4fMAVY7LH/dph96vvPE2bu6FCW59C+3U7VtF2Vl3bjqlglM/8bi3EuvkAxgzuyPiUYiqJpC3759JUMQYCHYgmA1/37I/ntg+n8Dlr2XEe15s8jr+xeAicMpJBEC+PYyMcEeLBkRFNcg2NDeiGFG9LvK4qQkJvKwC+Kyl+AJENrDUMQBVzThY8t+cFbPKWrUZOvU/wwmIlAg3GzC4W/9KwtHgt4/u0q7/ln075Y/D+WuWy+hribMkceOl7l8uuLLtv7K96JpDm63cLxnmdZ/ASxVzc6jEI3uYZfyevYAloxKyK+QDVr8C7Cy31NIKgSwG2Iu0mkqK0RdaPF6lY7FNpef2ZtbrzmDSFMj3TuUMGfqO+xqUrj6+a8Ki4tHRNphe+3TQ+YAqx2W33FWuMdeNEbvVmxw1e03UlFRSadOvbjz4Zd5c3YLp5x3ET6PlwVfzKehIXsAevfphd/vl0X4vF5hFmYP9f+TZe1hAv/+FX7JpgRg7QU+8fi/A5YjvD17wUqwLdvEsjJYtpA2GJJRCRNV1y10PRth3HuT3ZFFcrJwn+2pvuB1+zAyOpbo4SewQDjohXZqT7RQvFfmMavZu2gKIe5Zi9YtlVQCDU3ROx6boNBkmfDjt9ey34H7c97ZD/L5N1GhV0fR8nB7s58jAEvc9wLW3u8swOuXgLV3Pn/+YyDN6T3aVBlp3cuwxKdn/X57mVgsFqOxtkEyQGEe9uqocfnZfbj20hPQ43G6lJUw9Z1JbK01GTs9kTtb7XC2cpPaDpMqhnzg3HKnZyeLq669irpwM8UlnRj/3FRenbGTg485C78/yLJly6jYuV2aZ126diYUCklw8Hg8GEY26idFk//P278OmHjZL01B8btgR79kagKw9oKWBA9Hy/pybGH2CM2WKU08KUoVVRZsBV030TOWVIVnW5FmqVXWGyRMVxtN6rSygCarCO9Rw4e8cN8d+zNsv64EvAE2bGxg0vtLWLMLWQo6uSe9RwwlErVFlFOMqis6bo+GljERRuak50dyzvkn8eKr33DPI9/L9zqiOI2UNLjweFz/BbD2sqyfgWuPafjLPwLiOcEuxRULAJLPiQxGKbwVDCvLRvcCltDOtTa2ZE1CYGB3H7dePlRWljVTBiWhAqa88zY7Gh0enxbJna12OFu5SW2HSRVDPnJJj+YuxZmSS6+8mGQ6gT8vn9cnf8lz76+hz+ATKC7tyJYtW1jz00rpxyoqLqRDhw7ygOw1DbOH638OWP/FTyVpyy8AbM/3/CXDEmdV+MAEDCmOAKisbEL6sGT6oYJjOlnA0nUMQS1koo4ALVF4RvxnokkekkZVFRnx0zMZSbwO6A0vPHkuHqeO/fp3l73K4s0WdW0GP6zZwurtdcz5uo6G1qysQQQYhLxTbErhXBfXJ5LDywPwzkujOWbM4Tw6/iOenLietAANt1der2BW/w5YgmmJ+/8NsPYyLcEw5Wv2+KWy8G9LEHcUITwVvjhH6toa6ptIRmNZ4a2iMmy/EHdcMYSjRnTDztjkBwqY88knNKZCO+96aWOfdtpa+/SwOcBqp+V//o5RCwJO3fFnnj0Gmwz+vCCfzF/N4y9+R6jTMHr0HcTOnTtZsfQHeUCF+rp79+7y8P1scv0iqid1BP/NLcsQfnH7Nyf7XtD6mXntjRpKp7sidVwSsEhLYagUkwqwMjxYpksmLUuwkmknewRVkhXJejCognNpIAKbwvQTlynA6qSj4P47TqNbiU1hKAhKEQj5gFCcWyatLa1UN9ZT09ZEZX0Dm7Y1sm417FwHKQekQSXkExaMHAzvv3IzpSUdufTa55n7bQMZXBi4cTCkSSjM6L0+rGzEUEgpsoD1s1n4C8f7Xp+WEJtmAWuPk36PXt9WRFFB4XRXZfRTVDytqW7ATGdk9NDtUjl4cDHXn9+bY0d0l6Jf23IxZ96XmP4e39/wxHdHtdPW2qeHzQFWOy3/24+e9WGiacP5550zBtWVIVSUzzdLt3PvE3Mhrz/99x/Glm07WLV8adaBbUPv3j2lH0uwIPmXXTy49/Z/ASxhFv0S4PZGBfcClQzj/8J39TOzEOJSGboTjMnCdkSN+Gwaj2WqWLobW1Q5EDWw9CSGGZfg8HNtqr2m3F4DUbieRBQQuPaS3lx23gBK8yN0LhLCB+HM6kB1RT3LViyld58eDD3+aGhtQEjJaxsaqKqPEI+CncwnGod1FbtZvaGK8jK47orzOWjkYH5YuIarb/2I3W0i4dsvG52K6xaRPGFG7/Vh7QUsAWD/7svKstY9TnjBDaVTTjDF7B8KVSR+S01bFrCkckQUDLQ0aqtqsYWJLevAwqFDQtx33XCG9S+W8xWNmXy9ZDXF3Ue8edGdU//UTltrnx42B1jttPxzXvzz33asX3j3cccMo0NHP3khD1t3x7jt4ZnUhP38H/beA06q8mz//545U3e2sewuZalL3aV3EOyosXexxURjLIlJTDHNmJjXJMZUNRG7JiZ27AXFgqAICCi9Lyxs77PTyzlnfrmfMwOrSd6/ovjy/zjz+SDszsyZM885z+Vdrvu6Zh51Iu2dQV5d+JICCXlUVFRQVFSgNlS2+C7p2YceHwEumXnLdv16/t3zPVnAUiDW44qrUR3DUumN/W8D09AwBbRM+TRRCUYAACAASURBVDmpHHGkkZZMxhVYSTQl4g8qwpIyuQxYZ+pWMmP46xumcNjUEkb0d2JGWpVJhhyzV/kg8JXQWNvJwoWv8rUrvir0cxQLVQpGDgfxeIR4VxfB7i7auruVwkIs1qWiJ1Eyfe2dBm77WzcBdBIyvS04mBkzFIAXgMoW3+Xfdh1LztnmaGXBex9o7Yu49gOWqv5rGcByGHaNK60TCafUOJXMNQpgSTR56rFD+MU3Z1Cen8RFITW1XazeVs+oKSf+5Njzf/3bg3RrfaEPmwOsg3T5F/3tZ9/cvPrlv86ZPpwJ4wfQFW4iZPi57Jr72dXqYs7c02nrDKtOoSgRyKOkpITy8lL1b4muZKP1TOXUEx8BLFVW+l8eWcDbV9/KXPF9hXf5bNGREpZ7Kq2ASp4z1AhOQrHho9GkDVTSMOtRUhPjVpHbynfCmFEObrrhcor8e/G722nYuQFdamJGmuKSMnSPl9J+QykqrkR3iJ6VRe32bQwZkZE9Fyan04Jwu90WFBJWSz3BUDstHQH21Id4+pUgTy6GmIZyulbRngJPO2r6KGjZKaFdh+pZhM9ytLLvUT2/tDQRMua1oiQmX0wz0IRwmtbpDiQIdAZUnU+qWgJYZx4/kBu+MYNSbxy3q5xN29tZ8n4tR55+2RWzT7r23oN0a32hD5sDrIN0+d9feOf5i569/9HqYYWcevbhdLRsRff35byv3sbK9XDyvHPpjqZ4+bkXFGDJJpK0ZsCAARnSox11/X/RGrKA9FHOVhag9gHWRyIrBVgysiMaUyYYKZ2UoSmwMtMpDCukuFgyby01IqelK5Z71hNCzk0E/Ipd8L2r+nPkYeMZWJ6HZgTYsn4lusMkGbOt4YU8KulnUa9y+g+totfQMUpn+IH77qO3V+P0M06B/BJ70tnphliI9voarFSQZCpC3EjRFkry7gftvPZOghUb06rGJSMzKVuUYd8jC1qylhJVyR97HUXBwS7EZ2ta6gk1QWATXhUTXh3MIO0QNw3haghDy017S5BwOKyaDAJYQoCdd8pQbrh6Jnqshf79xvHsq6vZUBdn3uU/Oqpq+nlLDtKt9YU+bA6wDtLlD2xdMvQPv/72rkFlJl//xllEQrvQveVc9s37eP7NIGdcfB5xU+fpJx5XKWH2//b9+vXD7xffZZt+8N8Aq2fk1bMuJV+nJ7N938+ZK519TtXHBCg1qVmJuqhDDT+baWG5J1TNSgBKGOkygiM1GwErr6RYDujTFy7/6lSOnDwYX7qTqpEVkAiy8vU31eBxNGkPScuAcyQGxcXSJPRSVN6fwSOm4Ko+krUvLOSDZS+T79E4d94FtqWyt7fiYe3dsJKli5fi84C3wElnzKCly0V7sIL7n6hVXUSbqfUhvNoH8tmaVjYVzKaGWcDKRquazBSJPphU30RTjLQaxRFVDHUNFIg5aWnsIpVKqoFnia4K8uErZ4/lu5eMJ9G+hyGDp3HXQ6+wJ1LEj35+V69eQycFDtKt9YU+bA6wDuLl//5549NDyhNcc/UZRBN7lXvOz3/zMk+9sofJR5+II68XLz39NEnVebIjAOFiCb1BIiN79u9/pzVk6zL/rX4lm79n0f1DgKZYm5qqXRmi1iAFZ2F0mwaGkD9TQj8XBQRLFdN11ZuD66+fztRpvehb7qV3YR+KnF4cUnHvbqNhy1oa67fj8kA8lSYUtbM2f6GNeHnFRYyZcBQeXzWOor7cf9uvsJIdDB9SztFHHwf+fpjBKHpemsCOrbzw3Bv48pw0hw26oxp5haN46a2trKqFiOgSSskpM0vZE8SzdSv5vnakZXcNs9GV+lvY77oAlI7DEq0xp53ySmtSS6iiu0qRTZ22ZiGtCwsthdsB/fvB5RfM4MvHV6DFOigpqua+x95ic6eX+U98kNtXB2lf5Rb2IC2sHPb78yaHh5TF/FdcdgIGTViuIv5y9yoefm4dBQPHMWDYON569VU62tr38a+kaDxw4EB1VrIBMyNxHzrLj9a1/htYKTBTXCu7LtWTMGq/R1OgJIx2mZdTLjqmTRA14pYSKpWYQ4ibslHFkuz5p76Lw1FLdZVfCeV53AMw4hpOIW7pCZItW2lv2UMo0Ep3dzcpw43mcNAdiePxQ5+B5YwcMwsYhmvIOMK7tnDP/N9T4k5z8snH0KtiFE5fPkQ6VKS15LmXaOsIEEhYRBIiOljA9oYU/3i9XZFObea9sNn3z0tmU+ksmNvF+P2Fd/m9Ai+nhuUQgq6Ow/R9CLDSDhkAshQXLZEwCQWEWy8D0CkVaY4d4+Gqi47gxMl5uJNBCgtHc/ejS2mkYtMtdy8aexBvqy/0oXOAdRAv/5++e/piLbb1qIvPO4yCkihpVzHPvdzMLXe+TMTdl0kzj+KDFe+xY9v2DDjZYyT9+/fH6/X+G2D9WwFeDRTbta7/FocJ6fGjXcSe4CWjNwJYhqhrCkEyZZtPiEaUFLdctm+NirAeefDLjBlaRG9RYvBY4CuCZAF480jFO9HdYZLJJoxIG/n+AoI1tSS6o3S2tVLf0oWUiXr3L6TPwCr6D5oCjhL5Bff98ud4E+30H9CLo88+F0tmAsXXPhoi2NrMm2++SVN7QnkKWmE/IauEe16soyVh18Z6Ujv2q1Z8uK6lFBxUhCUNyQxHS8QZRJFVBP4sURl14lD8Momw/mUnLX+ndcKhJKmEgJWl2F+yaWYf1purLzmKmUOSaOFOioqquPeJ5XiHHv3o1T/964UH8bb6Qh86B1gH8fI/d8eP/1C74dnvn3z8aPoOFvHxYrbWePjOT+6hxSxm0vRjqNm2nQ/WvK+AKluzKi0tpbi4WEU72Qjro8TP7GnLBVSRRI/v8SGA+kjtqme0pYDLsJUZDOFgpdMkDZOkBBeGdM2EmmmQ75bC+jAuOOMIhvQpxSFFLFe+LRfqKVcEUrwJYvEm0LrQzRAOMa1wOEnW1VOzfQuhaDdBKeD7NUaMmURp36F4igeDfxDbly1n3dIXMNJRJs8V38ZxGRMKTXUNFy1aRGNLmEgIzKibtLucpVuaeWO1QUx8AhVg28V1m5Lw3xE8C1bK/kw3cXgEwTQ006MkliWzlafSjrhiuovLR3e3+D3b9S2nZqia3onHlnLNJccyvDRCqrsTB2W89PYuSqpPv+mib/3q5wfxtvpCHzoHWAfx8i99/C9XbV56x51TJvZi8pwJyhV4Ty18/2f38Nr7Mc768gXs3lnDypXv2fpSTgemYeHxuhk6dCiJRKJH0f3DM4P7ACsrh9BjDKcnYGVJqNnXK+UFw54TtOkLMo6jYRkaSSNF0kiQNkUZyqsAK60lKPbCiw99ickjynEXDMnoGBdAvlAwCiCVIm0GMK1uNCIKsEiFlC9htLWOLRvXEwtH1IhPd0hoDl5mzZmGt2QQ9BoPDi//+N3PSBkhisodnHz6KXj9pUrXnVSQD95dzvotLYjxdElZBYOHVfPue2tZ/F4bS9bbM4mmigEFfBI2g3XfQHUP8FJkVzVerZoISpPVpyvnId104rTEyFXW2ZaONqXGZXkQWR2ljZW5BHkOOPfoPH74jbPwEqJfWSmrV6zjg51hpp72w3Nnn3TZgoN4W32hD50DrIN4+Xcsf2HyM3ddtWb86AJOuOh0gh1hAu0ufnjD3SxaF2PG0cepOtIbb7yBIXZTGcCSHVVR0V+BVXZUxy4s73/si7g+QsTax7fqIavQszMogKWoC5mi/r6fU4I7EmnZhqs6kiIl0B0pvnfNeC4+vozqUf0hUgDucugzGAyxXy62qeBW2HZetsRoNQLJTjA6SAWb2L1tM+3NncRjKULBJOJpMWSYl+pJsygeOAX6DOHth/7Glk2rVddvytQBVI0eR75Y8CRCvL3wNZpaErR0mJx14XmUlpex8IWnWbuljXueMehMSWHfo/wMFWApVdUMPysTeu4jzCrAUnRbpXFlinO17AJLw2GpXqENWML/VzUymQSQ49pS0nKCZQXw5WMKufKiY9Vk5fCRI/nb3Q8qj8Wf/HHh8OIRs2sO4m31hT50DrAO8uX/6Vml6ephHi666kJSSYu25hR/nv8sj7yxl0GjplBaVs6LLyz80FlISlJeXk5BQcE+1QaV7Sg9J5uVrrIe+duy1Rj2/Zw5Us8UMgtQWZCS5+x/S4fQLroLUVTmAZXelTq8Dycx1RG7/eY5nDijF/17OSHlAXcpSU85lrccj7c/mljZiDFpKmxHVmmZnRGL5BZItBEOtNC4p4mmxnaiUegOpdRs3ogxgxk8qpp+oyfTur6OhS+8iGEFKCrWGT5iIL2L5RxMdmytY8/eOB0Bk2t/8X2wIixf8jLvb23m+aVJ3l1n2xfG0y7SUndSZAShX2ikpcuXZfhnZyAVINukBekEqhdnxpT2A1a2GmarR+AUb0d7cUcO1Ln0+P6cenQV0WiciROm8PA/n6C2Oc0vH2/M7amDuKdyi3sQF1cO/YuLhnaU5YdKLrrsLLxeN8GAySPPvMtfn1iHt2Q4EyZMZsFTzyitqZ6FqDy/T4FWdp5wPx+rpyqpMM8/PBTdk4OVrVdlo6ieQKcUGcw0yYRlu+GINExGF8qGQyc6BiVOePTeUxlaGqJyaAmhxlYK+o3AdPfF9Fagufri8hTahZ+EAFa3iqxINUCiiVS8idaGXbS3tBONGIS6TVraDVrbYWRVAcOqBzJy1AScyQHce9cDOJ0JdGeEsj4evB6JmXQs00PdngjdIYNvfvsSHM44H6x7h5XrG9nZ1ocHHmtRtSyhdKZ13ZbUkUaB7iIlEaXES6rYl00Ps8qiAlZCa5Dvq7zScGWMY7Ow53C4FeVDRViZ3TJnYilXntyfadWlxJMOyssH8dyzr9Cd6r3px/dvyHUID+KeygHWQVxcOfTfbzzj4UjXxgvPO/doPF7bAPSlNzby+weW0xT0MnP2Mby26A3a29tVtJN9SNDUp0+5mqP7aPS0P9r69xTxwwJ9oqJg16t6RlzZOpZ8nlAY1NCzmm/JTP7I3hWr+DT0tmDJ0xdTmt9MqLOG9pYGxk8+HE/5OBJ6X/D1w+Upw6H/S/hKQDfRqaKrdHIP6WQje3atYm9NjaJICLa2NEE4CqGwMN9h1NhiqkZPpPewE3jkT3cTCjcp0MrPh7x8e2YxFJbKupeurjhnnDOVioG9+WDd+6ze1EZztC9/va+ZiLD1bZvUzGiyRFl2Did0jbSqpveoZ1lZBaxMl1UAVwG2dAN7PDS3onzY1Xhbu/6kOYP4zjmDGD3QSyTpQXcW8dIrb9N74JTHL/7Zs+cf5FvqC334HGAd5Mv/zB3X/M+u9YtuOHLOCMZUVeDy6Kzd1s73bnqOd9cnOemUL7F9xy62bt1ub5jMFRFtKekU2qz3//7oGTX1rFX9p39nIy4BMVWvMqTwLse2N+M+jqp0HR1p5YrTx4J3X7yYAQNMlr/xuKrZDBhaRUX14eCrIOkoQ3eVouvFdoSYCEKiGSu1G4wmdmxZQeOeGjyiHKprBDoFGt10tCdpboGxE2B09UQGH/ZlVi54mU0bVuJwxOwyuujU6BDoFr9FG/COPGIA/nwn7V1RVm1qpcscwH2P1tMdhm6hOciYjTgJpUX4xq6824CVqUFlvq7C5wyDX2pUqv6l5jT3D3Mr+Wj1jS0bvdNpJUx45jED+e75Q+lfYuB0D2DH3i62bG9hzIxTrj38/N/cdpBvqS/04XOAdZAv/5pX75r30mN/eaxqiJNzLj6RZKiR9rCHq3/8KK++E+aIY2aTMDSWLn3n385ECu5CcbDnBDOa5BkVTAVIWQeFTF3ro93BbGSW7QhmIys7HbSZ9Nk0x9aDUv43dmaqJZQjzuwBsOC+i3GkdtNYv4lAMELanc/MY04EXx9Szj5ozjKcehnoXjAiGcCqx5HuJB5qYO+uTbg0kz69SxSfaVdNAw17u1SKN7jSx6Choxk09niadjTwyktPo2kx0sLCl4Fr3TaSiASg0AdTJ5cQjYVJGYVs3hMhoA3gwSd20NQGcTFiVcoRtj+hoUrnGanjHildz4K8cMwElCSdVFFUplAltfgsYNkOO8LJSiNqORecOIIrz+iLy+qgauxxPPDwK+xtTfCVK68/onLO198+yLfUF/rwOcA6yJc/nU5rP754nDW0d5Qrv3MeZrSB9rDOr259k9ferad3vyqKeg9QkivZR1ZNQICmrKwsM2doEx5VgKDUQTNpXtaWqscM4X+qY6nxm8yffTpb2dxHWXbJ1pV0SiIKsWBNUPQv1Zf/+cYQTj9iAH0KU2xct5pA2MRwujhi7lx8JRWYrr5YjjJcrr7gLgQRAYx3YBrNOAiBITWtEA4zBuImHQmyYd1G2ltkGlBGdnQGDB7JwMqZ4PDzjwfvJxEPqtwtKc1HcdlxQ7QLvE6YOsGP06mza3eQ1rCfVrMvdz9SQ1cU5Tco40C24nq2aGVbnqkI60MpoU1tcKrv67ClCVXH0O4wCj6J6Iwy99JFSlmGoWF4uc6lZ07kohNK6G7fxejxJzH/gRfY025x65N7c/vpIO+n3AIf5AWWw3/vwqmhwUVd+VdddjxpZ4C2kMWSlWFuu3cRYbOYoaMn8fJLi9T4iNSUeuo25efnqzqWRFtqhEaRSe05ODvKsiVoPjoonS20i65Wz+L7h76u3XRUQYUzLcZcTgVVaZL4NUPZtL/13MkMKOgk1dZM495mGtqTtAZMZs4ezdDR43EVDkTz9AOtDDzFyowwFWhFd0UxpACfSuBKx9D0OETawQxiRbpZvmwFPq8TTTcp7t2fQSMOQ6+o5vHf/4lwpJt0OqaiJeGwiuBCtNPWiT/lhCreW7kFhwtao172RPpyz2O1ylFarO6VtWBmItq+uTNdPjXQbEdNdjpoi/CJ+81+wNpfWJeXZwHLIXQTK6nefvj4Ai47cwpTKsPo6SjlFTP4x1PLiLr6bb7+tiVjPofb6Qv9ETnA+hwu/+03fPVZ2pef/pULj8BfkiKacrJsZQe/vfUZVmyBw487ivXrNtIqrbPMQ8ZIBHRkDk7GdLJ8LCmQ7wOsjIlqz1GbbHSVBSxlyprR1+r5Ve05Q7sf6PF40WKq7C5KUPhcKcQR/vrvjeWEOfkMLTOJNzSxt7aJXQ0mCQt6l3qZefjRFFeMwtJ7ofsHg6Mg4z8vKJgkGQ/hdugkQ53oZhBdCwEBUp11Qllnx7aNig6huwsp6zeBkiHj2LpyIyuWvasALpyIibu8AiAz5qbI6+ZrXz+bR//2d5Km2Nr7WFXr56nX2hVgJeTFQj/oycHK8qj20RcEsKQgvx+wpH6lVilb5+oRYdm1rTSaw1RyOoeNge9eegwDewUoLvCRSvfnxbe2UjR09m8v/d5dP/kcbqcv9EfkAOtzuPxvPHnbtzYtvvf2KeOLOOz4qcSiCerrLMV4f3MtHHHCXFpaWnn//fWKOyR0A/th52wilSImC/bDlpzZH4XZUso9OVZZAPuQxPJ/+p7ZspUptvOSHNk1HIk8qobA4w/No7ttExMq+9G5t4Ydm3exow4FFgV5cMJJp1I8tAor7cdROADSPmIpB76iXiK6rJRMU9G4ql8h7HezC4K1QBdvv/YcWEEs01IS0QmjkKOOOROnXsq9d91PyogSN5N48qA7CHl6Eccefhjjpg3imYfvIRRJ0xbTWbgG3llvYjpcqCarUwZ1epBGrQzxM9NYyCqlCmXDDjCF6SXFetslOhtxKlNoVddyYQrHDOjtg2Mnwk++fTLOVCtDBw3l3VV7WLW5m+MuuG7e9OO+9sTncDt9oT8iB1ifw+Vv2f525X2/+mpNWXGQr3/7ywRDQYyoj5/cdD+vr41SXDFOAdCaNetVdCBSKBIYZXXdbXOF/eTQrOSM3SG0AatnwV3t154Ggv/tO2bKPC5R5kyllSqD7HlJvV5/6TTi3VuYOXkWDjPO+0tfobszSDSB6u4V5+vMPvJY+g6vwnD40Jwl6Hm9MTQfzrwiYvEUTt2Ny+0hHQmiiVxLuBnNbAOrAxD6QzcbVi+nvTWIiZPhw6Yw5KizeOJ3txMIdqtCdzQWw+vxEeo0ueDcsxg0Mp/lbz3Ppo2txBweHnkjwdoaiedEBEdmbOxaUxaf5G/FVM8qtWZqflnAkhlEO4PMpIOZHZF9uaa7sKyUahKK5NeZR/m55KzDiIe6GDNmCn976BW21Bv88M6X8/v2nSBDh7nHQVyBHGAdxMXteejrzx+U7lcS5StXXqCE8+KBGA89+TaPvNHInnYHVaPH8M47K9Vb9gGWJq7MtoRcNrqyE7cej//Acpdn/xP7/T9+VYmy0hJhSaxhiYQeP/jWKL50bCGD+xVS2quatoYWdtcsZ+qkajo7gqxbu5ndO7upqq7ksGOOQ+vVByMihbACdG8xuPNJpuxIUPwNfSLPKZ9jhiHWqpjwnU2b6GyrZXh1NS3btrF9x1ZM08W06V+iI5Bg0aKlxONx1SGUVmGkO8VRR81g8vQKtm37gNode9nZqPH8ihTLN0NC5pRFV0KUQtVn9ZRztm3nbSCzw0qBNztelQhMnsqQSzOLlKV4CNiJg7XU82ZNcPPVU/syprKAtOGncvhkHnnsJXa36fzxqdrcXvoc9lJukT+HRZaPuPunRz9hRrefe/b5Z5Dvd5MKdLBqXRO/vPc9Vmzq5oQTjmX5uysJBMI93JX/88BzTwmV/13e79+/3L8BmZAhJScz08qea3AZ/POBC+nla2ewzDM6B7B3xy4GDM7H4Uyq1v47ry5kx7ZW5R8xdtxYxk2ZjsdfDHoeaHlqEFlzee20NWX7FZqRmNKFR2YNtSBGsoWN61bS3tisgDLfbxu2dkcdnHjxVcy/+XY8bi9mIk5IeFgOjWEj+lI5Ko94rJtk2MnaLUGW1eg8+0ZIdflSqsAuuZw4J8rYknx/SXRt95sPA5a9NjYnPq0AK4Nz6vf7SfFSxTfxpOGEmT6uuXgQvX1xinqNI5H08/bba6Fw2LNX3fzymZ/TrfSF/pgcYH1Ol3/d89d/442X77tj2pwpTJ8yFnesm+17wnzrt6/xxupWpk2bSHNTK3v22Nb1trr4/jHdbIRlR1v7GfHSsv9EEdVHdOKzciupZFLxrv568wwmjixi4ugpaAWlypDPioZEUAGKvFi124mEWnn9rYVqvKbAB+PGj2PsxCloRaVgeW0ylO4CI4mRjOH0+zK/U/bLYARZuvhpfD4d3dAZNrg/hX6LcDTEuk07CUbEBMJLc1MQYTgI6VQkb/KK7JlrVfPqgLBRzsZWH/Mf3qMASyIse8DINmS1pwjtv5UIg/1DRrEhk2KrxTPRVSRrq9pkHyrhdnuwUgl6ueH0Y8q48pwSCj1JBgw9lsWLN7G7tonjzrrqirEn/ThnOvE57KUcYH0OiywfEd32RMUff/ud+sICnW9f+zUItVLbGOXPj2zghTe34fYW4M8v5v31W3HqIjMjLfespkAGlsRSS3SZlGidTYnMRlgfOwX8yPeV8RWJQeRGKHTDogVnUj2oBJ93NLiLwBlTPCpVxHHKhHFYaVQlUkL8DJFKuIiFYwwa3B93nkCeCP85M4BlEu1spaW1STUOkimTol69Wbb8HQYO7a9SRafpYPO6Ncw9Zjqa2Go5dVauWkMaF40NYWWg0yH2hT6FM8jYonyERDzBqJ+AcyC/vWOroj+IFqjiU4kgX4ZMmx3OUSlhJv2108KM+oXK/awPAdZ+ZQc7QpP0cXJVEacd3Y+TZljkOZNUjjyV+fe9RGuXxW/+8lhfrc/Mls/pVvpCf0wOsD7Hy3/dRZWBAf5o0be/fQkpM0hzwOCNlR3cfs8L7K41qJ48juXvb1BtfN1yqfFjJVsscYPsL7laRnazZQWf/rMj9Mf5WgJWwkPyaCKPDD/69hQuPX0Ugwf2BWMw+AogWUsq1oLmkxqXCPfZg85mNI5eWEoqouFyCh1d9K/asWJd1GzdzOD+g3F7/DTvraetrQnNYxJNRVWtqXLEWCpGTLFBLRYmXFeDlk7S1t6gzB/yC3zsqtlBd0eUzlb1EjV76CtwkEhbuMQlTGatLVGZH8DDz+1hVwt0S4Fd1kncswXBhFumfpGyBfls/LEfRsZhW2pelnw3+dnEyBJMVSXeVnVwYzFrks5l8yYxsl8XPs1i8MBjePCJlbRZA3b/6u5XKj/Oeude8+lXIAdYn34NP/YRHv7j5X9NNq745tRx/Rg6bhgOfzFvLtnJLbcvYN1mGDttHOu3bSMcSeI0nGoTGaTUiIkS1JSrlcr+47MBLK/DS9qK4nLC/X89jZOmD8RfVACeoSA8qNAmusN1GCQpLSnDClo4i/opeeREQsNT3NeOusxOSHdDsosNK5ehpzSq5xyltLI2LHmTYDyAw+umT//BVE4+TI31NG3cTLSzjr27dlJb28aFF55FKhlhw7pVpFIhZk2fRWtTkIa6diLRFLX1LYRjdnYpsu+G7iKcKOephQ1sawTLrRHLdkc1T0aKVPSvpKAuOln7i1MOeV7YWJZtReZUNl8ZwFLFLCU7qqi08sxpc3WuuGgWRa4u+pWU0tKk89bqdnqNPfu2r3zzF9d+7Jsg98JPtQI5wPpUy/fJ3vz+K3eevXjB7xeMHlrISZecQ7Ctk5217fzpzqd5a1WYon7DiSWi1NU1qs0mM3EpknbBeF868/GkgD/OmdnpoAOf01Bp5mvPXs7kISW4pKvnLIBEF6S2U1OzBm+Bn97F5XTWd+AvKKVoYKU9OyiDduLgbMVo2rWNPI+TjWs/YFz1GAr79SXcUk8ylea9VRtUUX7SlDn0mToDCZ22b1qNEW8hHIywamUns2fNoLCwkDcXv6a+c2GBXfIaNmQQo0YPo7GlmZRhsW79NnbViNwyGHnV3HbvZgViYhNhp4R21OlwuJRHrUOIn7pQYu3ITCgjTt2HkbIdnm3uWSZ5zEZgMhME5LkthldYTBmR5vILppLnSjNxkteyFgAAIABJREFU3FTm3/EoEQZw1tW3zhk+6fhlH2e9c6/59CuQA6xPv4af6Ag3nDcwPaDc4oofXUu0rZm2ji4ee34Fjy5qpLYlxdChg1i3doudoNiS4vYjy95WodZHhec+0Sl86MUu3YlmGUwbDzffcB6Hjx0C+S4IdGIkAzjMNnbv3sDgyqG0trYSaAqg6R569x1Aed8+NjiYJoH2FuWS09EeIBAIMnXaNMKRIIaRYsCgYfzzoVeUicS8eedTMH48tO1l69q32bljE3W7ob1NrLO8jBk7iXdXLlff3e2BPKnhJ8UVW1RYS5gwYQIOh5PtW3bR3GGyekeQu/7eieg7aE43IcNQ3K9kKqa6rVJ2U25mdoZnO1gb4NY9JBXT1Ob324J+GUkyJepup4jC15o1zsnXTh/A9LFlRGMaQwaP4YmnXmFXs8Yfn8oJ9h343ffJ35kDrE++Zp/qHfN/OPeFZGDrKV/5yjz8eRCLdrH0g73c8uBalq1rZ9L4ajat36xMSNW4iC0+roZx7SjAZmUrcYUeQHagJyV7U7bmnInw11suo9zbQe8S2bAJtm/ZyoBefdQYi6/Aw5rVK0nFUrg9PmWRVVTsx2GmFKNdBpXrG9pJyEnrXroCcTSnzD9qnH/Nd9i27D1eeG4Jp518FCOnTYVknD2b1/H+qmV0d1sYaYhEUG45KUP8DNUXVhFSvrAl0jB+bCVzzz5ZKULUbV5LPB4lloTl61v45a1dylzV4fPRHUuoQrmU1jyaTtww0RxuEpbYz9tRlkN4WirlFhEau+lgL6f8DyFjG6vF1E9nze3FVaf1o9RvEIjmU9qviiXvfICreMRTl//iuXMOdO1z7/vkK5ADrE++Zp/qHR+8+Mdz33rp/iemThrKnCMmk441s2lPN9ffvpS317ZSXlJBMBimua3LBqUMi0FXhWFbmyn1WQFWpqbjc8Dk4XDX784k2LSGqpFl7Ni1mXQqzeSRU3H5itm5dR21tXUqQnG7pXtp4vPoSkJZBradnjwiSUsBTVN7Co8vn0DIYOSosRxz/oXQ1sCCJx/FSkY578sXgbeQcM0udm7dRO2eGsLRmAJoYdJrDidxsTnUXYqBHgmmVCBX1rsXs2eNI89rUtZbx+UyCIp5a7tFbVdfvv6DZQjVXJqURoY4muVTWQ5dRW0KqWzUV11YpZXV44oKiCnQUkTTBJX9YNZonZ9eNgWnEWDAsCNZ9M5mtuzqZO7pl146/eQf/u1T3RC5N3+iFcgB1idars/mxTdeOiZdVhDnGz+8HDp309SZYP6C9by4eCd19QnK+g5k6w4p0mRLLA6cmY7VZwpYGcFAMVU4cTZcft4kCrU4TXt3kEobFOa7mTC8Wpmtrl69Xs0QqikXDdxOjfw8Hy63RiQeE8ISgXAcQ3MRiEBTc4pLvnoVg6bOgvbmf2lWBEkk23nowbuZMmkCk2cfD14/4a0bqN21hbauRrpDAay0i3BEtLq8BCNRxXR3aE6SERfR7hgV/fPxuOOUlToZPLA3fcqLMHHTlcxj426TK7+7cp+NvWR1oh2fVwAhUayRh8NOqRUgCaFL5Gj2tQ+lK2hz4JU2vGZwxAQPXz51DNOGpPA6kowafzy3SVe3w8ltT+7M7Z/PZkt87KPkFvxjL9Vn98K7rj/71XDHquMvvfA4imW4N26yZF0rd/5jCUtWRBgxdiybdmxU6ZA9jywdw+xcriho9mBuZ2pbB3J2cvEl+RFH51tvHMnE4V48pskHqzapWnp5mZdCn4d4JEZ30CCesFRRW57zOzVcbieGlcLllZqRSTRpEAij/sy74GIqJ8ywQx2HgRFuRNMiLH/3TVa9t4PDZ01m6uTp0KsADOF6dZFobyYciilFUk3zKWPTV994hXjMJBnzEo/EldJC/34uzGRKFeX7lPkYMLg/vuIS9rYYJMxhPP7MCtZuraexE/oOLsCR14s339qr6FcyMWnzRqRAuF/ZIduGlbTbZsanEPvFU2bCNy48nDJPALcOgyuncf+jb+GpOOyxq2/45wUHsu659xz4CuQA68DX7oDf+eYTv7ti/bIH7p42oQ+HzZqOmUiys6Gdn938MCs2gbtXJa3hNsKdIoAnbCyb924TRe0BZXugV04hY2l1AGdjC9ihjCaeuOdYqgam2bN9O7t31hON2+5dwnCQordyovd4CEh9SBezBlvfXBRBnS6XMrEQG0HxDuzTr5x5370OOtshHVXCeGYsrLTj3166lA0b6hCZ9EGDfFSU92f4sGH07lMKfo/qOEYaGti+bRd76+vQXS6iMYNAhzj9oCzCqkZ5CXWJi42BPx8lpVzcO4+BgyvxufvgdBQQ6I4St/w0hJ3M/+ebvLKig2DS5rA5HDpO08StOYiJEoMI9Ik0TUZvVXcI3yvJ8EFw3Di49NyZeDQYMWwkSxavYmNtnKPO//kF0+Ze+tgBLHvuLZ9iBXKA9SkW79O89UcX9U8P7gNXf+9arI5mWlrr+OfTy3jqrTAf7ApT1LeU9hbR/RXAktqV7f6SfexzOs5IwhzIucgWLXBA1QC4/aZjmTKhkDVvLybQEWZvnYFp2VIyYhpR2supIihhmwtgOS07LbScLqx02nbdSUNXJ3z98rMo6e1Hd8tAtCiNpkhFTQLBOG8vXkFtXRTx1hB+p9sF+T4/aeEamAkVxUhko2a6NZtzFZMWIB4CgQTidTF50gC2rGtS4FVYWoKRlvnEMEV+Nw4xotVlzTy0hzUaggX8/sE6uiRCzS8gHo0oomieamAYJJTmu8oVcTs9pI2kWmv57NmTfXzt5DImDC8mEnMzevRkFjzyLA3dPn752J7c3jmQm+5Tvie36J9yAQ/07bf8YM5CZ6L+Sxeeeya9/CKiF2HVmt1c94e3WLktRemgPtTXtuA0PGprpdSUXE9We4apneERHch5iDKDGNP89JvT+NIsP2Oml7PqlSdUKtrW5KOpNUVX1MCTn4cjLdGdAJaFKXI2cRC6lnQFXV43qbgMRkO+F86bdxLFfdyEWndgmBFcLg9edxlbttSxatUexbHy+10kkhbRqIXT6SbPBX4veNxJdLHeUgVyTaVxkWiaYMip7MGqx0OvoiJqtwfZsC3Nk4vhiGN6M3p4MQW+FCV+N6KyGotpNHQkeeDxJqIaRIV/JcsnXUKnRjohkO/E0tOYYuOVkbfPzhH43DBnkoNrzhtIZX8/nqJqWtssNqzehpk3aMEVtyw890DWPPeeT7cCOcD6dOt3wO9e8/qt8159+t7HBvbJ5+LLzibdvJHuuIPv/uYF3ljTgbOgjPr6LtIJ+xKpbtY+TSf5jQCWDWU9h6E/yQkJg1sYDE/97Tz85laqh+exbu0KNFNj725oaoeInk9LR4iB/YpIJsMkDVNFQH63m0goiTffRTicUs03rxsqh5YxY9oI+lY42VuzFk0ziUQSeJy96Q6nWbe2VRXSJ02eTmNzK4HuiOJrefQ0hT4dtzOu0l+J7uSFYXGW0HWaWmyr+OpxHtwujc5mB/Vtfm5+oE0V2dVEjg59y6G11S6dibmqjAJJ3U1mFC3lL2jX3YXgbncQRT5G6BM2tUFW1OeEIf3g5CP7cN7cErzOFAMq5/Lok+8QDGh8+es3HNXvsPOWfJK1zr32s1mBHGB9Nut4QEe59vzq9KAyi2uvOpd0rJHucIqXlu3hoWfeY8maGH0H9adhj3TYxIaqh8BcD8UBlb58KPL6+KciAgwnzoLrrpyN16qhvFCjo7mDaFhjwwcij+ClAy8xsQULhynwiQSMqp7h1b2YqaTCzWTSwiN1Ic3i8Nnj6GzfQfWYMoLdTYq1WVBQRCAQp70jxtatFsNH9eaES77Fe88/T3eknbr6vQpwCvNsZQYRKzRMF5bDQcyK0xUUVRsniaTBxKluzGSSpt0QTeVTFy3lr/+oVaODAkxCvpeoT2rq0ujze4sJxm33HKdPBCRs8wtJaeWXsnqaw9Ydc7k0aQzistJMr4arL5lE9RALMx5n4JCjeezpleyoS/DnZzbn9s3Hv80+01fmFv4zXc5PdrCH/vCtPzRuf/X7Jx47hvFjhpKIJ6hri/Pjmx5gyQdpLG8+nV32Btv32Dc6Is4wGc+8AwUsccX5diXTRut4zFZ8jiRdrTGiQeUdQTqvgr0xD3ua28nTI7iEQKBJNKJhxNL4fB7CyQQ+nzAARPsqzaknzWbtumUMHOBVZqguXVO0hHA0SX1DQtWjhgwbwJwjTlLF7sWLnmbXrjYkBSspduHURYfCSTCSJhK3iFsm4ZhFIqFTUVHIqNEpkvEwzTuhK+KmWx/IH++vIQqEZKBZl4gskzpbOprhw+vMJ0UcQwQEBZGEAa/swOz41KWUJOyUVoCzX4FoX8GFp43D740xZNAwmhp13lqxl0ETTrn57G/89qef7ErnXv1ZrUAOsD6rlTyA40T2vt//9pvObyjyBbj6J9dhtbXQ2R3gsedXcs9jm9lcJ1rlmQNny1cZVRS7LpwFrAP4cKEzaPDnn1UzuDhEvLMdRzJGNAReD/TvW0JzwMPyXQ4eerKBb11eTnd7K34XFHg9pMUCXrNw+pzE40mMhBThYfiQQVRVDWb1qrcZPqKUWLwLt8eJ7nCzanWIPD+MrhqoDGLHT57AxtXvsmGt3TX0ee1YUXc7iCXcxFIeQnE3sbiT7VubuPDCOTi97+PRYzRuTRNO9KKNMv5w33ZChoCPG8vjxDRs+oMU7nW8mKZEWPJz2iajSpFO/oiNmMo8dUzxeFSAZXD0tHIunJvHhFF+HE4vY6qm8MiDz1PTpPE/d75eoJWP+cj/RQ5s/XPv+uQrkAOsT75mn+k7fn3V+NVOo2HKd791DaYUqPUINfVRrvnZUyxdGyZTwtqf9WXZ7z2V5j5yRvZFzYBZzyu83zdVpUgCWPfdPBF3dBepQAIjkqCoEAYMKiQS06lt83DbI83Ut8D0MTB7qg+Xlsatp0nFEni9DmJJC6cbjJSogjoJhQyOOnI8DU07KC524veZaoQmEYe6BpAyUkWFm7x8Dz6viwKPkw3rWtXMn88v6aeQTx0EwjqBiJdQvDfPPFdLJAXnnFjMOWeXoCUbad+doqnNTZPZh/n/rCUi84ION3HLTp11r46ZSGUsveyZQgGruMwAqSFocb22ZZxF/16e08WEImVy8pxeXHl6bwb304mlihk4ZAKPPfIi7t7Vi6787esnfKY3QO5gn2gFcoD1iZbrs3/xey/9+rwlrz78eGVFGWedeSxmfC8xM48/3P0uz762hR21ERISTSljCgsZVjZMA02KyEJM+ihYqVRH0sXM2IkrY0MvJZukjPdIyiWVLweFHovbf16NL7YbPWiRTiQYMsSBq6CArY0G63br3PGoTRGfOwmmjOuF12PgSMexYikKRKzBsrtvScPmI4h3osz3Hfel0bQ11+B1GridLnbsTKrZyQH9y9m6tVUV1SdN7KvOct3aNvx+qUFppNwOOsMmScvH2q0xFi61ZyrlRpWO5j/vnI7X2E1HY4DWTg9b23rz0LN7CMt5KCSSGMmWSVYPaTNaonthP0SsR6lfZJyuZd4xbYi4sqHaGMK9OuvYoXxpkkapH4ZWzeXBx9+i0yxk1pcu+PIRp3z/n5/9XZA74sddgRxgfdyVOoiv+9Y5g9LSOv/W1eeB0YqRdvPau4385d6XWbYmojaiFJRVR0tt3jSWTANnB+Xk3DL/ll/rmQFegSVTfPpsyhGiAaWZKVy6S6WaupHgzhtHUWjWYXZGGVBaSF5+gtawwZ5oX277RwO7muwvfsHccgaWmzgdQXxuMauwp7MloBGZZUPmYMTWyzIU+72yMk9Zzp93/tmseHMx7U0dFBeXYBlp1f0Ukumw4X68Hje1u7sIBsGV7ybu8tHSbbBxZ4Rlq6E9Klp8HlwON24rxPcv6c2Jh1fQuHMnTZ0aK3a4ee6tLrU+au4apy0xI0J8WQkGUwDLlo9Rc5j7ACtLnU3hdhgU6HDsbA/nnzSO6j4JtESCYWOO445/vMa2Tk/T/Cc29D+It0Hu0B9jBXKA9TEW6WC/5MX7fvD7bWuf+8HMqcM47PCZyk4r7czjhz//Cys3hNlaa6K73MRTstkkcrAjK0WuzBLdM1dSS9saVzY3Po25z/HYb1PXpdIjbjZpKNBS3PLj4YzuEyXPTJLnFMswg62NCZ5bHuHFZaIxZXfTLjqlL/3yo/TypjGiIVUkF4WGlDhRON2kkxa6w0UoGsXpMPG54KQvTUNsssaMq+KtZxdQXOgn0B1j994uRSUYN65I1b+2b41R5PcSiLsIpPOo69R48oVmAob9+aYmsU9KCen1c8Gjd59A7cbldEUcvLw6ypurkxlAF4zyqUK6bU2f8ShUztb2VTSywK4AzP7jdGlYRoLKvmLj5eOCU6egxbupHj2Wt5ftYHujxYgZ87459/wfzT/Y90Lu+P/7CuQA6xC4Q9KrV7t+fc+FSY8jwFVXXInbLdFTgjfe2chv57/BynXCvrZdYRxSVE4JV8me3c1wHjNjOnaqYwvzqXzINgIVoBJHG0khtQRaOqXSH/+/zEH/8otRVJYFVfQSC0awKGbjHvjlvV1IMihRi3QGZ42HY2dUYHQ0KLMKkWhRLHSRg7F0PJpHNefMlPgIOvA4TSZOrGZ3bS3nn3s6VqSL5sZa6usaqW/uVOz5w+b0or6hi8Y9UFJYQFfYQ4tRwLOLd7NVDFsRCWSNtFJYkAlDKHfC76+fSKRpEyktn+dWBli6VrkKYipFizxJ+jAFrDRbTkYV0zNNCwX1Us/KpIQ2+yqlSLDHzsznohNKmTiyF4HOGOMmzOGJBW9Q0+jgN4/W5PbKIbBXchfhELgIcgp33XjGEyTrz50ybhRTZ1RDspWWjjjfuuEfbNljsL0miSmmntLlMuM4HRZpFUDYfs37fPcUR0tAS9mKqm2eNWXHK6SpbrS0RbEOhWl4+I4Z5DtqSKU6MAwfe+o8PPtmFwvfh1hms7tEnSENZx0Pl581lmSgWRlDdETTtFhx1Z17f0kXJXlw9KxyEskIEUunoTnIBefOoWb7Bs674EJ2rF1Dw+6tbN4apHqiYKiDthaLlibo7S+gI+xlZ8DD356pVzIxAqvCSjfMpJJ/F0OK4jTc87spTBzUi4WvLWPRZpOFK5OkpOOXFlqY2MGiUmY1qp0FrEyEJYat8rDnM0XIz63Y+BX94aip+Vx26iB8WpABlZPZuSfKhk3tFPaf8ueLvnf/9w6RW+ULfRo5wDpELn/b1kX9b7vl2oYSf5LvXn8VsfrN+ErKee6Vzdwy/3k27pBajvCFbHkGp9PoAVhiFJohlmZSOLUpVZlLrNhddt1GJpbNuGKE+5JwxTn9+MYF4+hufQ9ND6sI5721Tm59qJsOmeOTzp2m47RMCn3w9/mnoncsJ09L0tCgEUh4aTHSvPJaK/U1cPNPJ+PXO2lpbSVo9uYv99VxynFwxJxKzjr7RBkHZNULj7NrVzsDhksjwceOHTEiISjrVUR70MPy7TGeWxJSgCWNAcXwzJA8RQg1LwWLHjuFCdVDuOtP97K+qxf/eKGZuHw1CSQzbjimJqNEtnSMzWC30z/bh9CuA2Zk+nBjMGOym/NPG8OUERYOK8KoMUfw4MOL2dWo8/vbXyzUykaHDpFb5Qt9GjnAOoQu/903feUZQhvOOOqw4Ywc3pdIIomlF/H17/2O97an2d0gJ2tHCC7dUNyl/2a1rtIgFXE4VE3HdIm2ij08LRFTmQYL7j2DWRP7sH3Nq0QSTdS2aKzaUsI9CxrpyMzy6YaGF4vjD4df/+hLBHa8SyIcpK4dAik/9V35PPJoCzNHwY0/OZX6urXsbWino7uM+x7dq8pE1/90Kpd+ZRY7P3gdt2UQj4Tp6AyQMDU2bYtSVKQTi5ho3r4sXhfmuaVhLA/Esu3BDMPT74TLzirknGOqcIW6WbepjjbHUP744EbiArCKS5VW6aoS6xNgUjU9iads2Ss7JRQgk7jTUqlxZT8Xc6fncc4pE0gbLVQOG0x7W4Jla1rQiqcv+ObPH8rNDR4i+yQHWIfIhZDT2LX2lemP/PU7K4s8XVzzq+ux6neRtExeX76D39z9Nu9tjNrjJJlgyq5TiW+yPDLtetmtmUq81G2yGoDKHUwmjKOSwMFXTnZxxbyZTJ1exd4171DfsIemgJ8FS5I883aAxD4XLA3/vyxdf/n9/kwaBoVGlFgswd6wg4YuN++t6uK9lfD4XceTCO0hbnTR1JaksaWUux/eqbTWLzpvML/9xfGsXvoYjbtCjBxaTmtTJ+2dBnEp3Evty4BIupC1u928tKSdkDQT3HbUZNubQYETrrmwjGOnVNC8YxvRhIdufQC/uXOjisiSCn5S6E77fVLj00xxzbFVrkRb1MzaeGXqWiIbM2ecl6+cVkn18EKlRjFpyixuv+1BuuK9+cXvns8RRQ+hPZIDrEPoYsip/PyyKSsGl6dnTBw3iMmTR5BKBmiPuvjBzc+yYm0Le+tNpT+33/dLZGeyDsfCVZDn7NahBBKSBSqZFpsPga558RlxfntdJQN6tdE730E8HMPv7su67SnmP9vEjgAqxZKH1LsLLFhwx1QKtTpEKKsjZLCz2897m1pZ+hp8++vlHD61D6lEM8FwiJ11cVKO8fzlnvV0p2DqRBf3/eUUdm5cyOo34owcDBV9+1Ff346Bm3AihcuXT2fUz9Ov1bF+FwroUpob05EUYXY1xZxnwugyuO9Pc9m5YQ3dYZOOWDG3PriXANJRzEdziKqFbemllBdMiTHtEE0J9EirUdHbQU/BxGEwc3QBZ88dTFmxk959K6lvjvHBunrwjXjqyl8/ndNsP4T2SA6wDqGLIadSt/rZcXf++br1A8rg6l9eS2rvJmKmi0Ur6vnT/KfZuEW0pyQqcan6lEVsv9uL0iLP2FzJaEraHiYWmWBRLhAxKd1wkE+M+28ejxlZr6SDq0aU07TXyaa9Orc+UUdIB3+BCN2ZxDrh59+ZwfGTnBBuIBgweG9jA4s3pPlgE/z6upFMGl1ONLiNtrY2gmJ6arhpDA7hvoe3ExMRQD/8+HuVVA11o4USaLE0RsJBVyBCOGbiyS+mOxZj6aoG3l0D3XK+eNRAs+VKkzaTCmT6+GDcv5hQN143jkBrPfVNATpjhdz1UDftFkSFWqragQJ3tlWOMy1leKlSRRRIJbL6MVLA98CRk+D8k8YyZrCXeLibaTOO564HX6Sh3c9Ntz2dq10dYvsjB1iH2AWR07nzxguetoJbzpw5ZQiTpo4nYaboiiW5/sY7WPFBnN31ku64lQuy5EqZ0k2PqEuOklYGorI/nW4nTncB0XCUPHT8RFkw/3AS4TV4PG7iSR81tR7ue6yW2ig480oId3SS54DTTy3kq/OOYfaMUTRs281Tz7zP7ffuJOGG2TPhh5fNJt6xDa/bSUNTM90R2Nul8+eHTDWQrNQQgCkTdaZNHMzg4gKSwYDSwkoaaXx5hSTSabbu3sXitxNEFFgJPcGDIcx33cIyJdmzKJC1uamSIWUhgt0dhCIWbeECXl8eYuFyCAvhQplH2JI74ppDyoVL8enjKvq0SaV2dFU9CE6e7eaME6pwpE3GVo1l4/pdrN8SxSqa9dgVN96bk0A+xPZHDrAOsQsipxPY/nblH266vGZwfzeX/+haOms24nInWLeliVtue4PFy4OqgKwiEHtmN/OfrEaW8jS2ufG6iakq0C586LiJUy40ij9MoCi/S80C7mlK8+zCBt5eC97SYtraA5w2p5STjx7NWWfPIW9IOThSPH3nAv72yEaWrRPddfj9TUczsqgOj7DzDTcNbd00d6boShZxx6PdiviZBSxBLXHY8WTk1LOz3Fn/ByGhCqnT6XNhpOSP7cgszoBykwpZoVgzefmRo4h1vUfaNHB6S1m2tpG2aAW3PthAXCJMKVzJWI5loAuzVtWwbPCW4wvPVXoPpV44ZloZV8wbQnlJjEjCweRJh/H3+5+kvs3Ljb9bkacNHKi0TnOPQ2cFcoB16FyLD53Jgzd/+Z+dTVsvmjVjDDOnDUejibaOOLfc/gbvrGll3fao2oA2pXI/YAlp1A4ipLJlKoVQ2yTGiQ9DzeMdUQXXf3cqsXgz9a0Wi5Y18eziNMW9etPS1UHfQnjg98fhiNWpDT+sqootLTW8uHgb9z0cUSx1pwMevvsiti97mLGVpXR0xumOpQk78li5oYOX3rSUE3PK5cUyRLrFNivNuu7Iie/r5sm4X6a4rr5LpqVnE2NdeDQvInHqJ8XCR48j3vU+aTNNOO6iptlgW4POfY+3qujJofTZs044UrNzK60r5fwshXgHeNMweYiHs48fyfSxUFBgMrRqOitW76C+vps+gw7/w0lX3XndIXprfKFPKwdYh/DlF4G//sUW3/vOPKJd2/Hn92J9jcGNv3+Y97dGlCuMqk1lH2lJfux5QzVHKK21jBxNoceHHovhT8NL/ziVcNtqxQhft9vkd3e04e/dm8a2Di44dTgXnjECut/DjHTQtAcCSYgU+Fn8foQ3l9saUqLKefoxhcwYWUxlvxLqmjoIG07W1rTw0utRRStIiXW8Q6I+AU0Tp/ILVGSp7HSRfeaajmZpOF06KcsumKuHomaI5kza1mk3I5x3ss6lFx3Ns0+8zqDBFYSsPJ58aYdixsczY5MiryxxmXCulNygWgO7tSqifhVFcPrMEs46roqyIgmiTAaNnsrDT7/Jjj1xbn2qKbcvDtF9kbswh+iFkdN68s4f/qJ5x6s3jh7iY+4ZJ0Ogi7ZQnBeXbOb+BRt494OO/SagmVET27JCoquUPTfnBHe+hhlIUyxyyPeeQDq0lnxXhLYQvLnJ5B9PxVRcNmlMGTd9dxLxrnfwu2Iko2nCAScJKmiI9+W6m1ci7EmhR8koi9SByvNhRKULl68XS1a2que8+TrdUoxSnToKAIlLAAAdt0lEQVQH6bSGS3eQEg2aTASoCbFTlCWUd7y0D6SJAAm3nW7ajU/Rrcn6mFnouoWIT0yf4Kcoz4OVsmjuDLKlRloPtoWX12kp9QWHw0fSsjuDapBQca8g3wPTRji59MQKpo4oIW3oVFdP5s3lq9m4J0zV4Zdcffy8n911CN8WX+hTywHWIX75f3DBwPpRA70Vp809lvK+xSSMIFv3dvGr219j7fYQu+sTGTKkPZKz387ejihc+Q40w8KZgEfvmocn/j7FzlZ0K0JHvIAX1hg8+1oI818Ur198/yTG9tuC29qtBqslImpqgECkP08sauStDfa4jqXGWZKK4yUsAYmmHG6UrExacaGkI5my078UuBwSOdkD226HF0PqS470h37nttwkSWC6ErZZhBCiJPdU848ZFqxlqRKViIpmZcHUR+kQNd3269M2+Iq6Q8qyMJWqhWmzQCwYM1RjdlUB3zh7FP50CH/+UPKLBrPgpTdojRbs/PE97484xG+JL/Tp5QDrEL/8y1/781mvP/vAU4Vagm/fdB3J3WsUFWDl6mZuu/9V3lmfVN04ASdFTs/WcDQXutujjFFdqRhf+3Ihpx07DEe3qIaaJBMB2hMFLNroYMGLLXiT8JNrj2ZIWTOFnkbS6W7MtIOmFj81dX7+8rdmFV1ZupewsDwzBEzBggxVNZPK2Tmock5WpHLNDm4UCV2K3/slVLMW8fawtn0UFRGpnDb7uky41SNNtEdt9j9U+UvVqpQgu/25ApSaS+mGSYdQjCeEKX/0ZA8XnzaNoUUxPC6LqklHcue9T9EVKeBr37xpVt8pZ684xG+JL/Tp5QDr/weX//uXz1pZWZaefuT0kYwZXaHqQTXbG3nh9Q288l6Axav2KDdm6bSpfS7ymoYTr8tLmVcj0R3k8fum40xsZdOaoMqQqqqLaYwW8MSyIGs3d+OIwrhhHk6aO5zWhk0cNmeQMiNt7cjnrXdbeXlpVKlFxJSIsAUuW81zf9X/wwspSp4KuJRflwDKf77Vss8f6GVwOJx2wV59SKZml2kU+lx5eJweotEudZ6TxsCZcwcxe0IFZT4Xfcr7s76mmfXbO/AUjXnk8hseu+hAzyP3vs9nBXKA9fms86f+lGvmlaZHDszj8osuw2kZmOkguxpD/OhXC9hYI8Biorl1IhkVUmfag9NKKBv6G66ZzLGT06Qj24jEogpn0uYAdnYUMP+lGtqieRQ58/ASpVdehLPOOIyE0UIkmmTbrjCrPmhlh3C/HEVELVFAkLDKNm3Y9+dTf8NPfgCJzFxquNv2DrJDOTsV9hbn43W5SQdNUvFuhvWHWdP8nHtaJX0KNLobYxx22EnM/+dz1DSn+PMt//RpQ4+2uRS5xyG7AjnAOmQvzYdP7NH5l/20cfeqXw8qLeOcS86Frh00tQdZsz3C7fe8zIr3um3VTaEiSfknbksKX3FxNSfN6Y83spk8ZxuWI0VrF7S05fPisjBrA17iWjlWDPL0NG5HiIJ8E39hml17wjjdGka6mNr6GClTt0UDnaaSuMkqISjtg0wk9Xkupw1Yol0vA97SfXTgTGu4vS68vfLRrDTRpk7yHSlOONzDvLPHU947gm4lmDL+BObPfwyKhjFm6onfOOq8/7nz8zz33Gcd2ArkAOvA1u3/5F3fvmhizajBeuXMSYOYPG4oqVSSvV0xHnl6GW8tDfDu+82qS5cZH1Q29Iseu4BI/bvkayHyPXFSZpSWAOxt68fjrzWxLeLBcPYhz1mMkUji1i3cHpPW9j30Ki+hO5SktGwgW3fUkwxFbSZ5OqWCGQGvTML3sdfjswQ2ASybxiG00JSy6/LnF+PJ8ylt+WiwGzMSYWZVHsdPj3Py3FHEUmn69RlCOJBi445O1u8xN/36wfVjP/YXyL3w/3QFcoD1f7r8n+zDG3YuGXjrry/d268kztUXn4vbZZBya2yvC/Pzm55iW02SXXUJXB5N6WadeeIwvnZ6Ja8ueI1LzqkgEmzD4/VR25KmM1HJn/++FqOwFylHCT53EYGOIHl5XiUZnLTC6C5dFd5dHi+7d+0hGQ6rrp2AlVfXSZnC9cqC1if7Lp/Fq7PFeiVW6LBw+z0Ul5ajOzx0NXeSjHRSPbSAGWNcXH1+JV6ti0gsn+FVM3n8qYXU/Msn8Ue/fKiyePQJuz+L88kd4+CvQA6wDv4af6af8OR93/pZ3fYl/6+9K4GOqr7e39tmzyRhsu8hJLIkBlARBVFwOy61gguIu6LU9fhvte7VP7jbHrXVWv+tttQNF5RKUcENUaiKQNlDFhKyZ5JMllnf/j/3N4zGHGx76nIOM2/OmZNZMjPv3u+d79x7373fXVrgMTH/mosQ7GqELrqwddcA7nv4Rexq1NE3GI9+Tp9TgVNmFmPv1nWYd1oJW0DR3qMjKPuwal0Dmv0mBHcOAsNUQJfgTRvDVl+pmgzJIUAzdHaVTVFVDA4MIDw4DFOOC9/ZIUFjral0ZS9+o2UUiRtFUuyq4Ihi+/cZXR34RXbVkVpEM30ulr46PGmIRTUMtA+jMN3AtIkqrlg4FTlpGnhNQU3NDLzwynsYNrIwafpZN8xecO+T3ytA1pf9oB6wCOsHde8P8+W/uGRSfU2xq7K2uhCTj66BaioIK8CrKzfi+de24Yutw1TOYbtC7Tyw6JIqeG09bAR4IORGY1sEe1vDMETq6+LgcqczoTuKmJh2lCggpiqw22nkOJ70hcMhdO7vYhmhjSVhNKPHg5Q9DYFE83hGTiOvDo4kLHpMZJggssTf7+ohjrfB7hBQVJgDg5PZ1p5gYBBaQMOx1U4sXlCKcSUidIXDpOojUbd7P7bs6UFTv3f7fc/9o/a7/r71+R/XAxZh/bj+/l5+bXjP+7777rmu77AyLy68cC5MLgRDCMG0ZeC+37yJNe/vQl2TwRo62SblA0tTc2jqWaJeKicMKQ0c54RAzZZUC6LO8wOEw3HxQjaRDxGWruuMaBr2NrKqkV10QDQFcJQW0lILIR5dHax1IUFaCcIi0qJb4rmqHthsc8AzB2uHSERm9BuJz7N/5wC7y4vi4kKmIy+KHAb6e6EMRzDrcBumVoi45OwaxEI98PrGITO7HKveXYctuwN47Pc73FxBAWths26Hjgcswjp0sPrGkW587fFLNq1fsYw27Sy+5wbonXUIqxp6BkXcce8fsLMhgjY/zddR5znFRFHk5mTC4XTD5nQgoikwDQ52gTb2meB4DRx/IIUzqWOcWsN5pnyQIIyGhgYmayOKFF1Rh7nAtOSJZIhMRqeEjPAObFemg08Q30jCovfpdbqPJKMEcSU2M49MJ+k1+m1O4FFeUYlgKAKbJEHgVOxvasbEUuCEyTwunXs0uGgvMrxelI+fhj+//DYGlDSc+tNr5tfMuf7VQxT6lD5si7AOYfif+Pk5q7PS2k4vyOZxwhnzYA6HwNk4fLalGXc8/Cb2tiroG1RJNJjJtqixGEqLxjNycGc4oOoqBOpE56hoTfN3rFcenCnANOKRF0cVdp5WuQto3t8CnQ0AkmwN3WlMRoDAid+IsEY2i44kLHo8OsJiiyF0HRRpaRopKiS6QOPAjG48TTx3u93Izs4GL1A3uwQtpqO9bS+KfRymHsbj55dPgc8pQ43aMKl6Ct5bvw6dQxwirqnLr7/jFUvn6hA97y3COkSBSxz2XReVm2OLbJg+pRYTasYDRggQ07FmQwceefJNbNreC1NyIiSTehYPSXSjsmIcNF6BosQgSXZGSjyldhyNzoisnkWC6nFNLYOt2qK6Vkd3FyvA03JWTlQhcDwk3Q7e/JqwRkdCowkr8f7XNa14D1ciyqK/RFwjo7FElEU2E3E6HA5kZGTA5/MhFouxq5b9/f0IBfpx4jQ3Ljt3KqqKZHDqMMaNOxqNLT3YUdeEHS3Bnoee7847xCFP6cO3COsQh7996+rJTz1649aJYzVctPA0QHBAlwHe5cNTz63GK3/fiy+2D7AthTbJjqgexZisNLY23m63QyMFQDa/d2D2D6T3QMoJJNBisFSRLv7xooS+ALUFRKCZKgQ7icdwkDQ3I6zRBfeRtajE40TRfWRKSEoOI+tbCcKiiIseJ9JMeky3tLQ05Ofns2OXYxG4JDv6+9rR6x/GSTMycN6cUkydmAtdVZCR6YXH48I7H3yOuv3ALXf/riKj6sx9hzjkKX34FmElAfzrX3/oqp2b/vR/NvTiyht+AYSiCEeG4coux61Ll+HDT/ehYU+YLZZQqdmTB8rLC+FyeZjYHa0cJdJi3GVK8ToVx4PjiTCUA5GXHeFQDMFwBAopNdg1FtmInIMRFquBc9/seE88H1mHGhmBxQksXudK3BO1rJF1LUVhwsbwer0YM2YMIy0iMiIsMxZFd1s7aiYAR0304Kpzp8PJKxgKiaiechRWvPUG6vcHceaCOy+ccvINLyUB3CltgkVYSQL/k/ec8qKHG1qY43HjtAXnINjdCrjt4NwuzDv/NgwEnNjTGAXtYaW7ze1CXl4e3A5KAc24mgITsHKA42gdKRXiqa5Fy+LjQnqaImBoMMZSNsFuwDAVcN9ydTDh1tGtDQcjrJER1kjyotdlWWZpHxEVRVZEfvT79J4ih9HR0o7qsRxmHG7ipkWnQ1CGMNA/iMnTTsQrr65FQHdA9Fa8fPUdKxYmCdQpbYZFWEkE/52LJu89LDejKi/LhZMXzsVwTyMkpwzYsjB/4f3YUx9FVz/YLkCd4+FJT0dpUQ4jLJb3cQKLroiweAqf2K5Dmgc2wJtUq5IwHIhBVXWI1E2vy+xjJmd8o/8q4dKRERa9NrKgHu/D4mAcSAlpuIZGmOnKZTy6ivdtqbrGalZ5OflwOp1QIkHWpxGJRdDe0oKJpQ6MLzFx1fk1SHfQnKCAmprpWLv2H+gN2VHfL+xa8swma/QmSc5zi7CSBMiEGTefV6rXTijkK6uKcPSMGqihLvBSGuqaNdx6zx/Q3GWivi0CtliVB3JzfCgoKEAkpkIUbJAEDrpqwO30IhyJgHeYUFVab29CoDQsqEKWmWoVdNqeLHx9Co1OCRO1qoN1wDPCggiTdg/qKtPfMkl82RRh6BwMTYBuGPBkuJCeng5TFWAjmWQ1DINTsGV3IyrLgEn5wC2LZ8NhDMIucCgpmICBIROf/bMBWxsC/gdfbspNMohT2hyLsJIM/mDD29kPL7nJP6nKhxOPn4LskiwY4Sh03osPNuzGo0+tYO0OpNhAqSHlewXFecjPL2KpFi0xJIJRVROSJLHoiXTWJWoOBQdF0RCLyTB0kj5OjN4cEM0bpYH1r1zLCIsj2WSeiQ4KfISlmLrGwTR4CLwTvCTC6/XEf0fjYReobVXBrl07UFACVBYCt151PHI9GgZ7B1FTfQQU2Y7V732O7XsHcPtDT1tF9iQ7vy3CSjJAyZyNqx47+9O/PflmbpaAcy6Yz+Rg7LwG0e7GO+t24NdPrsDufSZ6hw/sghCA8eMq4Ha6EFU0SA47dNoFKHAwNR0CXQWEkxEMtTRE5Bj0GG0NpHSQ9CG+TglH1q4OVogf6W5KAePpKAfdIMlkk+2YFyQ7G2R22V0w2cIdnQ1lE6Ft37ED6S4NUyqAm685CT5bGAXZGdA0BzyZuVi1Zi1aezRcueixafnTztmUhPCmtEkWYSUp/Bteu/3yHV+ueY4TYlh0+QLIsV5WFxIdY/Dyik/x0sovsXnXMIIqQIFVmtuOwqJ8uDyZkEkCmdNhIwF1RYODWiUMOxvdMUQTUUWGEqZiPO3NojDtmxHW6IL7wYaeWT3L1OMjQSaRlcTGgQSbAMkuQrBTHU2EqEmwixJUOYj6+h1I9/KoLJaw6NypqK30IstFKaUJd3o+/v7BRgzIAo45fv4FR5125/IkhTalzbIIK4nhf+WP1y4JNX14t50bxryFF7OxnFg4Ak5wYPmqj7DstU+xbaeOqO6CrEfgy05HUVkZdINHLCIjzeWGoUVgl3iYerwFgZMkKKqOSCwc75Oifq1vkT/+tghr5CC0oasQRRvsvAOC3QbOQZsz4mM8hqpBjuhIc7vRUl+HrDQNhxWrmHtKLeYcVwvIQRjhGCpqavHCay+hP+pGUcVP7z938UN3JTGsKW2aRVhJDv+ypSc+nyYELorIQVx443VQO7vAizaEFAWr3tmMZcu3s274MF055IHMMekoKR8LwZRA/U+CaLKV77yhsjXTgmBjta+QEoGsKhAMGuX5ds320e4d3QlPJGiXHEx/3uRNGJIa385M6g4q1ch49HW1QVCHUebTcPk5E3D26Uehp7MPIi9hbEklVq/5AN0RA1ml0x89+6pnfpnkkKa0eRZhpQD8dy+e9OXUMv2IaLALF9z8K5gDQUQGAwiGDLy3fjeWv/UZttZF0B8Ck1kuKs5nPU/hWBQ2u5stMhXoiqDJQ6TUTeQRMRUMR4PgjcQy+bgjR0dbIwkq3soQl6Khgr5Eg9ecjT3XeQO6IbMUkcT4iMg0zcBgYBCD3Z04dhKHi+cdiVNnlSMYoK0+bpRVVGPFG29CNnMQVMteveaB5fNTAM6UNtEirBSB/+lbq9f6PLGTdUHAgisXAX29MHQD/sEwPthQh2df+AT1bRoGZTBtrYLSHOTmFcCABFONq18RYbFuCFGEwukYDg2xDT60uHWkusJIl46eJaT3SO2BRmvsdicMNS5hI3NElQZstKjZNBAJRREJ9kMZ7kf1WDcunleNk2aMRWiwk9W+xo6bjBVvroEqZWAomrnyZ0vXzk0RKFPaTIuwUgj+J+6e/V6he+gkI9KL8667CWZfH1vg194VwMYv9uGvr3+MbY0mukKAwQP5pSXIycwGR8PNhsQGj0WJivQydE1hxMNIa8QtMVOYqFPRWxRNJXSvqDZFIzaJ3iyqvTMCNGmNhA6eNLkUFb1tXcgQYij3Kbjx6lNx5BQv/P4W8LYsVI6biJWvvgxdyEB7MHP9/zzy8fEpBGNKm2oRVorBf++VVVunTvBNNqHgrMsugtnZzoT4uvx9+OAfdXjhb19gb7uGlm5AckooLShDutfHVByoxhRVgvDQyI9O49Qc06KiBtKRInvk0sRzIigitsTgMxGVy+WKa2lRisiuMtICWAm6oSIWi8Lf0Yx0qKjM4XHbz85CVamEmNoNjTMwbsIxeP7Flchwj8H+bmXDDY99OTPFIExpcy3CSkH477zqiH9WFWu1PreJMy69FmhvA2xhdAQGsGl3H/700kdoagUa9kXA8RJKy8vgzSDhP2o9UNkwtBql7ncHFNVgVw2p6TQh4peoVVG0RYSVEPijxzabjd2JsFRDhWSXIEdlmAoPl1PCzl2bUV7kQFVuDPfffjm8CEMJDUAz7aionogXlz8Lk/ehaZ9r573LttSkIHwpbbJFWCkK/+N3Tv+wKJObLQeCWHjBeVDQD94popN2HW7rxLIXNqClU0NTaxhRFSgqK0B+YQ5bUEFFeFJ6iIRjjNBkWWVXFBMyyaNF9yi6IoIiUqPoigiM0kSN0kq7BF1VwSsGmut3oqjQgeIsFQ8vuQhpQhCmHILXNQbeMWPxl2Uvw5XhRVD2fLpoySfHpSh0KW22RVgpDP8jt8z6oDyHnyOH/Zg771yYggaBG8LgUBg7d/VgxarNWLfJj7ZeIKYCBUW5yMvJgWizQ9Gpy52DyIMpKiQkYEamgyMjKyIsIi5SCk3UtagOpipRKLEQWve1YeqETIzP1/DgPVcjOLwPomQipgGFBaV445WV4MU8xPSKlZf970tWgT1Fz1uLsFIU+ITZv73ruJcyPcYFvCngzFNnwSkFIEBFYCiGTr+Op55fj7qWMD7fOsD0skiSpqCoBFFFhSvNA0NTWKSUkDj+tq52qmPRnRQXEqSmazLUyCC6OlpRVerGyTPG47oFM4FYFyS7AdHlggwH3n1/AxSF0tHC1664d/X5KQ5ZSptvEVZKwx83/pXfX3J/b/POO4qyHDhxxmR4ctIAQ4Ysa9jV2IfV63Zj/ecd2Nk4gJ6AgUxfNirGlX81kkPfQekeRVqJmlViAUXCvRRhUTqY2HwTDoehKUH4OzowrTYdJx9bjqsXngFtuAuSFobX54O/04/NOxuxz6+idNLpD/3kykdvt+BKbQ9YhJXa+H9l/acrblu0feOaP+Z6OBw7bSLyqkthDvWxlWB7WwL4ZHM3XnrjE6YxVdc0iHSvCwUFhXH1T1FgRBWJRlmkxfMii8ZINobn47sKRU5CmpsUTnWosSgCgW4osQAmVjhx7RVnYva0sTBCPYASgy9zDNqbO7CnsR11Lf2YdvzC66df8MBTFlSWByzCss6BrzywcdWjcz9+69k3asfnoCjfiZoTpgOBfsQ0E4FgFNsb/Hj6+XVoaVdQ36DA6RCQV1QCd5qbbYqmUZ1IlK78ORCJRSHYRGhmFDZRgp1zw85JCPkH0dnahLJSJ8aWCHjwV5ehNM+OQHcHDFVBYWEe1q/fANV04fPNLVh806+Pzpp84RcWTJYHyAMWYVnnwTc80Lrpr9VPP373jllHV4DXAjjl4nlAwM9URnsCMfQM2vCHP7+F9i4d6z/zg8RlcguykVuQC0EUIasaYiRhzJN2lgyX28aGmD2SC8N+PwId3ZhUlYEp1Tl4ZMl1GOjcCiXSw7res/IKseb9jyE5s/HuR1vNpY88W+komdtkQWR5IOEBi7Csc+GgHlj6s6l1tYd5DlPD9Zi3YB5gZkGVBaYm09YbwJ9ffxufbG3D7mYDPX4FYzK9KCwohmaYEG02hCJBpHk8TDfLJfFo3rsbbruOqjIOlyyYg4VzT0BfewMcJuDNHwNwMt546x3IZjb2tMTql9z221qufDbpM1s3ywNfecAiLOtk+FYP/PaO2Z8UZ0dnmvIATppzBtIyfZCH+2BP82B/Tze+2N2J55Z/hpYODY31Q2wbT0l5GRMAFCQehqxCDUfR0dqB6gonyopEPLB0MUrzbOjraICg6cjLKUXjngY0dXegZ9iEZitfe+Vtb55qwWJ54GAesAjLOi/+pQdWPH3jwy271/+yqlDD+KpCjDv6eKhDA5BsMXR19CCopOPxZ1airkXHp1sCbI1YepYLvsws7G9uZX1aUyZ5UVWs4zf33wS3GEJXWzOcDg/yK6qw88OP0R/QsG1vCFNmzrtj1vy7H7QgsTzwbR6wCMs6N/6tB7a/98zC1a/e92LtxGxILhtmzTgSNkGFqURh8B40dyt4+a0vsP6zRrR2R7C/Pf6VJcUc8rPsuHDBbJx/1lQ4xSAGe/YjN7cAmi5h7bufgIcbW7a147Jr7ptZeNRFG/7twVj/kNIesAgrpeH/z403d+2yLXnqkp3ji5VKjxTGccfMQlphMQxFRkRW2LboxsZuPP67VxEYUGmTIXKzPbj951egIFtCcLgDJheBr7wI/n0t2PLZTphSLr7cE9l9912PHWHVq/5zLFL5Py3CSmX0/wvb/3L/iW8JSvdP8rOzkJ3jxeHHHQUM90GRaVWXEyZy0NTUDc4QMa68ADYpiIGOvXC6eTjKS7Bzw0b4/SHs3zeAwqqZT5967bJr/4vDsD6Soh6wCCtFgf8uZn/5zhOXvvfOH/8ysdwJD3ox56STAGchDD4dOuyQXJkwQ1Gm6tBavxUFeW6IThlr//42TD4bm7d1mYtuemRm7pTzNn6X47A+m3oesAgr9TD/Xiw2TZNbet2E3cdUeseLvIr88sORVzoW6Xm50GMKBE4AicFH/F1oa2tEfcMu6IYDvYOODVdd+ssTucrT5e/lQKwvSSkPWISVUnB//8a+/pvrH923a/3NE6rHgOfD8GWl4/DaSWxL86ZNm9HX2w+TT0PdvmEcddzcW2bPX/rr7/8orG9MFQ9YhJUqSP+AdprmR+KyBx57sbNt2/mlJblIS4srioZCYbR3+uH25L+x+NonLuYKjoz8gIdhfXUKeMAirBQA+ccy0TS/lN5/e/N5Ha3NUyVTMMdWlP5zelXlCusK4I+FQPL/jkVYyY+xZaHlgaTxgEVYSQOlZYjlgeT3gEVYyY+xZaHlgaTxgEVYSQOlZYjlgeT3gEVYyY+xZaHlgaTxgEVYSQOlZYjlgeT3gEVYyY+xZaHlgaTxgEVYSQOlZYjlgeT3gEVYyY+xZaHlgaTxgEVYSQOlZYjlgeT3gEVYyY+xZaHlgaTxwP8DlPTW4WVQUF0AAAAASUVORK5CYII=;" vertex="1" parent="1">
          <mxGeometry x="60" y="410" width="89.29" height="50" as="geometry" />
        </mxCell>
        <mxCell id="dNDYI4cQHrYuXAy6lbNG-5" value="" style="shape=image;verticalLabelPosition=bottom;labelBackgroundColor=default;verticalAlign=top;aspect=fixed;imageAspect=0;image=data:image/png,iVBORw0KGgoAAAANSUhEUgAAASwAAACoCAYAAABaK9MPAAAAAXNSR0IArs4c6QAAIABJREFUeF7snQeUVFXWtp97b+Xq7upMzlFECYIRs4g5jDmNYYxjDqOOGRVhHB0DZsWIgoAIIqKImAAlSs6h6Ryru3LVjf+cU+D4zfr+f33rX/Z8uqhylXRXOHXrhLffvfe791bI3XIzkJuB3Az8TmZA+Z1cZ+4yczOQm4HcDJADrNwmyM1AbgZ+NzOQA6zfzVLlLjQ3A7kZyAFWbg/kZiA3A7+bGcgB1u9mqXIXmpuB3AzkACu3B3IzkJuB380M5ADrd7NUuQvNzUBuBnKAldsDuRnIzcDvZgZygPW7WarcheZmIDcDOcDK7YHcDORm4HczAznA+t0s1X/mQp3oppKmpsbicHNbCDc01Ff3SSbiJfFYtJNpWprtGL5MOpkfi8Q6JFKxUs2xFRTFq5AVIYtfHceRP2uqiqKp4KiK4zjiId3ldts+r3ejz+cvUjTvLre3IOnxeay8/NCmklCBVVCQtzOYXxApyC/AsY3mwh5Htv5nvnnuU34PM5ADrN/DKv1K1+jUrwlGE+s779y+5eDmcE2nZDLcM9rY2CsZa+3e2traU9O0vKKiIjRFRVVVQqF8bNvGrWnyd3ET/7r2/CyeE0CkKBKk5H0PbsnHxN0wDBRFk+8Vv4v3i7ttgWk7qJpfvs+0MhiZGOlMjGQqQiYdx7BM2qJx/P48CgrKN4SKOleGCjpuKy7qvL1DebdGb1H5yq7Dh9cryv7xX2mKcsP8xmcgB1i/8QX6/7m8tt1ri+qrtvZprKkYUVu748CWhqph0bbanoqS6lhWkkco5CXg01DJoDgJ3Ir1M6CYpkk6nSbg99OhQwf8fi9+v5+A1/czYHm9Xjxuj6BQgL0Ho9SfwQsJaIJZOaBlwUq8DFv8D2zLQtd19IyNaStY8vdkFqwSERLJKOl0Et1I4/MHMS0Vy/agqnnYjpd0BhIJk6Rus72mEc0TtEKhkh87deqxqmfXPhu6d++7slu/ftuU4hGR/5/5y73ntzsDOcD67a7N/+jKnMav82q2bThgzZoV5+7Ysf6wdKL5sLygSlGhn7w8Dy7VQdMUVDQUXGCpBAMFlJV2okPHEgJ5CoaZzDKn/CDk54NjQToFlg7JBCg22I6w97I/SyZl49g2SpZ4QdYKFBRMUCkJUJZpSlaVff5fDE2C2N7HVQVUF6hu0NygekBxgeLew9ZUSBmkMxkM00Y3LMKRNuobmoi0teFVXdiWIb+dojrEU3Gam5tpbYuTMRV69hn0Sdee+3/bd+ChP3TpdeAmpWhY2/9oYnMv+k3OQA6wfpPL8n+/qKYdC/qvX//T8LXrN50brtlxRKHV1LFLqZ+isgJUl4GeaEJT05SUBCkuK6BT1w5yMJftQyvoAGoAFC/ETIEoZMwEqkvB7fZKTMoYljz4quqgOBaapmFZjiRIqiRLNpZl4CgOLpcLW7xJsKm9/wpTUHWkKZgRIGNkUAUgOao0L1Xp8nKwNQcLi6Kiwj3A5BVeL1THjeqID5K+L2zFxlFUFDQcAZaKLfHM41XB4wLDhFgbVjpO2kjSGglTX19PWySBiQvFFSCVcdHUYtLcYqBoxbu7dB/06fAhhy/av/+gz5VeOQD7PR2BHGD9xlfLCa8Irfpx/vlV6388urpq7SmOEivq2q0zPk8Rmq2i6knyCoOU9epBUXGQInHW8/2gmJCOkDbCuFwqLksAght0C9xesBxi0aRkNuLMa6qPaNJC8RYRSyZIp5vx+b3Ypo+mpigp20FAkyBShplGdatEosLP5MKt+LCTBh6PB12AlW2gOSYut4JuZnB5PJiGguaoFGh+Eqkolt9E9diU5edLf5Y3r4hgMI8ifxDVMejevSumlcJypyUwoqsEvT5sS5c+Lp9fxUjH8AuKp4lrczAFiHr8KMFSMF1kIglsN+zauZum2iYSkRQYDj63l2QmRUXlLiJ6yu67/9A3evY/5MdDT33yrd/4dtjnLy8HWL/BLRCtXVH647IFF6xf9f0FbbUVR/brWkT3Ui96qhZFjdKlUxkD+w4FzQf5BaC5SGcS0hfkylgoli1NK8Wn0BStR/icjIiOCw+GqZBMGVTV1coD3taWZNfOaryeAjKmm/W7aglH2ygs0IiETTwuD6orSHM0iWE7+DyKZD2RhEHGkB+NmYFifx6xaALV75LP+90KiZSJ4slag5ow9dImBUoAf8BFXI3haBY+CwryguDzEYtFUC2LUL6fvICfLt1KQdMpLSlkyH7DiEYiuFWFQw8djle816dgZRLYjpFlbDZoihsrAy58oDrgNlHQ8fq94FIgEiHa2EBtXTW7a6rJ2CoFZV3YVdtKxY4kZXkHfXnwESfOPPjEkVNz5uNv73DkAOs3siZtbd8XrZg//crl33x2e9Bld+3epaN0YgtTLZjno0+vbnTuXIgWAKw0dnMLjmGieTzgc5PEQnUHibbo2E4QS/XREk+yu76Oyup62sJxwi06O3fF5XMGBm2JMGk7geqoGDGVjA4pl0U0ZRLygEdx4xgaug6+UAcs2yDo0XG7IJ4yKSovJZmM4fP50DMOXpefTFr4w2wCQT+JZBLb68WyVXyah2g4SpEvSDIRw1QdLBEdTOiSsRlWClNBOtRNAwJ+cCtQXpSPZeoEgm4CeUEcxYVHUSgOevG5bbr3LqNr9zK6demI36PRtaSU8oJ8igJebCuO4SRxuzOoWkKoKqR5q3kD4CsAdx56HCpratm1cz1WXEeJe6Sfb3tNJUqgYMngYUdOO+r0C95VCnPyit/CUckB1v/yKnw3f+KlPyyce4OZrDx8YI9CfFYURU/Rr1dPevftg6WouEPFVFVU4fUH0HURwfNQXFQg/Te6KQ6gl4q6GjbtqmXjhhpqG9PU1LWRMBzC8YQEjLRukUyoGFY5GVPDdukEi7wE8nyoqChpL5rbixLImnwuS8OjaNL/7vEGMR0Php7GI6KKLoWM42A7Onl+lXAkjMcXwsYlzVThoxIgI9QMKcsgPz+fZCSBzxXASVl4PD5st4ZuOGiKF69XI62HQbOwLA2X1yc8ViSiCbyOh3QygaGkiGdSJFI2kXCr4E+EAuAKKPj8UF5cSMeSQooCfjzodCz106t7B/r27k5+gRuXJ4bXZxPI8xMKFWE5LhzHjYZfhC3xFyoQ1Gj9aS3NDc1s21mN4skjjZ/1O6pxhzrOO/bEc9499IS/TP1f3jL79MfnAOt/Yfl3bp49YN2KuTcv+WrWjYP7dMejWPhcCj17dGdQv364FItEWz2KnQI1Q8owUV2FFJT2QMvvQiSeYcWGn9hd3UBtTYqfVm+mOdKG6nbT1GoSTzqkkhDMz8ftduMPeNDcNi5PPmaiAF8gH9uVJBoN45huFMG4LJVUMkMyESYZj0v2Fgj4JM2JxhJYpr03zoiDIf32IojoF1aXCkkHDEH+hINfyB1MG5fwm+9xqWs2+N1giBcBhgIZqSWFQLAAE5NUMknIX0AqGZWP9+zWEZfmxePzYjoGlqIRyCtFccBKNaM4pgggykhkIhYh0hqWDM3rgQ7lGuWlZUKqSocORRQXq3TtHKSsJEDXTsWUFRXQo2MxPiNNfkDDFfJgmzF0zcHt86F5CmluaGPntl3s3rWTogI/TS0Rtu5oNkYccvqTp55z23il4xBB23K3/+AM5ADrPzjZu1bMOOTjjyf/I9a2+/D+PYIEXEm6luTRr5dgAcUkYkmSGX1PNM1C+JqLSkIy3F9Vn2TJiu2s2dzI0rWbcAIaja0WbRGIRyHoV/D4/HiChRSEilEsF/F4Ukb0LMcglmxFVRzCNUkpSXf5IJMRZp/EFhkF7N4lyLCBAznwgP2p3L2DqR8v/hmEhCgh4PJhm2nKSzzMnPsOncrzyUeltqqa1995i4lv/oAgLMkUHDF8IHM/fotkZDtejyk/yzIcktEM730wk+fe+BJdANceiZaIFfTtmc9Dd91JcchHTdV2nn3hDSpqs68x94ChJi7eAb8Gfr8mgwSO4ibP55aaMRsLU7Glsz+V1DEToCdj6JZOt25eOpUHKS/2k+9W6VEe4sA+HejesRBv0EVZ1xJCXYrke1XbJUKmFAjQLsyjZc1y1q5dTyKjofo6smF7koLiPu9fcdWfH/P1HrXlP7iN9umPygHWf2j53xl38mwruvuMjsUFWIbJQSMOprSsANNoo6mhCj2TxOtzo3i9+ILF2FaQ2sYUC75bxbI1O2iK2TS3mliGj3gyQUaxcAuQ8nfE580nk8yg6ykcVae2pg13VqMptQi6CMNlg2lcfNoIjjj0IPx5hdx4698kUM2c9jSjj+6BojdiJ5JYtogCCuWDxnvTF/HwY3PRBZMBilzw0+o32b37B8pKC7ATHoxUmuJiDzf95W98skh4imD0YT2Y9taTNO1ehkoK3eXF7VZoqttMh449+WJhBfc9/hlhIWbQ4KKT+zPpmQfYveUH0vF6FFWn76CRPDFxNs+8+hNJEdz8p1zr0Qcv48ABPVn09Vqef3U2KVVBtxUCbgfTcOT3FJ8fKinCNKHY55c+taSRRPVBU0MUxUDOT+8uHgoLfXTpGCI/6HDg0L50715K17Ig3UMBOpQWgB3P6tJcfijugN3YxubtO9m6Ywuq28umzZX0HXTcM+fe+sEd/6GttE9/TA6w2nn5RTrMHbect/n4kWVdnWQNRxx0EEWdO9NY30Jcz4hgPJZjE/Tl42geNu+uZunqTWzcVEd9s01rAmqaoCkGHrcLRYfOnTqSMsOkTYOELhiEIx3nmqJLUBkxpAPHHnYUE1+eTlKwE5kaY+H3wI6lb+EYMTZuaeDcS8eJ6D/TPniAgWVN+Inh8hQTTyQJhlxkLAdffnfufuAVZsyukWN/OuUuyooz9O7biWXLV9IahpOPP5ba7d/T2GZx8uUziJtw5IhiPnr7SfTwRiY+/w/CppfBBw7iD2ceStWuSoqKDuDS6yewbIdQX0HjmonsWPM1RSUF7Nq1kZIyH47qx3D14OqbX2NzZRYwZ7xzHV4tQyZTxMV/egZpk7ngluvO4cRjD6OusZbHxj3DrjpHCvHdZtZkFbk7AnOMDEitqiHfJvzrErQ7l0G3zoWUlwQozVM4bHB3enbMY8j+/bAtk+KScml62qqF5jJRiqFy/Tp+WrOdpFXE+gp7xRMvrRjZzttpnx8+B1jtvAXuOreDM2bUILwui8NGHEimrZlorIm0K42hqWQMD5G4lyWLdrB6UwM1SZPGWJq2NpPmcFZULtiOIWiDI4L1YskMaSJJyaaQFZji8HnQ0Jn1/nhGjegnHfdnn3c53222Se9Ro5958kBmvnoTtTs2sn03nPPHl2h1wazpD3FgsIp4SwsnXvIJ3hBcceEh3HXLpTQ1rmfeN8u5+9FVkmjEayexbc1Sdje4ufCKF4WLiMcfOJeLju2CbSucdd3zrNthc+jwYqa99xyJ+nXcfc+TfLE06986aqTCzCmvs2v7BqbOns/41zbw9LhLOXuIX5qnj778JR/OrWDUKPj7+L9SW7GTpSt2M/bpHwV5YuGcm2iL7CZGCRde+TZpG+kre/SeExl1cH8cW+emm19jRxWMPv4g/v7I1VRW7uTOR55lww4RGwWvS0XTsxQ0I3xsbnAMSc7knJaVKnTuFKBPtzKCLhcjBw9g9OHDKc5zCPgT+PJMTCWJyx/ASHj48vtFtNop1m+P/TThmV3D23lL7dPD5wCrHZf/yftP+7pvKH5MnhJh9CknULNjK1ZGpyXShlYYZPWWnXy7ZCeRqEZdjUV9q8KuNkfgkgQpW5ymPY5p1S3Cd0l6FPn4619u4oBhg7j59ttZvSmSBTVFxePYzH7vPgZ085DvyjDj02+5bcISdHfWB/Tuyzdz5IA4HUM+1mywOeWiV2nzwQdvPcAZA0zqqmsYcsZ7pIE8YP2PL5FO/cTGXVWce83nXH7JSJ6//0xi4Sh/uOI5lm7JkFGhwAORdc9Sv3sHz09ZyfOTlnDkqGLefv1p0k1bueOO8SxYIYXsIhDIysVPEWnZyPI1G7hr3FIWffE0vqqvMHSVY676lJh03MPkd24j5DFYt2YnD4ybJ1dq/kd/xHZaaYzlccnVU8jY4NHgifuO4ZChnYnH2rj7/s+oaIAxxw9j3N2n0drWwF/Hvc/ilQnJpmZ/9Bb1Wzfx4isvs646RkrOsUgnUvBpbjJWBim2BzoVavTtUk7P8nw6FSucfupBDOxfhi8o5B0qju7B160LH3/0Jo0xL7H44I/+8vB757bjttqnh84BVjst/8LPHrlq2aI5k0YdMJyRg7uxdtkMmd8XTflZubGJr1dWs6vepLYpQ12tSCLJmiaWV8UQScKW8O24UNQ8TOGx1jIo2Hzx/r3s16OAgE/hiWde4Y3pu4nqWSbmceDLKbfRNZQkqDTTGNUYdX7WLBQpfrs3TkJpWkC+plFZX8qxf3gWUbvl04+epX9gA83hBo667BM0L3hTArDeQnXXMPXT2dw7fjnjH72IS0YVE4mmOeKCSdQJZPEreNMO0dUTaKuvYf7KMDfe+z4HH+FiynsvEK/ezt13PcXiFZCwoWdP+Pbr56irWMUH0+bw9Bthflo8EU/tt6xdtY1rHl1DDA1bs+jWI0j1zmwgzhFCfQO+/uQKrHgrbU0lXHvzm9LUE7e/P3Aao4/fn4qqndx6z3S21cOpJx/Eo7ePoK2phnHPfcVPa1Ik07Bq8Rs0bf2SbRXV3DB2MXbARSpjyjny7I1iijnzgK1nfWeCxfbrXUzf7gWU5utceObB9O9VQreuHTEtBYM8Vq6tYPHyHZxz4fWjBo48Z3E7ba19etgcYLXT8t92dffwuaceU9Sjw2BCXotk6wqqair4aME61u0w+WGtjakF8BeU0FBdQ1Cz5aHQxV92TcUxbBm+d0TYTSYUi6oKsHXR43gzlTh6hO+WbuPaB1cRV7Jqcp8Gn026jt5lCYo8bRhaKade9TbbakGk7G396V2atswmzxNg6848Tr34Zclmpr83gWP3j7J1+xrufXYuPfsM5cYLLqBn1zK2Vm3m2juf4qcd8PaLt3DWQQrh1hj9TnoTM1iAlYxS5IW1c+7GSYepjhVz6oVPctDh8O6bT2O1VFCxbTe1jW58BSEOP3Ig6zYso2/vflx19XiWrYedm94jtu0LPvloPn+b1EgbXnQyMg1IzIEwe3UH8r3wxbSr0BJthGs8/PmOqYhMZuGTmnDfSRxx6ADqm1u46+HJrKmCP5w1godu6o+ZDHP/Y1+yeJkl/WWbl79AxepJQmDGhbf+SGUETBU+nfUWwVSYJd8v4tGJH0vnvU9kMxlgybpeWalG/x5eBnR2ccbokZx1xlGE8gtQ8nrQXFnH4uU/sHxd5ZpxLy8e2k5ba58eNgdY7bD8FRU/7PfehD9uPGL4AI698BbSu3dRV7mC2V/M59MfK1lf4dCz91Apxly1fhlOGgZ09TGw3yA+XbBKMi1xsLweVZZQkYUQBCApkNz+MlXr5uNR0tiuzgw9aRJCtWRo4BIM671r6dsxTUBrQ/WW8e5n9dz/2FzGjTuRs08ZihHeQklxR9ZuUTn7wpfloZzx3sMMKt9N584ubH8HonGdgKlT35Tk7dnLmfjmalp1+OTDZxhWupFwuJGjLp5NWOQgOkHySLDkwz9THLJZW61z6XVvMnykwqzpr1KzcR6hoI3liDpYAeJRi4xdwjdLG7n/0el0KIOFX7xConEZ8+Z9z0PPbUPx+AgVuWlqiWGbWcBKCwEr8PWsG/AYDSimwvqt9Sze2sLCrzZz82VDOe2Eo6msaePW+99hYxOccsp+jLutP+lIA2P//iPfLxGpO7D86wnUbX5Vikjf+bSFd2c1EE3DvI//gVGxiMbmZm4a/53843HsqKEsXLgaS7CsPZFXEW0V13L2iQO44qJjGH368VnthU9j2itPsakiwsMPLQgqnTsLcpu7/YozkAOsX3Ey9w419dWxT1lN39zZt0seA/qPwBPIp7a+iuvueIYm08fgQ07GJsC8z+cQaY3y43eTGdCliL/c/RAff/YT4bgtD4QUXYqCBHt0UhefdQCvPnIhRvM6vJpBwijh/BveZe0ug1bTkk7rrz+6nm6hOJlYHZ26DeSnHSpnnz+RmTP+yJDBnVi3YhF9+g2joiGPMWdMkL6t2R88yFEDEih2C62EiMVT9OhQQCSq4y8ezE13T2TqrPVMeevvjOi2iUQywoizPiIqS2EFyCPJ9m8eQrHCbGqEsy5+gSMO8/HWa38j1byKnZt/IFSST2lhOYW+Up55eS7PfhCWDu9CL2xY9TZG21om/OMlXpuVZtghQ5gz43XizRW4zAR1TW0ce9btOCZMeeliOhVmZFqOlleEld9b1tnqVWBQuXULjWGFW+//kNUNcPZZB/L4Db0xUi3c+cj3/PhT1rG+4Yd/UL3uWQwjguE9hEtvmE+rAbOnP4K7fiHNLa1c+cg60gp8MuUJevfszuIV6/nzbROymjAhsdBUigM2px/bl789dBNFAZNMsoWNmzewtSpFoMNxN5x55V9faYfttU8PmQOsdlj+f9x5yZyyUPVpJx7Tn3RrI8mMzZrdUSbPWMq3S9OMOeUPxJw4Xy+cT9CCDSveoaVxC2+/P4uJ727E0jwgUm6k10qXwCWEni89dSOnDA+w+MvJnHrKaFJWByZM/JGX3v+elNBZKbBwxhV0zIsTa2xh6LAjqGy0OOPs8Sxb9CCVuzbLvLnhB49hxfoIF1z5tPQrfTr9CQ7p2EhVdQWHXzQLVz786cL+PHTXn2iu3UZTs8IZ57zOGy8/zNHDm2mJRxh80mRignEoUOCHVR/fimYlmL+ykb/c/wmjDs7jw/ffoKVuE9dfM5bN22Dj6keJVm5m2bpKLvzrIgwvuNNQsfot1PAy3ps5m9tfr2X44T357I3x1K5ZQL7ZRMzwcdZN02huhdmTrqQsLyMTqCvrG8kv74eVaaPMVU24tgp/sDe3PjSfZVVw1hmH8ti1g7AyYW4bO4vl67JVcNYueYbmra/RpVQlEi/h7se+Y8EGmDnjEfIiC6muqeWqh7fL3MYZr/wRK9VK3Axy/Z1TZcRVRCbLO3agX68yOgciPHTnBfQoT+FXTRJxD198u4l0oNfEy+98/ZZ22F779JA5wGqH5X/smhN3d+nQ2v2sU4aQaNxCc1uGDxfsYO7XLRw66nwpBs0ocRrq6ymwYcfat2lt2ciLr0/m1em1JAxVVjewbAvhzg0I/NLhi5kT6Baq5/23nuXWW6+lsU2lsraIsy4fT0JWRBAM6yp6FsP2LdV079aHUFGIT+d8zCUXnM/ypcswTI1+g4+gshWOO+1+MhrMmvw4R/SIUl1XyyEXTpZO+oAF86bdyP49MiRiMPK4N3j0/ss4/9QAsUyKMZe9y+babMUakXbT/NODRBrr+ej7Ru4fO5tRQzzM+lAA8W5uuOleVq6Db+Y9QqlVRSzjcPilb1KfBq8FO1a+BbXfsGL9Ws4Z+xMF5XBQOVx8/ADOObo3jXE44dp5NLTBvLevIc8dIxyLc/UNn+ItgNIQ3HhhKYcOG4Db05kLr53OumY4efRQnrnzcCLNtTz47Od8s0LEP2H1908Tr/yQzoUZmhvTrNiS4qYJlUyf8QDu5s9oaAzzp4crpAxjzhvnoRoRwgkv19w5R/oLO/fpwfARh+NzZajesJB7/nwKY0aVkmytR88U8emCNTRaJQvumjB3dDtsr316yBxgtcPy337uQGfk4HxOG70/kaZttMThs0WtvP3xRg4f8weCRV158fnnZWTQD2xd8z6RxpW8+c5UXnmvFpE8Y4o6T8LjrKholkmBMGWWTkHXN3P/fWO54/Zz8eeVAKUcceI42lSkMPTLyX9mQNdC1m+sI5WOcvhhXTCMNB6tE8898wYnHXcS3fsPYmNjC6df9ITM7Zs5eRyH902ws3I3h13wPqHyIJm6BB++dgsjh0FNfRNHnT6FU8b04YPXr6Nm1zbGv7KESVM3oCtw9skDmPrM+bS0NHHBnVNZtqqNIwd7mDl5Iq1tlVxzwzgWr4Yn7j+Ly47uIgv8XTf2PT75PiaUBKz4+iU6WCupqavlqEvnSamEYJ5P3ns4fziuhKaYxUnXfkZdGBbNvJFkrJpIxsWl132EJSJ5GfjHX0dx+rEHsWt3DXc+OIPV9XD26fsz/roRZOJh7n5qDt+tlNPJ0m//Qdu2GWxZvYRTTjyE2jYfx1/8LR9OuQet5UuaW6Nc/tB2me84d9IFmMlGEkYRV98+k5gLCkpDnDz6DDASVG76lkvPGs6V5w2hrXEneXkd+XjeCjY1eDY/9uKi/dphe+3TQ+YAqx2W/4YzuztHDy/lzBOHUFu1jnBS49Nv2pjy+RYOOuFUCsq6M/vDWYTr6nA7sHP9+8TDq3jttXd5aXKTZDiW8LrvyZsTzvYxQ7ox5c0naY1u5/AjH+S+e7pxxZ+uor4+wrW3P8vXa7LJdvPfv4GDD+zDt4u3MfXDt3jpxVtJJ2MUFg/juCOvY8LYPzFwyBBWVldy7h+fIh6HOVPHc+SAJOs3rOb0q+aQSEMQ2LFmMoa5kyWr13LJjTMky9u+5FHsTJi4XsRZFz5MQxi+mPs43QqqiSRNhpz0hvSLHTPUw5zpL1JTvYW7H3yKLxdnNVjhNU9SuWsj329u4a6xc4ik4dkJV3HSMOEcSvPi1OVMencbQsXw+Yxb8Opr8RV2ZegpkxGW8rwPriedqCVBIedd9S7+Mj+tDSmevuckTj1mKA0NNdw/7j02t8CoQ/rw1C2HoydaufOJT/l2pZRasWnlq+xe9QHvvvYtTzxxIpsrInz2bR3nnX0OVtNidtW2cNXjO7AU+HTShdiJFmJGIVfdNp2YcIJ5BBieR9DlsG3tV1x0xjCuPn8YyUgVRSUdmTzzW7bU5W0d9/LiAe2wvfbpIXOA1Q7Lf/kJZc6YI7px9klDaGncSmvKxawFzUxNSsuuAAAgAElEQVRfsJkDjjqF/NJurFi0nPXLlxNwYNva1wk3reD1t6bx4uRWEiJOL0JR4mZDvgbP3XMWJ486gEi0iYzZxOD9y2kK1+P1d+C5N+bz9ifVsrHD5BeuoX+PUlZvCXPtDa+yYc2DslTxpg1x/njJS3z43uV07tWVmqTC6Rc8TiwF096+j6P6RghX72D5ugz9BoygT49CAv48MkohN/51PJM/3yz1SK88dBkXnz6Kuuo19BrYEyNpkEwmZch/4uuz+PukTdLHc/wRpbw76UmaGiq56y+PsWi5JaMIC2c/QEGBSZue4djTnsEQaXoO7FjxGA3V6xl44KF8Of8rAprCgf37EK6voLre5txbPpEm2nez7sTQ69lWHePGez9BLYJ4Gzxz78kcf9hAqmt2M/65mVQlAow69ADuvaQvVjrC2Be+Y+WGKK1tgmG9RPPWubz5+lx6DfRywkln4vfnU7tzCwVWmJo2h0se3SQFvPNevxg7ESZiFHLlrVOl7ksA8umnnUpxUGPHxu+58vzDufSMQcRbd1Nc2ol3p3/D5tq8reNfywHWr328coD1a8/oP028i48udk46qhtnjhlKNLyDWMrDzK/qmfrFRg448lSCxV1Yv2Idq5b8IEsab175Mg31K3jr/Vm8OKWFuEhwE46hvQzLhKUf30Z5wMRxFZFMx8gPZbDtCIplsrXK4Yb7PsGwNV576nIGDOjE8vUNXHbli3w07Ur2G7g/77w9nxefnc+MD66nW++ubK5JcO5l4xFVkufOfJKhnZso8dmk08VYeEml28gv6sak9xbz4IR3iYv0FaGFMmHuh2MZvp+fZKwKBTel5T14edJ0HpmwiJQskwdnnDaEic+NlUndV115C4uWNssS7LffciZ/uvocVFXnjrvH8vmXVWRScMcNh3LzDeewc9taFDtDp7Ji4tEUbi3Evfe/xMLVonIofD3zXgy9jsY2kytvfh87BEYKHr/tOE45drgMHDw5cQabajUOGtKXv99xGJHmOh57/lsqG6E1kubzWc+TqvmWOZ98xOS5MHvOX6nb8h3HjBjIT999T0Wriz+O3yirSX/5xkVYiWbCegF/uv0jGShIZuDE0cfLelwNlau449rTOeOYroQbtuELhJg5bxVb6oNbx738fY5h/crnKwdYv/KEiuEuH9PFOW5kCaePPlACVlL3M+vrRibPWc/Q404jv6QHK35Yzrqly2QKzK71r9Bav5EXJ81g4pRa0iIz0G2Slx/A68kj2dTI7lVjiYVrqYuW8sPKLdTU7+LYwwdwQHeFZFrj/OvexVL8/P3xyxh8YD9Wbmrg6j8/xVmnD2TCuCe55OKb+eH73Xz0/u307N2DnY06F152N47j4uWJf6NP5wyZRC1uTx71TVGZ4zj1w/l8sWCjZB8pJY1uGVL5LXxvpxzfgYF9u5FOwo/L17N5Z5pEJoux4t6jV4ms+iDKJeuGTU1tRpbLEVqmM08+CL01gksL8MV3ayVzEkX4Rgwr59yTD6Ffr1JSmTQJXWHyh1/y9fdNkokFXfDF9IfxKRFa23TOveIltFJIp2HsLWM47YSDaQnX88ATr7O13ssRhw1h7PVDSMdaGPvMQqoaLdlKbNaUF2nY8jlzPpvHO5+bPPro+fQPVrB/Vy/1u+rYUAt/HL9dBhQ+e+E8SLcQ1vO45o5PyLggZcJhhx5GSUilrW49D9x+HmK9Y+EKLMfD3IXr2N4Y2vL4y98ObIfttU8PmQOsdlj+m88frI8c6HGffsL+chPrTpBZX9Xx1qw1HHD0KZR27s+Sbxezbo9JWL3lTZpr1vHCq1N495N6fMU9parb7XYhyuYV5bWxYMatVFfu4pLrXqcx5iMSS/PgX87notGdSCRS3P3EPL5fWsWsqY9SWhZi2eZ6rr9lPD4XLF/2DccefRrqP6X0j9x/M61tLWyuaOSLL5eAFaC0tADHbCASa6G+KZvHGIlDftCDS8mTTSKSmVbS1h7F5J4KCKKdoZBSCF+PyCXWRJhyTxka0WdHqB6E6FVUcRYCUAFWbo9oomqjmVlgU/GSxsJRTAJB0OIQdENSqP5FyWThM9rDNIUP7PSjezCgezn5oRDPvbwAf6cgTQ0JJtx7GaOPHEJNYwUPPfECjekO9O/VgafvH00q2sRDf5vNdiFpV+Dzj1+gZsMXfL7wOz74JsJJJ4zk1jN7Etu9DFvP0GCUcvML62UnskkPn4cr00TEKeLymz6W1SEEgzxg8AH07lZMuPYn/nrLHzj2oCKMVBPJtMOsL1ZTES7ZPP6173JO91/5fOUA61eeUDHcvVcd3rRfl1Tp6ScOJt68C9tVyLR5u3l71jp6H3Qk3fsMYeXyVaxYvARRor1i8zs0Vi3h7cmzmPVVhEDhIFymaLdl0ZoMc9Xlx3D+mBBGxuRPt0wnKsw2O8PwQWW8POFyTFPnhQ+W8NRzs/lw0jhUt4tFa7fy5nsf4nb5GX38aL788muCngCxpgbZhcZ0ufD581Ac0aoLjHQCy0njz4eEniZjebBFmWTRbjWZwjRtoqIyn2yemm2KKjKGpPh7L60yVNnNx9RNUUaPoFfDNOKyIKF4ScCXTzQt4Skr2xff0dTQFA3TpSO6SIRku/tsZQdD1LYStZCzbRCl80hUOBXWsvAj5Re5sZQQQY+PPmUBivJVDhjWh6+XrKCiReW4o0dy19UjScQaefL5j9m0Q/j54ItP/k7F2i+Zv3Aps3+M01hjsWzarUR3L0LP1FMV83P/6zvQDZXJ487DSdaSVIv4402zpVhWCF579urDsAN6E65azt03nc7ogzuQjtSiO16mz1lOQ6bbuoefm3dgO2yvfXrIHGC1w/Lff/0xdb1LIh3PGrM/qXA1Ll8pk+du4d3Z6+g06FAGDD6UzRu3sODzeVLWsG3dW7TVLWHGR58yc14dhlWMnRQt2n0Q9PLYo3+mX8cwu6uauP6uaeSVDJKdkq1kDXM+eJIvF37BusoEPy7dgJqyZCJv2uNF8wdx4cblEm22RCt4k6C7QDa3EM0nRF9AyxB1tgKo0m8G0Xg9lmLgyQ/R1taGZpq4NQ9G2pE+nbQIFQo0EQ4tIT0X6CEUGIJtibw/ocTIyrPEpZPnyz6XiP+raqiI1MW07DBu4Yt3srl8iqg4Ydn48JLBwhD1Q0Wlvb11X8RnCNPQWyC78ahu0dHHj09VCToGjhFFcem4CwoIp1wUFnrw65UcOnI/tlUmCcditIbDzPvkBSrWfcfnC5bw+dIolu5w7+XHcvCgAOGWFdRHXdzz3GZU/Lz9+Nlk2naRUUv40x2f0ibA3Q2lpeUcNnIw4cql3HfTWYw5oivNNdtw+Uokw4q7Bk6/+eH3zm+H7bVPD5kDrHZY/of+fGJ1x7yaLhefdQjRxl24PEV8tqie16YtoaT/4fQbdDCbNmxm4YLPpaxhx9rXidQs5eNp03hncpRbbzuZYw4ZyqChwzj25PP54IP30OwmpsyYy4tTluLJ70omnSDgcbAiDZL1ZDx5aK4gAdsn62alNQdDEU0eBA0ywdFxHBXF8ouezdhqAkN0kVFECwoXbsONY5k4ShoTHd0xMXQTbE30W0U3FJkPaMRTkvEENBeWlcJWs0naJQG4566TOWH0kfTv0002qhAtaYymatxujZb6WtpawtTVNLBu61YWrW1kwVLIWFmpgSgTk82h9KKI68PERsWUylQHRVRBFexKgJzbj2n7yC/Kx3El8WoOfkVDcxwU1cRxuzHcXjTFImCnSEXjUvvmaC6S8XoG9e/KoB4dqK9rYcnaRgJ5+TRXbGfp90+zZvk71IZ1JryyVZaOeX3c+VjxGkzKuGfcVDY3IcW2RSX5DOzVAXemigduOY8TDulMpLECRytg1hdrSHkPmH7jg2/mAOtXPl85wPqVJ1QM98Rd5ywPadtGnH/KEDJtdWieIj7/oZZXpy6mpP8oevUfztbNO/hy3lzJsHasexXi66ndvZ3BQ8dQ3xAlFYvgDRRxyz0TuOeBR5g980N+WLWRFjNExvHiFxoDXUe1HQk6uktDVdz4bR+Ko8iGpuLIK6JEqW3IzjCOo+A4fmmS2UoSkzSmqqI5bry6RwKWpaYxHR3TdjB0B83WaI3ECIaKiUaj0owTvjAPlrTqBHhNm/Igo48fTiZaheZJ4gqA1VTNdwvmkYlG8LkFw7OJxxMU5xeR1A2CpZ1oTsLmqgzrtrTx2fwauRJCNmChysoUmgAm041pGyikRNEZ+Rq/PwBqCLffi+KK4HHb+JQALtkpWnTFULBE13uR6eh4USwVS/HgiG7WpFFN0f0nI5FS85eRMTLEE7WMH3cDZQUNbN9ezYSJy/CqXl554kJSrZUYdoixT0+lJgV1reDPczP8wD6ose2MvfNiDhkYxEq3YThBZny6CjNv6LQbH3rzgnbYXvv0kDnAaofl/8eDl3/hN9ec+IeTD0BJtOCo+cxfWs9L739LWb8j6dZvKFW7a/ls5kfkI0rtvs761e/TvWsZutqDSCLI4h82sGp9BVurW9myqwK/T6OwtIyoIYDJi1dUGVVUWeJXHGdD0eQB9QqHtjCxFJc0qhRNmHCCKQmwUjBVRQKWYtuYjilNMeGp8mY8OLaB7hK9/GxsPSAV5JojeI5oFxaVnZzTsSheJaudGrJ/gIVznmHnluVs3biLdCqGrrdQUGDTs1uIjWtXk19QTlubjk0+ocIyZn+8SjZe7dfbS3F5Bwo6dsITKCUWUZkxdzEL1oTlNUl7URSkEh59qfg3UFVH+ttcXg2/rwjdMAjmq3hcbjxKAFUIp8Tb3DaOO1vYymXl4XH5yBhpNLdGwO8mnWjDSMQoys/DMCw0r4eUapCI1TG4ZyE9u/Vn/tc7sc0oE8ddCFYjsZTCg098guH3UFmn4/Hm0btrEYVaLY/efSFDe3lw9CieQDnvTltEqMeJL11229M3tsP22qeHzAFWOyz/xMevm+tKLTvlvFOGoCRaMe0AX//UwDNvLaSo5yH02u9gWprCzJzyPkEHmivmsGvn5yxasogly2pZu7mFtO0l7XjRvMXg8uD2ukmkU7Jxqkf14ETTspmF7dckS7IdDcWx8TmGPN+2ku3ALJo5SJPQcmd9RaL3n6OgWtLHjaXauBwNj+7DsU3S7pjo5g4ZL3ZGwclkpFNf8YjW9M14skW6pI+qtX4u381/je8WfM7UqRl694HSEjhoRA88njZCBV4s00NNbYT6xjSduvbh7vseYNGX3/Dpx3PYvquBTTuhSw/RAszNT5sMqkQITlQmVX1YGeFaF74t8ZmWjNqJul8uNwQDwj2vSvW72+3BrQSlaavsLWvqSssa7C7ycGxNBghUKca1cWkKHtVBFaCdSaN53bSaSbwBN34jg54wUbVCbKuNGy8fRYcyD5l/hh8effJdWmIqjWGbkpJyenbJJ+SqYdw9l9K7LINqiYqmIWYtWE9R9zF/P//Pj9/dDttrnx4yB1jtsPxvPfeXF5KNC2488/iB+M0khuVn2eYY41+ei7v8AAYNP5rW1ggfvv8e5cVurr36QhZ/+zm1Nc241E4oXj9Rs5n8wnzslAeXO49Y0sAlTCDFJpOIE3IF0FwKaSclo2mytoODLH0n+/aJ6J9YXc3EkTICD7botKwJ09DJ/i5AS9MlYHlFcXbLxlD1rG/LsjB1YfYFSCSSUr9gWmlSqbhkWLfedCT3/uVqnnxiHK+8tlWq24XBtrdZz9ADoFM59O/di+LCYgYPPphAXiE19Q0sXb6KxuowO6saWLktg0vk4aSyTvmMqKcjzV0Tr6LI1vS2iAzsqRUt25MZ4FM9BApCmJqB6nHj0vySKQpEE8CkCWaJI2twiVrzHo+AWNHaTJc/u9w2SWGi+oqJpWKohQqKYpGKxMj3ByTwqU4aK1pLx04ldOrZhzWbK2lrdWQ/SJ9fo2OxyvD+BTxx/xUUuxpwORkqq2Os2hIn0OHov11w0+P3tsP22qeHzAFWOyz/jLfH/aNm09TbTzi0Bx2Dbln7anOdw0NPf0jC05uRR55Cc3NYApaIgHXqFCLoD+DR8sAqRPOq2ME2MukYQTMoa5178ouICZWmInrl+Yk0Rgj4PNiaKa0mR1EkULlEpwihALAVhDZccwlyIgBLdDoWgGVIpuU2vPJxU9NRFQWPrklzy1KEIWli2ILBGXjxEI0kMa1sp2fhTxKG11WXH8ijD91KfWU1Dz30FF99H8sGD/dUAPW690QOrX+pHsRzsnmGAFgn20hVJDqLN+Wpoku07HuKxwdWPBsczH4b8OFGtJAQCclS2yVaewXzIaBkAcslnPWik7MLTVHQhNBLvFvUXReBBceFqrjQNOF9E0URdcm0HF2V86YraVweN5oATEuUS9axMyl8jtCgpVGCPgThi7XYtDS3yG8iasmfOboDD995sSwzk4g2UVObZuWWKL2GnnfjmIvveqkdttc+PWQOsNph+T/94JmbN696/fljhneid1kI1DyqY0HueuwtapLFHHfKBdTXNzJ9ygeyQFO37h0JFQZldE9PunH73WQ8bZh6iiKjAFN3UArcpCxdmm1+j1eaP5Zh40gaJUxAQ5pAmu3CcoQjXjjdFRTRzcEycZkOjlBHiaie7eAxRBt6m4zogyUkBbaFJUDO8UoflumkpBRC0y3JwIQD3jAzpK0Ulihg90+n+GMPnMHVF5xAUEnSXFdFXc1utu/aSU1tBYloUgJBU322Q7S4SSWEhjQ5BfAI004IT0UbLj0FbQlos2D1etHZBuI6KHkQSYrS8QHZ9t7RhA4D/GoAn8ePohq43G40jxtVEZ2D3NK3Jzx4gl0qHkvmBFoCGS0Xbk9A+u4MNYEv4JUXYxsKQU+IttYYjstPfoGfZLyOoM+NZqjy/UmPgWlatFbGiLclpHRDw+CME8p58M4L6BKMkk6EJWAtWt3AYWNuuejQ067OtbX/lc9XDrB+5QkVw82Z/I/rt6149eVjR3amS2kRiiufllSQmx98ia3NBZx+3tXU1tYyc/o0aYZ16VyOL+AhmF+AlXGTFg1RAzpeTSVo+NDTBk5AQXcMvG6NTNqQoX2hH9IUjwQgW836e0TEz1ZEtMzGlL4fVYKcZglXuyUfF8jhNhRsx5St2YVewHEsTFvFdHyYjoJh69hGCkWAlvB9ZRzSegZd+LNcAuCyTS8KHLjrhoH07pZH5w4FpHWb8pJSDD0to4pmRvRdVNG0IIlkDMtMoQgFv+YnkzEIqhpet0cO6PJ78BYHcHmCZDIB4hmFjxd8w5RpW6WjXvTjyoguqFL9rhIM5OEW/ii3JkFLVQW78kgph0vQNsE+tZT8fi4lIP8g2MJkdKvYLhPdTOMWjT5El+e0m4JgMfGMkHaIQINooGricjxS8xVDCGAhURcn0hJDkX8ydP5wYgeeeOhyiO2iU0mIJYt/Yu3OJEOOv/XCo8+6/sN22F779JA5wGqH5f/2szcvWD3nsanD9wsydMRImiNJgoXdufj6v7O2xs05l91CY20NM2dMk2ZaYUE+nbp0zAKO5sUU3SiEQlL8vscmsoUI6d9vwjayhe9FqJN+bvWcZVx7+4NJZuNkNVZCpyQ818JsEyBniyih0Gc50jFtOy4s2yW7wFi2IaOGInlQvk43ZH6fYBlZupQVigpZhsAPmaKztyWZqNJVAEJ9kExAjz4CCFXcbq9kP7qRJi8QwNYNioMhGQW0HB2Xz5Hq9VB+Hn26D2TAwB6Ud9bIZDQuOPc5WcpGyh5cHhyfMHcVgpoAKGHqaVLBr2kCuEQBxOwsIBilokgwE8ap+FmWnhbyNIG6ojKGAFThmBcO+z2RRhQxXzJUKdOGbJcAMYWdW3ZKZmvbKj5szjkxn3H3XYWZbKZ3jy58MWMK2+tg9HWvHTxg2MnL22F77dND5gCrHZZ//eJPRn797i3L+nd1OPGcc6moqaegsBMXXfMUX62FC664hnQ8yscfTcexbfwBHz169JAHLWs6ZaNZe8Hlv71EyZ6yUoX/7pYdQwwj2FP2/q+xs/aZLQQOjr0HsFx7QEuVDncBWLZtoRvJnwErY+jY5h4p+57hXapbvlZeumAvjldCpxsVm4TMIxTiUPFykXIjfFvCnBQdmLNm1c/4l/1dk5Ix+XjePxsGPTr2EI4adRjlRfsz+qRr2FkDrbK7kIrmd5MnQFDVfgFYIiIoGl5k51LVRJQxC1S/nE/5s+jkvGf6RDlqRQhrhYMt+84s0xKWpGNmpaymzs7tVdK0FdNf6IeLTi5l7N1XkIyE6VZexMx3X2N7vc0lD37Wv9ugo7e1w/bap4fMAVY7LH/dph96vvPE2bu6FCW59C+3U7VtF2Vl3bjqlglM/8bi3EuvkAxgzuyPiUYiqJpC3759JUMQYCHYgmA1/37I/ntg+n8Dlr2XEe15s8jr+xeAicMpJBEC+PYyMcEeLBkRFNcg2NDeiGFG9LvK4qQkJvKwC+Kyl+AJENrDUMQBVzThY8t+cFbPKWrUZOvU/wwmIlAg3GzC4W/9KwtHgt4/u0q7/ln075Y/D+WuWy+hribMkceOl7l8uuLLtv7K96JpDm63cLxnmdZ/ASxVzc6jEI3uYZfyevYAloxKyK+QDVr8C7Cy31NIKgSwG2Iu0mkqK0RdaPF6lY7FNpef2ZtbrzmDSFMj3TuUMGfqO+xqUrj6+a8Ki4tHRNphe+3TQ+YAqx2W33FWuMdeNEbvVmxw1e03UlFRSadOvbjz4Zd5c3YLp5x3ET6PlwVfzKehIXsAevfphd/vl0X4vF5hFmYP9f+TZe1hAv/+FX7JpgRg7QU+8fi/A5YjvD17wUqwLdvEsjJYtpA2GJJRCRNV1y10PRth3HuT3ZFFcrJwn+2pvuB1+zAyOpbo4SewQDjohXZqT7RQvFfmMavZu2gKIe5Zi9YtlVQCDU3ROx6boNBkmfDjt9ey34H7c97ZD/L5N1GhV0fR8nB7s58jAEvc9wLW3u8swOuXgLV3Pn/+YyDN6T3aVBlp3cuwxKdn/X57mVgsFqOxtkEyQGEe9uqocfnZfbj20hPQ43G6lJUw9Z1JbK01GTs9kTtb7XC2cpPaDpMqhnzg3HKnZyeLq669irpwM8UlnRj/3FRenbGTg485C78/yLJly6jYuV2aZ126diYUCklw8Hg8GEY26idFk//P278OmHjZL01B8btgR79kagKw9oKWBA9Hy/pybGH2CM2WKU08KUoVVRZsBV030TOWVIVnW5FmqVXWGyRMVxtN6rSygCarCO9Rw4e8cN8d+zNsv64EvAE2bGxg0vtLWLMLWQo6uSe9RwwlErVFlFOMqis6bo+GljERRuak50dyzvkn8eKr33DPI9/L9zqiOI2UNLjweFz/BbD2sqyfgWuPafjLPwLiOcEuxRULAJLPiQxGKbwVDCvLRvcCltDOtTa2ZE1CYGB3H7dePlRWljVTBiWhAqa88zY7Gh0enxbJna12OFu5SW2HSRVDPnJJj+YuxZmSS6+8mGQ6gT8vn9cnf8lz76+hz+ATKC7tyJYtW1jz00rpxyoqLqRDhw7ygOw1DbOH638OWP/FTyVpyy8AbM/3/CXDEmdV+MAEDCmOAKisbEL6sGT6oYJjOlnA0nUMQS1koo4ALVF4RvxnokkekkZVFRnx0zMZSbwO6A0vPHkuHqeO/fp3l73K4s0WdW0GP6zZwurtdcz5uo6G1qysQQQYhLxTbErhXBfXJ5LDywPwzkujOWbM4Tw6/iOenLietAANt1der2BW/w5YgmmJ+/8NsPYyLcEw5Wv2+KWy8G9LEHcUITwVvjhH6toa6ptIRmNZ4a2iMmy/EHdcMYSjRnTDztjkBwqY88knNKZCO+96aWOfdtpa+/SwOcBqp+V//o5RCwJO3fFnnj0Gmwz+vCCfzF/N4y9+R6jTMHr0HcTOnTtZsfQHeUCF+rp79+7y8P1scv0iqid1BP/NLcsQfnH7Nyf7XtD6mXntjRpKp7sidVwSsEhLYagUkwqwMjxYpksmLUuwkmknewRVkhXJejCognNpIAKbwvQTlynA6qSj4P47TqNbiU1hKAhKEQj5gFCcWyatLa1UN9ZT09ZEZX0Dm7Y1sm417FwHKQekQSXkExaMHAzvv3IzpSUdufTa55n7bQMZXBi4cTCkSSjM6L0+rGzEUEgpsoD1s1n4C8f7Xp+WEJtmAWuPk36PXt9WRFFB4XRXZfRTVDytqW7ATGdk9NDtUjl4cDHXn9+bY0d0l6Jf23IxZ96XmP4e39/wxHdHtdPW2qeHzQFWOy3/24+e9WGiacP5550zBtWVIVSUzzdLt3PvE3Mhrz/99x/Glm07WLV8adaBbUPv3j2lH0uwIPmXXTy49/Z/ASxhFv0S4PZGBfcClQzj/8J39TOzEOJSGboTjMnCdkSN+Gwaj2WqWLobW1Q5EDWw9CSGGZfg8HNtqr2m3F4DUbieRBQQuPaS3lx23gBK8yN0LhLCB+HM6kB1RT3LViyld58eDD3+aGhtQEjJaxsaqKqPEI+CncwnGod1FbtZvaGK8jK47orzOWjkYH5YuIarb/2I3W0i4dsvG52K6xaRPGFG7/Vh7QUsAWD/7svKstY9TnjBDaVTTjDF7B8KVSR+S01bFrCkckQUDLQ0aqtqsYWJLevAwqFDQtx33XCG9S+W8xWNmXy9ZDXF3Ue8edGdU//UTltrnx42B1jttPxzXvzz33asX3j3cccMo0NHP3khD1t3x7jt4ZnUhP38H/beA06q8mz//545U3e2sewuZalL3aV3EOyosXexxURjLIlJTDHNmJjXJMZUNRG7JiZ27AXFgqAICCi9Lyxs77PTyzlnfrmfMwOrSd6/ovjy/zjz+SDszsyZM885z+Vdrvu6Zh51Iu2dQV5d+JICCXlUVFRQVFSgNlS2+C7p2YceHwEumXnLdv16/t3zPVnAUiDW44qrUR3DUumN/W8D09AwBbRM+TRRCUYAACAASURBVDmpHHGkkZZMxhVYSTQl4g8qwpIyuQxYZ+pWMmP46xumcNjUEkb0d2JGWpVJhhyzV/kg8JXQWNvJwoWv8rUrvir0cxQLVQpGDgfxeIR4VxfB7i7auruVwkIs1qWiJ1Eyfe2dBm77WzcBdBIyvS04mBkzFIAXgMoW3+Xfdh1LztnmaGXBex9o7Yu49gOWqv5rGcByGHaNK60TCafUOJXMNQpgSTR56rFD+MU3Z1Cen8RFITW1XazeVs+oKSf+5Njzf/3bg3RrfaEPmwOsg3T5F/3tZ9/cvPrlv86ZPpwJ4wfQFW4iZPi57Jr72dXqYs7c02nrDKtOoSgRyKOkpITy8lL1b4muZKP1TOXUEx8BLFVW+l8eWcDbV9/KXPF9hXf5bNGREpZ7Kq2ASp4z1AhOQrHho9GkDVTSMOtRUhPjVpHbynfCmFEObrrhcor8e/G722nYuQFdamJGmuKSMnSPl9J+QykqrkR3iJ6VRe32bQwZkZE9Fyan04Jwu90WFBJWSz3BUDstHQH21Id4+pUgTy6GmIZyulbRngJPO2r6KGjZKaFdh+pZhM9ytLLvUT2/tDQRMua1oiQmX0wz0IRwmtbpDiQIdAZUnU+qWgJYZx4/kBu+MYNSbxy3q5xN29tZ8n4tR55+2RWzT7r23oN0a32hD5sDrIN0+d9feOf5i569/9HqYYWcevbhdLRsRff35byv3sbK9XDyvHPpjqZ4+bkXFGDJJpK0ZsCAARnSox11/X/RGrKA9FHOVhag9gHWRyIrBVgysiMaUyYYKZ2UoSmwMtMpDCukuFgyby01IqelK5Z71hNCzk0E/Ipd8L2r+nPkYeMZWJ6HZgTYsn4lusMkGbOt4YU8KulnUa9y+g+totfQMUpn+IH77qO3V+P0M06B/BJ70tnphliI9voarFSQZCpC3EjRFkry7gftvPZOghUb06rGJSMzKVuUYd8jC1qylhJVyR97HUXBwS7EZ2ta6gk1QWATXhUTXh3MIO0QNw3haghDy017S5BwOKyaDAJYQoCdd8pQbrh6Jnqshf79xvHsq6vZUBdn3uU/Oqpq+nlLDtKt9YU+bA6wDtLlD2xdMvQPv/72rkFlJl//xllEQrvQveVc9s37eP7NIGdcfB5xU+fpJx5XKWH2//b9+vXD7xffZZt+8N8Aq2fk1bMuJV+nJ7N938+ZK519TtXHBCg1qVmJuqhDDT+baWG5J1TNSgBKGOkygiM1GwErr6RYDujTFy7/6lSOnDwYX7qTqpEVkAiy8vU31eBxNGkPScuAcyQGxcXSJPRSVN6fwSOm4Ko+krUvLOSDZS+T79E4d94FtqWyt7fiYe3dsJKli5fi84C3wElnzKCly0V7sIL7n6hVXUSbqfUhvNoH8tmaVjYVzKaGWcDKRquazBSJPphU30RTjLQaxRFVDHUNFIg5aWnsIpVKqoFnia4K8uErZ4/lu5eMJ9G+hyGDp3HXQ6+wJ1LEj35+V69eQycFDtKt9YU+bA6wDuLl//5549NDyhNcc/UZRBN7lXvOz3/zMk+9sofJR5+II68XLz39NEnVebIjAOFiCb1BIiN79u9/pzVk6zL/rX4lm79n0f1DgKZYm5qqXRmi1iAFZ2F0mwaGkD9TQj8XBQRLFdN11ZuD66+fztRpvehb7qV3YR+KnF4cUnHvbqNhy1oa67fj8kA8lSYUtbM2f6GNeHnFRYyZcBQeXzWOor7cf9uvsJIdDB9SztFHHwf+fpjBKHpemsCOrbzw3Bv48pw0hw26oxp5haN46a2trKqFiOgSSskpM0vZE8SzdSv5vnakZXcNs9GV+lvY77oAlI7DEq0xp53ySmtSS6iiu0qRTZ22ZiGtCwsthdsB/fvB5RfM4MvHV6DFOigpqua+x95ic6eX+U98kNtXB2lf5Rb2IC2sHPb78yaHh5TF/FdcdgIGTViuIv5y9yoefm4dBQPHMWDYON569VU62tr38a+kaDxw4EB1VrIBMyNxHzrLj9a1/htYKTBTXCu7LtWTMGq/R1OgJIx2mZdTLjqmTRA14pYSKpWYQ4ibslHFkuz5p76Lw1FLdZVfCeV53AMw4hpOIW7pCZItW2lv2UMo0Ep3dzcpw43mcNAdiePxQ5+B5YwcMwsYhmvIOMK7tnDP/N9T4k5z8snH0KtiFE5fPkQ6VKS15LmXaOsIEEhYRBIiOljA9oYU/3i9XZFObea9sNn3z0tmU+ksmNvF+P2Fd/m9Ai+nhuUQgq6Ow/R9CLDSDhkAshQXLZEwCQWEWy8D0CkVaY4d4+Gqi47gxMl5uJNBCgtHc/ejS2mkYtMtdy8aexBvqy/0oXOAdRAv/5++e/piLbb1qIvPO4yCkihpVzHPvdzMLXe+TMTdl0kzj+KDFe+xY9v2DDjZYyT9+/fH6/X+G2D9WwFeDRTbta7/FocJ6fGjXcSe4CWjNwJYhqhrCkEyZZtPiEaUFLdctm+NirAeefDLjBlaRG9RYvBY4CuCZAF480jFO9HdYZLJJoxIG/n+AoI1tSS6o3S2tVLf0oWUiXr3L6TPwCr6D5oCjhL5Bff98ud4E+30H9CLo88+F0tmAsXXPhoi2NrMm2++SVN7QnkKWmE/IauEe16soyVh18Z6Ujv2q1Z8uK6lFBxUhCUNyQxHS8QZRJFVBP4sURl14lD8Momw/mUnLX+ndcKhJKmEgJWl2F+yaWYf1purLzmKmUOSaOFOioqquPeJ5XiHHv3o1T/964UH8bb6Qh86B1gH8fI/d8eP/1C74dnvn3z8aPoOFvHxYrbWePjOT+6hxSxm0vRjqNm2nQ/WvK+AKluzKi0tpbi4WEU72Qjro8TP7GnLBVSRRI/v8SGA+kjtqme0pYDLsJUZDOFgpdMkDZOkBBeGdM2EmmmQ75bC+jAuOOMIhvQpxSFFLFe+LRfqKVcEUrwJYvEm0LrQzRAOMa1wOEnW1VOzfQuhaDdBKeD7NUaMmURp36F4igeDfxDbly1n3dIXMNJRJs8V38ZxGRMKTXUNFy1aRGNLmEgIzKibtLucpVuaeWO1QUx8AhVg28V1m5Lw3xE8C1bK/kw3cXgEwTQ006MkliWzlafSjrhiuovLR3e3+D3b9S2nZqia3onHlnLNJccyvDRCqrsTB2W89PYuSqpPv+mib/3q5wfxtvpCHzoHWAfx8i99/C9XbV56x51TJvZi8pwJyhV4Ty18/2f38Nr7Mc768gXs3lnDypXv2fpSTgemYeHxuhk6dCiJRKJH0f3DM4P7ACsrh9BjDKcnYGVJqNnXK+UFw54TtOkLMo6jYRkaSSNF0kiQNkUZyqsAK60lKPbCiw99ickjynEXDMnoGBdAvlAwCiCVIm0GMK1uNCIKsEiFlC9htLWOLRvXEwtH1IhPd0hoDl5mzZmGt2QQ9BoPDi//+N3PSBkhisodnHz6KXj9pUrXnVSQD95dzvotLYjxdElZBYOHVfPue2tZ/F4bS9bbM4mmigEFfBI2g3XfQHUP8FJkVzVerZoISpPVpyvnId104rTEyFXW2ZaONqXGZXkQWR2ljZW5BHkOOPfoPH74jbPwEqJfWSmrV6zjg51hpp72w3Nnn3TZgoN4W32hD50DrIN4+Xcsf2HyM3ddtWb86AJOuOh0gh1hAu0ufnjD3SxaF2PG0cepOtIbb7yBIXZTGcCSHVVR0V+BVXZUxy4s73/si7g+QsTax7fqIavQszMogKWoC5mi/r6fU4I7EmnZhqs6kiIl0B0pvnfNeC4+vozqUf0hUgDucugzGAyxXy62qeBW2HZetsRoNQLJTjA6SAWb2L1tM+3NncRjKULBJOJpMWSYl+pJsygeOAX6DOHth/7Glk2rVddvytQBVI0eR75Y8CRCvL3wNZpaErR0mJx14XmUlpex8IWnWbuljXueMehMSWHfo/wMFWApVdUMPysTeu4jzCrAUnRbpXFlinO17AJLw2GpXqENWML/VzUymQSQ49pS0nKCZQXw5WMKufKiY9Vk5fCRI/nb3Q8qj8Wf/HHh8OIRs2sO4m31hT50DrAO8uX/6Vml6ephHi666kJSSYu25hR/nv8sj7yxl0GjplBaVs6LLyz80FlISlJeXk5BQcE+1QaV7Sg9J5uVrrIe+duy1Rj2/Zw5Us8UMgtQWZCS5+x/S4fQLroLUVTmAZXelTq8Dycx1RG7/eY5nDijF/17OSHlAXcpSU85lrccj7c/mljZiDFpKmxHVmmZnRGL5BZItBEOtNC4p4mmxnaiUegOpdRs3ogxgxk8qpp+oyfTur6OhS+8iGEFKCrWGT5iIL2L5RxMdmytY8/eOB0Bk2t/8X2wIixf8jLvb23m+aVJ3l1n2xfG0y7SUndSZAShX2ikpcuXZfhnZyAVINukBekEqhdnxpT2A1a2GmarR+AUb0d7cUcO1Ln0+P6cenQV0WiciROm8PA/n6C2Oc0vH2/M7amDuKdyi3sQF1cO/YuLhnaU5YdKLrrsLLxeN8GAySPPvMtfn1iHt2Q4EyZMZsFTzyitqZ6FqDy/T4FWdp5wPx+rpyqpMM8/PBTdk4OVrVdlo6ieQKcUGcw0yYRlu+GINExGF8qGQyc6BiVOePTeUxlaGqJyaAmhxlYK+o3AdPfF9Fagufri8hTahZ+EAFa3iqxINUCiiVS8idaGXbS3tBONGIS6TVraDVrbYWRVAcOqBzJy1AScyQHce9cDOJ0JdGeEsj4evB6JmXQs00PdngjdIYNvfvsSHM44H6x7h5XrG9nZ1ocHHmtRtSyhdKZ13ZbUkUaB7iIlEaXES6rYl00Ps8qiAlZCa5Dvq7zScGWMY7Ow53C4FeVDRViZ3TJnYilXntyfadWlxJMOyssH8dyzr9Cd6r3px/dvyHUID+KeygHWQVxcOfTfbzzj4UjXxgvPO/doPF7bAPSlNzby+weW0xT0MnP2Mby26A3a29tVtJN9SNDUp0+5mqP7aPS0P9r69xTxwwJ9oqJg16t6RlzZOpZ8nlAY1NCzmm/JTP7I3hWr+DT0tmDJ0xdTmt9MqLOG9pYGxk8+HE/5OBJ6X/D1w+Upw6H/S/hKQDfRqaKrdHIP6WQje3atYm9NjaJICLa2NEE4CqGwMN9h1NhiqkZPpPewE3jkT3cTCjcp0MrPh7x8e2YxFJbKupeurjhnnDOVioG9+WDd+6ze1EZztC9/va+ZiLD1bZvUzGiyRFl2Did0jbSqpveoZ1lZBaxMl1UAVwG2dAN7PDS3onzY1Xhbu/6kOYP4zjmDGD3QSyTpQXcW8dIrb9N74JTHL/7Zs+cf5FvqC334HGAd5Mv/zB3X/M+u9YtuOHLOCMZUVeDy6Kzd1s73bnqOd9cnOemUL7F9xy62bt1ub5jMFRFtKekU2qz3//7oGTX1rFX9p39nIy4BMVWvMqTwLse2N+M+jqp0HR1p5YrTx4J3X7yYAQNMlr/xuKrZDBhaRUX14eCrIOkoQ3eVouvFdoSYCEKiGSu1G4wmdmxZQeOeGjyiHKprBDoFGt10tCdpboGxE2B09UQGH/ZlVi54mU0bVuJwxOwyuujU6BDoFr9FG/COPGIA/nwn7V1RVm1qpcscwH2P1tMdhm6hOciYjTgJpUX4xq6824CVqUFlvq7C5wyDX2pUqv6l5jT3D3Mr+Wj1jS0bvdNpJUx45jED+e75Q+lfYuB0D2DH3i62bG9hzIxTrj38/N/cdpBvqS/04XOAdZAv/5pX75r30mN/eaxqiJNzLj6RZKiR9rCHq3/8KK++E+aIY2aTMDSWLn3n385ECu5CcbDnBDOa5BkVTAVIWQeFTF3ro93BbGSW7QhmIys7HbSZ9Nk0x9aDUv43dmaqJZQjzuwBsOC+i3GkdtNYv4lAMELanc/MY04EXx9Szj5ozjKcehnoXjAiGcCqx5HuJB5qYO+uTbg0kz69SxSfaVdNAw17u1SKN7jSx6Choxk09niadjTwyktPo2kx0sLCl4Fr3TaSiASg0AdTJ5cQjYVJGYVs3hMhoA3gwSd20NQGcTFiVcoRtj+hoUrnGanjHildz4K8cMwElCSdVFFUplAltfgsYNkOO8LJSiNqORecOIIrz+iLy+qgauxxPPDwK+xtTfCVK68/onLO198+yLfUF/rwOcA6yJc/nU5rP754nDW0d5Qrv3MeZrSB9rDOr259k9ferad3vyqKeg9QkivZR1ZNQICmrKwsM2doEx5VgKDUQTNpXtaWqscM4X+qY6nxm8yffTpb2dxHWXbJ1pV0SiIKsWBNUPQv1Zf/+cYQTj9iAH0KU2xct5pA2MRwujhi7lx8JRWYrr5YjjJcrr7gLgQRAYx3YBrNOAiBITWtEA4zBuImHQmyYd1G2ltkGlBGdnQGDB7JwMqZ4PDzjwfvJxEPqtwtKc1HcdlxQ7QLvE6YOsGP06mza3eQ1rCfVrMvdz9SQ1cU5Tco40C24nq2aGVbnqkI60MpoU1tcKrv67ClCVXH0O4wCj6J6Iwy99JFSlmGoWF4uc6lZ07kohNK6G7fxejxJzH/gRfY025x65N7c/vpIO+n3AIf5AWWw3/vwqmhwUVd+VdddjxpZ4C2kMWSlWFuu3cRYbOYoaMn8fJLi9T4iNSUeuo25efnqzqWRFtqhEaRSe05ODvKsiVoPjoonS20i65Wz+L7h76u3XRUQYUzLcZcTgVVaZL4NUPZtL/13MkMKOgk1dZM495mGtqTtAZMZs4ezdDR43EVDkTz9AOtDDzFyowwFWhFd0UxpACfSuBKx9D0OETawQxiRbpZvmwFPq8TTTcp7t2fQSMOQ6+o5vHf/4lwpJt0OqaiJeGwiuBCtNPWiT/lhCreW7kFhwtao172RPpyz2O1ylFarO6VtWBmItq+uTNdPjXQbEdNdjpoi/CJ+81+wNpfWJeXZwHLIXQTK6nefvj4Ai47cwpTKsPo6SjlFTP4x1PLiLr6bb7+tiVjPofb6Qv9ETnA+hwu/+03fPVZ2pef/pULj8BfkiKacrJsZQe/vfUZVmyBw487ivXrNtIqrbPMQ8ZIBHRkDk7GdLJ8LCmQ7wOsjIlqz1GbbHSVBSxlyprR1+r5Ve05Q7sf6PF40WKq7C5KUPhcKcQR/vrvjeWEOfkMLTOJNzSxt7aJXQ0mCQt6l3qZefjRFFeMwtJ7ofsHg6Mg4z8vKJgkGQ/hdugkQ53oZhBdCwEBUp11Qllnx7aNig6huwsp6zeBkiHj2LpyIyuWvasALpyIibu8AiAz5qbI6+ZrXz+bR//2d5Km2Nr7WFXr56nX2hVgJeTFQj/oycHK8qj20RcEsKQgvx+wpH6lVilb5+oRYdm1rTSaw1RyOoeNge9eegwDewUoLvCRSvfnxbe2UjR09m8v/d5dP/kcbqcv9EfkAOtzuPxvPHnbtzYtvvf2KeOLOOz4qcSiCerrLMV4f3MtHHHCXFpaWnn//fWKOyR0A/th52wilSImC/bDlpzZH4XZUso9OVZZAPuQxPJ/+p7ZspUptvOSHNk1HIk8qobA4w/No7ttExMq+9G5t4Ydm3exow4FFgV5cMJJp1I8tAor7cdROADSPmIpB76iXiK6rJRMU9G4ql8h7HezC4K1QBdvv/YcWEEs01IS0QmjkKOOOROnXsq9d91PyogSN5N48qA7CHl6Eccefhjjpg3imYfvIRRJ0xbTWbgG3llvYjpcqCarUwZ1epBGrQzxM9NYyCqlCmXDDjCF6SXFetslOhtxKlNoVddyYQrHDOjtg2Mnwk++fTLOVCtDBw3l3VV7WLW5m+MuuG7e9OO+9sTncDt9oT8iB1ifw+Vv2f525X2/+mpNWXGQr3/7ywRDQYyoj5/cdD+vr41SXDFOAdCaNetVdCBSKBIYZXXdbXOF/eTQrOSM3SG0AatnwV3t154Ggv/tO2bKPC5R5kyllSqD7HlJvV5/6TTi3VuYOXkWDjPO+0tfobszSDSB6u4V5+vMPvJY+g6vwnD40Jwl6Hm9MTQfzrwiYvEUTt2Ny+0hHQmiiVxLuBnNbAOrAxD6QzcbVi+nvTWIiZPhw6Yw5KizeOJ3txMIdqtCdzQWw+vxEeo0ueDcsxg0Mp/lbz3Ppo2txBweHnkjwdoaiedEBEdmbOxaUxaf5G/FVM8qtWZqflnAkhlEO4PMpIOZHZF9uaa7sKyUahKK5NeZR/m55KzDiIe6GDNmCn976BW21Bv88M6X8/v2nSBDh7nHQVyBHGAdxMXteejrzx+U7lcS5StXXqCE8+KBGA89+TaPvNHInnYHVaPH8M47K9Vb9gGWJq7MtoRcNrqyE7cej//Acpdn/xP7/T9+VYmy0hJhSaxhiYQeP/jWKL50bCGD+xVS2quatoYWdtcsZ+qkajo7gqxbu5ndO7upqq7ksGOOQ+vVByMihbACdG8xuPNJpuxIUPwNfSLPKZ9jhiHWqpjwnU2b6GyrZXh1NS3btrF9x1ZM08W06V+iI5Bg0aKlxONx1SGUVmGkO8VRR81g8vQKtm37gNode9nZqPH8ihTLN0NC5pRFV0KUQtVn9ZRztm3nbSCzw0qBNztelQhMnsqQSzOLlKV4CNiJg7XU82ZNcPPVU/syprKAtOGncvhkHnnsJXa36fzxqdrcXvoc9lJukT+HRZaPuPunRz9hRrefe/b5Z5Dvd5MKdLBqXRO/vPc9Vmzq5oQTjmX5uysJBMI93JX/88BzTwmV/13e79+/3L8BmZAhJScz08qea3AZ/POBC+nla2ewzDM6B7B3xy4GDM7H4Uyq1v47ry5kx7ZW5R8xdtxYxk2ZjsdfDHoeaHlqEFlzee20NWX7FZqRmNKFR2YNtSBGsoWN61bS3tisgDLfbxu2dkcdnHjxVcy/+XY8bi9mIk5IeFgOjWEj+lI5Ko94rJtk2MnaLUGW1eg8+0ZIdflSqsAuuZw4J8rYknx/SXRt95sPA5a9NjYnPq0AK4Nz6vf7SfFSxTfxpOGEmT6uuXgQvX1xinqNI5H08/bba6Fw2LNX3fzymZ/TrfSF/pgcYH1Ol3/d89d/442X77tj2pwpTJ8yFnesm+17wnzrt6/xxupWpk2bSHNTK3v22Nb1trr4/jHdbIRlR1v7GfHSsv9EEdVHdOKzciupZFLxrv568wwmjixi4ugpaAWlypDPioZEUAGKvFi124mEWnn9rYVqvKbAB+PGj2PsxCloRaVgeW0ylO4CI4mRjOH0+zK/U/bLYARZuvhpfD4d3dAZNrg/hX6LcDTEuk07CUbEBMJLc1MQYTgI6VQkb/KK7JlrVfPqgLBRzsZWH/Mf3qMASyIse8DINmS1pwjtv5UIg/1DRrEhk2KrxTPRVSRrq9pkHyrhdnuwUgl6ueH0Y8q48pwSCj1JBgw9lsWLN7G7tonjzrrqirEn/ThnOvE57KUcYH0OiywfEd32RMUff/ud+sICnW9f+zUItVLbGOXPj2zghTe34fYW4M8v5v31W3HqIjMjLfespkAGlsRSS3SZlGidTYnMRlgfOwX8yPeV8RWJQeRGKHTDogVnUj2oBJ93NLiLwBlTPCpVxHHKhHFYaVQlUkL8DJFKuIiFYwwa3B93nkCeCP85M4BlEu1spaW1STUOkimTol69Wbb8HQYO7a9SRafpYPO6Ncw9Zjqa2Go5dVauWkMaF40NYWWg0yH2hT6FM8jYonyERDzBqJ+AcyC/vWOroj+IFqjiU4kgX4ZMmx3OUSlhJv2108KM+oXK/awPAdZ+ZQc7QpP0cXJVEacd3Y+TZljkOZNUjjyV+fe9RGuXxW/+8lhfrc/Mls/pVvpCf0wOsD7Hy3/dRZWBAf5o0be/fQkpM0hzwOCNlR3cfs8L7K41qJ48juXvb1BtfN1yqfFjJVsscYPsL7laRnazZQWf/rMj9Mf5WgJWwkPyaCKPDD/69hQuPX0Ugwf2BWMw+AogWUsq1oLmkxqXCPfZg85mNI5eWEoqouFyCh1d9K/asWJd1GzdzOD+g3F7/DTvraetrQnNYxJNRVWtqXLEWCpGTLFBLRYmXFeDlk7S1t6gzB/yC3zsqtlBd0eUzlb1EjV76CtwkEhbuMQlTGatLVGZH8DDz+1hVwt0S4Fd1kncswXBhFumfpGyBfls/LEfRsZhW2pelnw3+dnEyBJMVSXeVnVwYzFrks5l8yYxsl8XPs1i8MBjePCJlbRZA3b/6u5XKj/Oeude8+lXIAdYn34NP/YRHv7j5X9NNq745tRx/Rg6bhgOfzFvLtnJLbcvYN1mGDttHOu3bSMcSeI0nGoTGaTUiIkS1JSrlcr+47MBLK/DS9qK4nLC/X89jZOmD8RfVACeoSA8qNAmusN1GCQpLSnDClo4i/opeeREQsNT3NeOusxOSHdDsosNK5ehpzSq5xyltLI2LHmTYDyAw+umT//BVE4+TI31NG3cTLSzjr27dlJb28aFF55FKhlhw7pVpFIhZk2fRWtTkIa6diLRFLX1LYRjdnYpsu+G7iKcKOephQ1sawTLrRHLdkc1T0aKVPSvpKAuOln7i1MOeV7YWJZtReZUNl8ZwFLFLCU7qqi08sxpc3WuuGgWRa4u+pWU0tKk89bqdnqNPfu2r3zzF9d+7Jsg98JPtQI5wPpUy/fJ3vz+K3eevXjB7xeMHlrISZecQ7Ctk5217fzpzqd5a1WYon7DiSWi1NU1qs0mM3EpknbBeF868/GkgD/OmdnpoAOf01Bp5mvPXs7kISW4pKvnLIBEF6S2U1OzBm+Bn97F5XTWd+AvKKVoYKU9OyiDduLgbMVo2rWNPI+TjWs/YFz1GAr79SXcUk8ylea9VRtUUX7SlDn0mToDCZ22b1qNEW8hHIywamUns2fNoLCwkDcXv6a+c2GBXfIaNmQQo0YPo7GlmZRhsW79NnbViNwyGHnV3HbvZgViYhNhp4R21OlwuJRHrUOIn7pQYu3ITCgjTt2HkbIdnm3uWSZ5zEZgMhME5LkthldYTBmR5vILppLnSjNxkteyFgAAIABJREFU3FTm3/EoEQZw1tW3zhk+6fhlH2e9c6/59CuQA6xPv4af6Ag3nDcwPaDc4oofXUu0rZm2ji4ee34Fjy5qpLYlxdChg1i3doudoNiS4vYjy95WodZHhec+0Sl86MUu3YlmGUwbDzffcB6Hjx0C+S4IdGIkAzjMNnbv3sDgyqG0trYSaAqg6R569x1Aed8+NjiYJoH2FuWS09EeIBAIMnXaNMKRIIaRYsCgYfzzoVeUicS8eedTMH48tO1l69q32bljE3W7ob1NrLO8jBk7iXdXLlff3e2BPKnhJ8UVW1RYS5gwYQIOh5PtW3bR3GGyekeQu/7eieg7aE43IcNQ3K9kKqa6rVJ2U25mdoZnO1gb4NY9JBXT1Ob324J+GUkyJepup4jC15o1zsnXTh/A9LFlRGMaQwaP4YmnXmFXs8Yfn8oJ9h343ffJ35kDrE++Zp/qHfN/OPeFZGDrKV/5yjz8eRCLdrH0g73c8uBalq1rZ9L4ajat36xMSNW4iC0+roZx7SjAZmUrcYUeQHagJyV7U7bmnInw11suo9zbQe8S2bAJtm/ZyoBefdQYi6/Aw5rVK0nFUrg9PmWRVVTsx2GmFKNdBpXrG9pJyEnrXroCcTSnzD9qnH/Nd9i27D1eeG4Jp518FCOnTYVknD2b1/H+qmV0d1sYaYhEUG45KUP8DNUXVhFSvrAl0jB+bCVzzz5ZKULUbV5LPB4lloTl61v45a1dylzV4fPRHUuoQrmU1jyaTtww0RxuEpbYz9tRlkN4WirlFhEau+lgL6f8DyFjG6vF1E9nze3FVaf1o9RvEIjmU9qviiXvfICreMRTl//iuXMOdO1z7/vkK5ADrE++Zp/qHR+8+Mdz33rp/iemThrKnCMmk441s2lPN9ffvpS317ZSXlJBMBimua3LBqUMi0FXhWFbmyn1WQFWpqbjc8Dk4XDX784k2LSGqpFl7Ni1mXQqzeSRU3H5itm5dR21tXUqQnG7pXtp4vPoSkJZBradnjwiSUsBTVN7Co8vn0DIYOSosRxz/oXQ1sCCJx/FSkY578sXgbeQcM0udm7dRO2eGsLRmAJoYdJrDidxsTnUXYqBHgmmVCBX1rsXs2eNI89rUtZbx+UyCIp5a7tFbVdfvv6DZQjVXJqURoY4muVTWQ5dRW0KqWzUV11YpZXV44oKiCnQUkTTBJX9YNZonZ9eNgWnEWDAsCNZ9M5mtuzqZO7pl146/eQf/u1T3RC5N3+iFcgB1idars/mxTdeOiZdVhDnGz+8HDp309SZYP6C9by4eCd19QnK+g5k6w4p0mRLLA6cmY7VZwpYGcFAMVU4cTZcft4kCrU4TXt3kEobFOa7mTC8Wpmtrl69Xs0QqikXDdxOjfw8Hy63RiQeE8ISgXAcQ3MRiEBTc4pLvnoVg6bOgvbmf2lWBEkk23nowbuZMmkCk2cfD14/4a0bqN21hbauRrpDAay0i3BEtLq8BCNRxXR3aE6SERfR7hgV/fPxuOOUlToZPLA3fcqLMHHTlcxj426TK7+7cp+NvWR1oh2fVwAhUayRh8NOqRUgCaFL5Gj2tQ+lK2hz4JU2vGZwxAQPXz51DNOGpPA6kowafzy3SVe3w8ltT+7M7Z/PZkt87KPkFvxjL9Vn98K7rj/71XDHquMvvfA4imW4N26yZF0rd/5jCUtWRBgxdiybdmxU6ZA9jywdw+xcriho9mBuZ2pbB3J2cvEl+RFH51tvHMnE4V48pskHqzapWnp5mZdCn4d4JEZ30CCesFRRW57zOzVcbieGlcLllZqRSTRpEAij/sy74GIqJ8ywQx2HgRFuRNMiLH/3TVa9t4PDZ01m6uTp0KsADOF6dZFobyYciilFUk3zKWPTV994hXjMJBnzEo/EldJC/34uzGRKFeX7lPkYMLg/vuIS9rYYJMxhPP7MCtZuraexE/oOLsCR14s339qr6FcyMWnzRqRAuF/ZIduGlbTbZsanEPvFU2bCNy48nDJPALcOgyuncf+jb+GpOOyxq2/45wUHsu659xz4CuQA68DX7oDf+eYTv7ti/bIH7p42oQ+HzZqOmUiys6Gdn938MCs2gbtXJa3hNsKdIoAnbCyb924TRe0BZXugV04hY2l1AGdjC9ihjCaeuOdYqgam2bN9O7t31hON2+5dwnCQordyovd4CEh9SBezBlvfXBRBnS6XMrEQG0HxDuzTr5x5370OOtshHVXCeGYsrLTj3166lA0b6hCZ9EGDfFSU92f4sGH07lMKfo/qOEYaGti+bRd76+vQXS6iMYNAhzj9oCzCqkZ5CXWJi42BPx8lpVzcO4+BgyvxufvgdBQQ6I4St/w0hJ3M/+ebvLKig2DS5rA5HDpO08StOYiJEoMI9Ik0TUZvVXcI3yvJ8EFw3Di49NyZeDQYMWwkSxavYmNtnKPO//kF0+Ze+tgBLHvuLZ9iBXKA9SkW79O89UcX9U8P7gNXf+9arI5mWlrr+OfTy3jqrTAf7ApT1LeU9hbR/RXAktqV7f6SfexzOs5IwhzIucgWLXBA1QC4/aZjmTKhkDVvLybQEWZvnYFp2VIyYhpR2supIihhmwtgOS07LbScLqx02nbdSUNXJ3z98rMo6e1Hd8tAtCiNpkhFTQLBOG8vXkFtXRTx1hB+p9sF+T4/aeEamAkVxUhko2a6NZtzFZMWIB4CgQTidTF50gC2rGtS4FVYWoKRlvnEMEV+Nw4xotVlzTy0hzUaggX8/sE6uiRCzS8gHo0oomieamAYJJTmu8oVcTs9pI2kWmv57NmTfXzt5DImDC8mEnMzevRkFjzyLA3dPn752J7c3jmQm+5Tvie36J9yAQ/07bf8YM5CZ6L+Sxeeeya9/CKiF2HVmt1c94e3WLktRemgPtTXtuA0PGprpdSUXE9We4apneERHch5iDKDGNP89JvT+NIsP2Oml7PqlSdUKtrW5KOpNUVX1MCTn4cjLdGdAJaFKXI2cRC6lnQFXV43qbgMRkO+F86bdxLFfdyEWndgmBFcLg9edxlbttSxatUexbHy+10kkhbRqIXT6SbPBX4veNxJdLHeUgVyTaVxkWiaYMip7MGqx0OvoiJqtwfZsC3Nk4vhiGN6M3p4MQW+FCV+N6KyGotpNHQkeeDxJqIaRIV/JcsnXUKnRjohkO/E0tOYYuOVkbfPzhH43DBnkoNrzhtIZX8/nqJqWtssNqzehpk3aMEVtyw890DWPPeeT7cCOcD6dOt3wO9e8/qt8159+t7HBvbJ5+LLzibdvJHuuIPv/uYF3ljTgbOgjPr6LtIJ+xKpbtY+TSf5jQCWDWU9h6E/yQkJg1sYDE/97Tz85laqh+exbu0KNFNj725oaoeInk9LR4iB/YpIJsMkDVNFQH63m0goiTffRTicUs03rxsqh5YxY9oI+lY42VuzFk0ziUQSeJy96Q6nWbe2VRXSJ02eTmNzK4HuiOJrefQ0hT4dtzOu0l+J7uSFYXGW0HWaWmyr+OpxHtwujc5mB/Vtfm5+oE0V2dVEjg59y6G11S6dibmqjAJJ3U1mFC3lL2jX3YXgbncQRT5G6BM2tUFW1OeEIf3g5CP7cN7cErzOFAMq5/Lok+8QDGh8+es3HNXvsPOWfJK1zr32s1mBHGB9Nut4QEe59vzq9KAyi2uvOpd0rJHucIqXlu3hoWfeY8maGH0H9adhj3TYxIaqh8BcD8UBlb58KPL6+KciAgwnzoLrrpyN16qhvFCjo7mDaFhjwwcij+ClAy8xsQULhynwiQSMqp7h1b2YqaTCzWTSwiN1Ic3i8Nnj6GzfQfWYMoLdTYq1WVBQRCAQp70jxtatFsNH9eaES77Fe88/T3eknbr6vQpwCvNsZQYRKzRMF5bDQcyK0xUUVRsniaTBxKluzGSSpt0QTeVTFy3lr/+oVaODAkxCvpeoT2rq0ujze4sJxm33HKdPBCRs8wtJaeWXsnqaw9Ydc7k0aQzistJMr4arL5lE9RALMx5n4JCjeezpleyoS/DnZzbn9s3Hv80+01fmFv4zXc5PdrCH/vCtPzRuf/X7Jx47hvFjhpKIJ6hri/Pjmx5gyQdpLG8+nV32Btv32Dc6Is4wGc+8AwUsccX5diXTRut4zFZ8jiRdrTGiQeUdQTqvgr0xD3ua28nTI7iEQKBJNKJhxNL4fB7CyQQ+nzAARPsqzaknzWbtumUMHOBVZqguXVO0hHA0SX1DQtWjhgwbwJwjTlLF7sWLnmbXrjYkBSspduHURYfCSTCSJhK3iFsm4ZhFIqFTUVHIqNEpkvEwzTuhK+KmWx/IH++vIQqEZKBZl4gskzpbOprhw+vMJ0UcQwQEBZGEAa/swOz41KWUJOyUVoCzX4FoX8GFp43D740xZNAwmhp13lqxl0ETTrn57G/89qef7ErnXv1ZrUAOsD6rlTyA40T2vt//9pvObyjyBbj6J9dhtbXQ2R3gsedXcs9jm9lcJ1rlmQNny1cZVRS7LpwFrAP4cKEzaPDnn1UzuDhEvLMdRzJGNAReD/TvW0JzwMPyXQ4eerKBb11eTnd7K34XFHg9pMUCXrNw+pzE40mMhBThYfiQQVRVDWb1qrcZPqKUWLwLt8eJ7nCzanWIPD+MrhqoDGLHT57AxtXvsmGt3TX0ee1YUXc7iCXcxFIeQnE3sbiT7VubuPDCOTi97+PRYzRuTRNO9KKNMv5w33ZChoCPG8vjxDRs+oMU7nW8mKZEWPJz2iajSpFO/oiNmMo8dUzxeFSAZXD0tHIunJvHhFF+HE4vY6qm8MiDz1PTpPE/d75eoJWP+cj/RQ5s/XPv+uQrkAOsT75mn+k7fn3V+NVOo2HKd791DaYUqPUINfVRrvnZUyxdGyZTwtqf9WXZ7z2V5j5yRvZFzYBZzyu83zdVpUgCWPfdPBF3dBepQAIjkqCoEAYMKiQS06lt83DbI83Ut8D0MTB7qg+Xlsatp0nFEni9DmJJC6cbjJSogjoJhQyOOnI8DU07KC524veZaoQmEYe6BpAyUkWFm7x8Dz6viwKPkw3rWtXMn88v6aeQTx0EwjqBiJdQvDfPPFdLJAXnnFjMOWeXoCUbad+doqnNTZPZh/n/rCUi84ION3HLTp11r46ZSGUsveyZQgGruMwAqSFocb22ZZxF/16e08WEImVy8pxeXHl6bwb304mlihk4ZAKPPfIi7t7Vi6787esnfKY3QO5gn2gFcoD1iZbrs3/xey/9+rwlrz78eGVFGWedeSxmfC8xM48/3P0uz762hR21ERISTSljCgsZVjZMA02KyEJM+ihYqVRH0sXM2IkrY0MvJZukjPdIyiWVLweFHovbf16NL7YbPWiRTiQYMsSBq6CArY0G63br3PGoTRGfOwmmjOuF12PgSMexYikKRKzBsrtvScPmI4h3osz3Hfel0bQ11+B1GridLnbsTKrZyQH9y9m6tVUV1SdN7KvOct3aNvx+qUFppNwOOsMmScvH2q0xFi61ZyrlRpWO5j/vnI7X2E1HY4DWTg9b23rz0LN7CMt5KCSSGMmWSVYPaTNaonthP0SsR6lfZJyuZd4xbYi4sqHaGMK9OuvYoXxpkkapH4ZWzeXBx9+i0yxk1pcu+PIRp3z/n5/9XZA74sddgRxgfdyVOoiv+9Y5g9LSOv/W1eeB0YqRdvPau4385d6XWbYmojaiFJRVR0tt3jSWTANnB+Xk3DL/ll/rmQFegSVTfPpsyhGiAaWZKVy6S6WaupHgzhtHUWjWYXZGGVBaSF5+gtawwZ5oX277RwO7muwvfsHccgaWmzgdQXxuMauwp7MloBGZZUPmYMTWyzIU+72yMk9Zzp93/tmseHMx7U0dFBeXYBlp1f0Ukumw4X68Hje1u7sIBsGV7ybu8tHSbbBxZ4Rlq6E9Klp8HlwON24rxPcv6c2Jh1fQuHMnTZ0aK3a4ee6tLrU+au4apy0xI0J8WQkGUwDLlo9Rc5j7ACtLnU3hdhgU6HDsbA/nnzSO6j4JtESCYWOO445/vMa2Tk/T/Cc29D+It0Hu0B9jBXKA9TEW6WC/5MX7fvD7bWuf+8HMqcM47PCZyk4r7czjhz//Cys3hNlaa6K73MRTstkkcrAjK0WuzBLdM1dSS9saVzY3Po25z/HYb1PXpdIjbjZpKNBS3PLj4YzuEyXPTJLnFMswg62NCZ5bHuHFZaIxZXfTLjqlL/3yo/TypjGiIVUkF4WGlDhRON2kkxa6w0UoGsXpMPG54KQvTUNsssaMq+KtZxdQXOgn0B1j994uRSUYN65I1b+2b41R5PcSiLsIpPOo69R48oVmAob9+aYmsU9KCen1c8Gjd59A7cbldEUcvLw6ypurkxlAF4zyqUK6bU2f8ShUztb2VTSywK4AzP7jdGlYRoLKvmLj5eOCU6egxbupHj2Wt5ftYHujxYgZ87459/wfzT/Y90Lu+P/7CuQA6xC4Q9KrV7t+fc+FSY8jwFVXXInbLdFTgjfe2chv57/BynXCvrZdYRxSVE4JV8me3c1wHjNjOnaqYwvzqXzINgIVoBJHG0khtQRaOqXSH/+/zEH/8otRVJYFVfQSC0awKGbjHvjlvV1IMihRi3QGZ42HY2dUYHQ0KLMKkWhRLHSRg7F0PJpHNefMlPgIOvA4TSZOrGZ3bS3nn3s6VqSL5sZa6usaqW/uVOz5w+b0or6hi8Y9UFJYQFfYQ4tRwLOLd7NVDFsRCWSNtFJYkAlDKHfC76+fSKRpEyktn+dWBli6VrkKYipFizxJ+jAFrDRbTkYV0zNNCwX1Us/KpIQ2+yqlSLDHzsznohNKmTiyF4HOGOMmzOGJBW9Q0+jgN4/W5PbKIbBXchfhELgIcgp33XjGEyTrz50ybhRTZ1RDspWWjjjfuuEfbNljsL0miSmmntLlMuM4HRZpFUDYfs37fPcUR0tAS9mKqm2eNWXHK6SpbrS0RbEOhWl4+I4Z5DtqSKU6MAwfe+o8PPtmFwvfh1hms7tEnSENZx0Pl581lmSgWRlDdETTtFhx1Z17f0kXJXlw9KxyEskIEUunoTnIBefOoWb7Bs674EJ2rF1Dw+6tbN4apHqiYKiDthaLlibo7S+gI+xlZ8DD356pVzIxAqvCSjfMpJJ/F0OK4jTc87spTBzUi4WvLWPRZpOFK5OkpOOXFlqY2MGiUmY1qp0FrEyEJYat8rDnM0XIz63Y+BX94aip+Vx26iB8WpABlZPZuSfKhk3tFPaf8ueLvnf/9w6RW+ULfRo5wDpELn/b1kX9b7vl2oYSf5LvXn8VsfrN+ErKee6Vzdwy/3k27pBajvCFbHkGp9PoAVhiFJohlmZSOLUpVZlLrNhddt1GJpbNuGKE+5JwxTn9+MYF4+hufQ9ND6sI5721Tm59qJsOmeOTzp2m47RMCn3w9/mnoncsJ09L0tCgEUh4aTHSvPJaK/U1cPNPJ+PXO2lpbSVo9uYv99VxynFwxJxKzjr7RBkHZNULj7NrVzsDhksjwceOHTEiISjrVUR70MPy7TGeWxJSgCWNAcXwzJA8RQg1LwWLHjuFCdVDuOtP97K+qxf/eKGZuHw1CSQzbjimJqNEtnSMzWC30z/bh9CuA2Zk+nBjMGOym/NPG8OUERYOK8KoMUfw4MOL2dWo8/vbXyzUykaHDpFb5Qt9GjnAOoQu/903feUZQhvOOOqw4Ywc3pdIIomlF/H17/2O97an2d0gJ2tHCC7dUNyl/2a1rtIgFXE4VE3HdIm2ij08LRFTmQYL7j2DWRP7sH3Nq0QSTdS2aKzaUsI9CxrpyMzy6YaGF4vjD4df/+hLBHa8SyIcpK4dAik/9V35PPJoCzNHwY0/OZX6urXsbWino7uM+x7dq8pE1/90Kpd+ZRY7P3gdt2UQj4Tp6AyQMDU2bYtSVKQTi5ho3r4sXhfmuaVhLA/Esu3BDMPT74TLzirknGOqcIW6WbepjjbHUP744EbiArCKS5VW6aoS6xNgUjU9iads2Ss7JRQgk7jTUqlxZT8Xc6fncc4pE0gbLVQOG0x7W4Jla1rQiqcv+ObPH8rNDR4i+yQHWIfIhZDT2LX2lemP/PU7K4s8XVzzq+ux6neRtExeX76D39z9Nu9tjNrjJJlgyq5TiW+yPDLtetmtmUq81G2yGoDKHUwmjKOSwMFXTnZxxbyZTJ1exd4171DfsIemgJ8FS5I883aAxD4XLA3/vyxdf/n9/kwaBoVGlFgswd6wg4YuN++t6uK9lfD4XceTCO0hbnTR1JaksaWUux/eqbTWLzpvML/9xfGsXvoYjbtCjBxaTmtTJ+2dBnEp3Evty4BIupC1u928tKSdkDQT3HbUZNubQYETrrmwjGOnVNC8YxvRhIdufQC/uXOjisiSCn5S6E77fVLj00xxzbFVrkRb1MzaeGXqWiIbM2ecl6+cVkn18EKlRjFpyixuv+1BuuK9+cXvns8RRQ+hPZIDrEPoYsip/PyyKSsGl6dnTBw3iMmTR5BKBmiPuvjBzc+yYm0Le+tNpT+33/dLZGeyDsfCVZDn7NahBBKSBSqZFpsPga558RlxfntdJQN6tdE730E8HMPv7su67SnmP9vEjgAqxZKH1LsLLFhwx1QKtTpEKKsjZLCz2897m1pZ+hp8++vlHD61D6lEM8FwiJ11cVKO8fzlnvV0p2DqRBf3/eUUdm5cyOo34owcDBV9+1Ff346Bm3AihcuXT2fUz9Ov1bF+FwroUpob05EUYXY1xZxnwugyuO9Pc9m5YQ3dYZOOWDG3PriXANJRzEdziKqFbemllBdMiTHtEE0J9EirUdHbQU/BxGEwc3QBZ88dTFmxk959K6lvjvHBunrwjXjqyl8/ndNsP4T2SA6wDqGLIadSt/rZcXf++br1A8rg6l9eS2rvJmKmi0Ur6vnT/KfZuEW0pyQqcan6lEVsv9uL0iLP2FzJaEraHiYWmWBRLhAxKd1wkE+M+28ejxlZr6SDq0aU07TXyaa9Orc+UUdIB3+BCN2ZxDrh59+ZwfGTnBBuIBgweG9jA4s3pPlgE/z6upFMGl1ONLiNtrY2gmJ6arhpDA7hvoe3ExMRQD/8+HuVVA11o4USaLE0RsJBVyBCOGbiyS+mOxZj6aoG3l0D3XK+eNRAs+VKkzaTCmT6+GDcv5hQN143jkBrPfVNATpjhdz1UDftFkSFWqragQJ3tlWOMy1leKlSRRRIJbL6MVLA98CRk+D8k8YyZrCXeLibaTOO564HX6Sh3c9Ntz2dq10dYvsjB1iH2AWR07nzxguetoJbzpw5ZQiTpo4nYaboiiW5/sY7WPFBnN31ku64lQuy5EqZ0k2PqEuOklYGorI/nW4nTncB0XCUPHT8RFkw/3AS4TV4PG7iSR81tR7ue6yW2ig480oId3SS54DTTy3kq/OOYfaMUTRs281Tz7zP7ffuJOGG2TPhh5fNJt6xDa/bSUNTM90R2Nul8+eHTDWQrNQQgCkTdaZNHMzg4gKSwYDSwkoaaXx5hSTSabbu3sXitxNEFFgJPcGDIcx33cIyJdmzKJC1uamSIWUhgt0dhCIWbeECXl8eYuFyCAvhQplH2JI74ppDyoVL8enjKvq0SaV2dFU9CE6e7eaME6pwpE3GVo1l4/pdrN8SxSqa9dgVN96bk0A+xPZHDrAOsQsipxPY/nblH266vGZwfzeX/+haOms24nInWLeliVtue4PFy4OqgKwiEHtmN/OfrEaW8jS2ufG6iakq0C586LiJUy40ij9MoCi/S80C7mlK8+zCBt5eC97SYtraA5w2p5STjx7NWWfPIW9IOThSPH3nAv72yEaWrRPddfj9TUczsqgOj7DzDTcNbd00d6boShZxx6PdiviZBSxBLXHY8WTk1LOz3Fn/ByGhCqnT6XNhpOSP7cgszoBykwpZoVgzefmRo4h1vUfaNHB6S1m2tpG2aAW3PthAXCJMKVzJWI5loAuzVtWwbPCW4wvPVXoPpV44ZloZV8wbQnlJjEjCweRJh/H3+5+kvs3Ljb9bkacNHKi0TnOPQ2cFcoB16FyLD53Jgzd/+Z+dTVsvmjVjDDOnDUejibaOOLfc/gbvrGll3fao2oA2pXI/YAlp1A4ipLJlKoVQ2yTGiQ9DzeMdUQXXf3cqsXgz9a0Wi5Y18eziNMW9etPS1UHfQnjg98fhiNWpDT+sqootLTW8uHgb9z0cUSx1pwMevvsiti97mLGVpXR0xumOpQk78li5oYOX3rSUE3PK5cUyRLrFNivNuu7Iie/r5sm4X6a4rr5LpqVnE2NdeDQvInHqJ8XCR48j3vU+aTNNOO6iptlgW4POfY+3qujJofTZs044UrNzK60r5fwshXgHeNMweYiHs48fyfSxUFBgMrRqOitW76C+vps+gw7/w0lX3XndIXprfKFPKwdYh/DlF4G//sUW3/vOPKJd2/Hn92J9jcGNv3+Y97dGlCuMqk1lH2lJfux5QzVHKK21jBxNoceHHovhT8NL/ziVcNtqxQhft9vkd3e04e/dm8a2Di44dTgXnjECut/DjHTQtAcCSYgU+Fn8foQ3l9saUqLKefoxhcwYWUxlvxLqmjoIG07W1rTw0utRRStIiXW8Q6I+AU0Tp/ILVGSp7HSRfeaajmZpOF06KcsumKuHomaI5kza1mk3I5x3ss6lFx3Ns0+8zqDBFYSsPJ58aYdixsczY5MiryxxmXCulNygWgO7tSqifhVFcPrMEs46roqyIgmiTAaNnsrDT7/Jjj1xbn2qKbcvDtF9kbswh+iFkdN68s4f/qJ5x6s3jh7iY+4ZJ0Ogi7ZQnBeXbOb+BRt494OO/SagmVET27JCoquUPTfnBHe+hhlIUyxyyPeeQDq0lnxXhLYQvLnJ5B9PxVRcNmlMGTd9dxLxrnfwu2Iko2nCAScJKmiI9+W6m1ci7EmhR8koi9SByvNhRKULl68XS1a2que8+TrdUoxSnToKAIlLAAAdt0lEQVQH6bSGS3eQEg2aTASoCbFTlCWUd7y0D6SJAAm3nW7ajU/Rrcn6mFnouoWIT0yf4Kcoz4OVsmjuDLKlRloPtoWX12kp9QWHw0fSsjuDapBQca8g3wPTRji59MQKpo4oIW3oVFdP5s3lq9m4J0zV4Zdcffy8n911CN8WX+hTywHWIX75f3DBwPpRA70Vp809lvK+xSSMIFv3dvGr219j7fYQu+sTGTKkPZKz387ejihc+Q40w8KZgEfvmocn/j7FzlZ0K0JHvIAX1hg8+1oI818Ur198/yTG9tuC29qtBqslImpqgECkP08sauStDfa4jqXGWZKK4yUsAYmmHG6UrExacaGkI5my078UuBwSOdkD226HF0PqS470h37nttwkSWC6ErZZhBCiJPdU848ZFqxlqRKViIpmZcHUR+kQNd3269M2+Iq6Q8qyMJWqhWmzQCwYM1RjdlUB3zh7FP50CH/+UPKLBrPgpTdojRbs/PE97484xG+JL/Tp5QDrEL/8y1/781mvP/vAU4Vagm/fdB3J3WsUFWDl6mZuu/9V3lmfVN04ASdFTs/WcDQXutujjFFdqRhf+3Ihpx07DEe3qIaaJBMB2hMFLNroYMGLLXiT8JNrj2ZIWTOFnkbS6W7MtIOmFj81dX7+8rdmFV1ZupewsDwzBEzBggxVNZPK2Tmock5WpHLNDm4UCV2K3/slVLMW8fawtn0UFRGpnDb7uky41SNNtEdt9j9U+UvVqpQgu/25ApSaS+mGSYdQjCeEKX/0ZA8XnzaNoUUxPC6LqklHcue9T9EVKeBr37xpVt8pZ684xG+JL/Tp5QDr/weX//uXz1pZWZaefuT0kYwZXaHqQTXbG3nh9Q288l6Axav2KDdm6bSpfS7ymoYTr8tLmVcj0R3k8fum40xsZdOaoMqQqqqLaYwW8MSyIGs3d+OIwrhhHk6aO5zWhk0cNmeQMiNt7cjnrXdbeXlpVKlFxJSIsAUuW81zf9X/wwspSp4KuJRflwDKf77Vss8f6GVwOJx2wV59SKZml2kU+lx5eJweotEudZ6TxsCZcwcxe0IFZT4Xfcr7s76mmfXbO/AUjXnk8hseu+hAzyP3vs9nBXKA9fms86f+lGvmlaZHDszj8osuw2kZmOkguxpD/OhXC9hYI8Biorl1IhkVUmfag9NKKBv6G66ZzLGT06Qj24jEogpn0uYAdnYUMP+lGtqieRQ58/ASpVdehLPOOIyE0UIkmmTbrjCrPmhlh3C/HEVELVFAkLDKNm3Y9+dTf8NPfgCJzFxquNv2DrJDOTsV9hbn43W5SQdNUvFuhvWHWdP8nHtaJX0KNLobYxx22EnM/+dz1DSn+PMt//RpQ4+2uRS5xyG7AjnAOmQvzYdP7NH5l/20cfeqXw8qLeOcS86Frh00tQdZsz3C7fe8zIr3um3VTaEiSfknbksKX3FxNSfN6Y83spk8ZxuWI0VrF7S05fPisjBrA17iWjlWDPL0NG5HiIJ8E39hml17wjjdGka6mNr6GClTt0UDnaaSuMkqISjtg0wk9Xkupw1Yol0vA97SfXTgTGu4vS68vfLRrDTRpk7yHSlOONzDvLPHU947gm4lmDL+BObPfwyKhjFm6onfOOq8/7nz8zz33Gcd2ArkAOvA1u3/5F3fvmhizajBeuXMSYOYPG4oqVSSvV0xHnl6GW8tDfDu+82qS5cZH1Q29Iseu4BI/bvkayHyPXFSZpSWAOxt68fjrzWxLeLBcPYhz1mMkUji1i3cHpPW9j30Ki+hO5SktGwgW3fUkwxFbSZ5OqWCGQGvTML3sdfjswQ2ASybxiG00JSy6/LnF+PJ8ylt+WiwGzMSYWZVHsdPj3Py3FHEUmn69RlCOJBi445O1u8xN/36wfVjP/YXyL3w/3QFcoD1f7r8n+zDG3YuGXjrry/d268kztUXn4vbZZBya2yvC/Pzm55iW02SXXUJXB5N6WadeeIwvnZ6Ja8ueI1LzqkgEmzD4/VR25KmM1HJn/++FqOwFylHCT53EYGOIHl5XiUZnLTC6C5dFd5dHi+7d+0hGQ6rrp2AlVfXSZnC9cqC1if7Lp/Fq7PFeiVW6LBw+z0Ul5ajOzx0NXeSjHRSPbSAGWNcXH1+JV6ti0gsn+FVM3n8qYXU/Msn8Ue/fKiyePQJuz+L88kd4+CvQA6wDv4af6af8OR93/pZ3fYl/6+9K4GOqr7e39tmzyRhsu8hJLIkBlARBVFwOy61gguIu6LU9fhvte7VP7jbHrXVWv+tttQNF5RKUcENUaiKQNlDFhKyZ5JMllnf/j/3N4zGHGx76nIOM2/OmZNZMjPv3u+d79x7373fXVrgMTH/mosQ7GqELrqwddcA7nv4Rexq1NE3GI9+Tp9TgVNmFmPv1nWYd1oJW0DR3qMjKPuwal0Dmv0mBHcOAsNUQJfgTRvDVl+pmgzJIUAzdHaVTVFVDA4MIDw4DFOOC9/ZIUFjral0ZS9+o2UUiRtFUuyq4Ihi+/cZXR34RXbVkVpEM30ulr46PGmIRTUMtA+jMN3AtIkqrlg4FTlpGnhNQU3NDLzwynsYNrIwafpZN8xecO+T3ytA1pf9oB6wCOsHde8P8+W/uGRSfU2xq7K2uhCTj66BaioIK8CrKzfi+de24Yutw1TOYbtC7Tyw6JIqeG09bAR4IORGY1sEe1vDMETq6+LgcqczoTuKmJh2lCggpiqw22nkOJ70hcMhdO7vYhmhjSVhNKPHg5Q9DYFE83hGTiOvDo4kLHpMZJggssTf7+ohjrfB7hBQVJgDg5PZ1p5gYBBaQMOx1U4sXlCKcSUidIXDpOojUbd7P7bs6UFTv3f7fc/9o/a7/r71+R/XAxZh/bj+/l5+bXjP+7777rmu77AyLy68cC5MLgRDCMG0ZeC+37yJNe/vQl2TwRo62SblA0tTc2jqWaJeKicMKQ0c54RAzZZUC6LO8wOEw3HxQjaRDxGWruuMaBr2NrKqkV10QDQFcJQW0lILIR5dHax1IUFaCcIi0qJb4rmqHthsc8AzB2uHSERm9BuJz7N/5wC7y4vi4kKmIy+KHAb6e6EMRzDrcBumVoi45OwaxEI98PrGITO7HKveXYctuwN47Pc73FxBAWths26Hjgcswjp0sPrGkW587fFLNq1fsYw27Sy+5wbonXUIqxp6BkXcce8fsLMhgjY/zddR5znFRFHk5mTC4XTD5nQgoikwDQ52gTb2meB4DRx/IIUzqWOcWsN5pnyQIIyGhgYmayOKFF1Rh7nAtOSJZIhMRqeEjPAObFemg08Q30jCovfpdbqPJKMEcSU2M49MJ+k1+m1O4FFeUYlgKAKbJEHgVOxvasbEUuCEyTwunXs0uGgvMrxelI+fhj+//DYGlDSc+tNr5tfMuf7VQxT6lD5si7AOYfif+Pk5q7PS2k4vyOZxwhnzYA6HwNk4fLalGXc8/Cb2tiroG1RJNJjJtqixGEqLxjNycGc4oOoqBOpE56hoTfN3rFcenCnANOKRF0cVdp5WuQto3t8CnQ0AkmwN3WlMRoDAid+IsEY2i44kLHo8OsJiiyF0HRRpaRopKiS6QOPAjG48TTx3u93Izs4GL1A3uwQtpqO9bS+KfRymHsbj55dPgc8pQ43aMKl6Ct5bvw6dQxwirqnLr7/jFUvn6hA97y3COkSBSxz2XReVm2OLbJg+pRYTasYDRggQ07FmQwceefJNbNreC1NyIiSTehYPSXSjsmIcNF6BosQgSXZGSjyldhyNzoisnkWC6nFNLYOt2qK6Vkd3FyvA03JWTlQhcDwk3Q7e/JqwRkdCowkr8f7XNa14D1ciyqK/RFwjo7FElEU2E3E6HA5kZGTA5/MhFouxq5b9/f0IBfpx4jQ3Ljt3KqqKZHDqMMaNOxqNLT3YUdeEHS3Bnoee7847xCFP6cO3COsQh7996+rJTz1649aJYzVctPA0QHBAlwHe5cNTz63GK3/fiy+2D7AthTbJjqgexZisNLY23m63QyMFQDa/d2D2D6T3QMoJJNBisFSRLv7xooS+ALUFRKCZKgQ7icdwkDQ3I6zRBfeRtajE40TRfWRKSEoOI+tbCcKiiIseJ9JMeky3tLQ05Ofns2OXYxG4JDv6+9rR6x/GSTMycN6cUkydmAtdVZCR6YXH48I7H3yOuv3ALXf/riKj6sx9hzjkKX34FmElAfzrX3/oqp2b/vR/NvTiyht+AYSiCEeG4coux61Ll+HDT/ehYU+YLZZQqdmTB8rLC+FyeZjYHa0cJdJi3GVK8ToVx4PjiTCUA5GXHeFQDMFwBAopNdg1FtmInIMRFquBc9/seE88H1mHGhmBxQksXudK3BO1rJF1LUVhwsbwer0YM2YMIy0iMiIsMxZFd1s7aiYAR0304Kpzp8PJKxgKiaiechRWvPUG6vcHceaCOy+ccvINLyUB3CltgkVYSQL/k/ec8qKHG1qY43HjtAXnINjdCrjt4NwuzDv/NgwEnNjTGAXtYaW7ze1CXl4e3A5KAc24mgITsHKA42gdKRXiqa5Fy+LjQnqaImBoMMZSNsFuwDAVcN9ydTDh1tGtDQcjrJER1kjyotdlWWZpHxEVRVZEfvT79J4ih9HR0o7qsRxmHG7ipkWnQ1CGMNA/iMnTTsQrr65FQHdA9Fa8fPUdKxYmCdQpbYZFWEkE/52LJu89LDejKi/LhZMXzsVwTyMkpwzYsjB/4f3YUx9FVz/YLkCd4+FJT0dpUQ4jLJb3cQKLroiweAqf2K5Dmgc2wJtUq5IwHIhBVXWI1E2vy+xjJmd8o/8q4dKRERa9NrKgHu/D4mAcSAlpuIZGmOnKZTy6ivdtqbrGalZ5OflwOp1QIkHWpxGJRdDe0oKJpQ6MLzFx1fk1SHfQnKCAmprpWLv2H+gN2VHfL+xa8swma/QmSc5zi7CSBMiEGTefV6rXTijkK6uKcPSMGqihLvBSGuqaNdx6zx/Q3GWivi0CtliVB3JzfCgoKEAkpkIUbJAEDrpqwO30IhyJgHeYUFVab29CoDQsqEKWmWoVdNqeLHx9Co1OCRO1qoN1wDPCggiTdg/qKtPfMkl82RRh6BwMTYBuGPBkuJCeng5TFWAjmWQ1DINTsGV3IyrLgEn5wC2LZ8NhDMIucCgpmICBIROf/bMBWxsC/gdfbspNMohT2hyLsJIM/mDD29kPL7nJP6nKhxOPn4LskiwY4Sh03osPNuzGo0+tYO0OpNhAqSHlewXFecjPL2KpFi0xJIJRVROSJLHoiXTWJWoOBQdF0RCLyTB0kj5OjN4cEM0bpYH1r1zLCIsj2WSeiQ4KfISlmLrGwTR4CLwTvCTC6/XEf0fjYReobVXBrl07UFACVBYCt151PHI9GgZ7B1FTfQQU2Y7V732O7XsHcPtDT1tF9iQ7vy3CSjJAyZyNqx47+9O/PflmbpaAcy6Yz+Rg7LwG0e7GO+t24NdPrsDufSZ6hw/sghCA8eMq4Ha6EFU0SA47dNoFKHAwNR0CXQWEkxEMtTRE5Bj0GG0NpHSQ9CG+TglH1q4OVogf6W5KAePpKAfdIMlkk+2YFyQ7G2R22V0w2cIdnQ1lE6Ft37ED6S4NUyqAm685CT5bGAXZGdA0BzyZuVi1Zi1aezRcueixafnTztmUhPCmtEkWYSUp/Bteu/3yHV+ueY4TYlh0+QLIsV5WFxIdY/Dyik/x0sovsXnXMIIqQIFVmtuOwqJ8uDyZkEkCmdNhIwF1RYODWiUMOxvdMUQTUUWGEqZiPO3NojDtmxHW6IL7wYaeWT3L1OMjQSaRlcTGgQSbAMkuQrBTHU2EqEmwixJUOYj6+h1I9/KoLJaw6NypqK30IstFKaUJd3o+/v7BRgzIAo45fv4FR5125/IkhTalzbIIK4nhf+WP1y4JNX14t50bxryFF7OxnFg4Ak5wYPmqj7DstU+xbaeOqO6CrEfgy05HUVkZdINHLCIjzeWGoUVgl3iYerwFgZMkKKqOSCwc75Oifq1vkT/+tghr5CC0oasQRRvsvAOC3QbOQZsz4mM8hqpBjuhIc7vRUl+HrDQNhxWrmHtKLeYcVwvIQRjhGCpqavHCay+hP+pGUcVP7z938UN3JTGsKW2aRVhJDv+ypSc+nyYELorIQVx443VQO7vAizaEFAWr3tmMZcu3s274MF055IHMMekoKR8LwZRA/U+CaLKV77yhsjXTgmBjta+QEoGsKhAMGuX5ds320e4d3QlPJGiXHEx/3uRNGJIa385M6g4q1ch49HW1QVCHUebTcPk5E3D26Uehp7MPIi9hbEklVq/5AN0RA1ml0x89+6pnfpnkkKa0eRZhpQD8dy+e9OXUMv2IaLALF9z8K5gDQUQGAwiGDLy3fjeWv/UZttZF0B8Ck1kuKs5nPU/hWBQ2u5stMhXoiqDJQ6TUTeQRMRUMR4PgjcQy+bgjR0dbIwkq3soQl6Khgr5Eg9ecjT3XeQO6IbMUkcT4iMg0zcBgYBCD3Z04dhKHi+cdiVNnlSMYoK0+bpRVVGPFG29CNnMQVMteveaB5fNTAM6UNtEirBSB/+lbq9f6PLGTdUHAgisXAX29MHQD/sEwPthQh2df+AT1bRoGZTBtrYLSHOTmFcCABFONq18RYbFuCFGEwukYDg2xDT60uHWkusJIl46eJaT3SO2BRmvsdicMNS5hI3NElQZstKjZNBAJRREJ9kMZ7kf1WDcunleNk2aMRWiwk9W+xo6bjBVvroEqZWAomrnyZ0vXzk0RKFPaTIuwUgj+J+6e/V6he+gkI9KL8667CWZfH1vg194VwMYv9uGvr3+MbY0mukKAwQP5pSXIycwGR8PNhsQGj0WJivQydE1hxMNIa8QtMVOYqFPRWxRNJXSvqDZFIzaJ3iyqvTMCNGmNhA6eNLkUFb1tXcgQYij3Kbjx6lNx5BQv/P4W8LYsVI6biJWvvgxdyEB7MHP9/zzy8fEpBGNKm2oRVorBf++VVVunTvBNNqHgrMsugtnZzoT4uvx9+OAfdXjhb19gb7uGlm5AckooLShDutfHVByoxhRVgvDQyI9O49Qc06KiBtKRInvk0sRzIigitsTgMxGVy+WKa2lRisiuMtICWAm6oSIWi8Lf0Yx0qKjM4XHbz85CVamEmNoNjTMwbsIxeP7Flchwj8H+bmXDDY99OTPFIExpcy3CSkH477zqiH9WFWu1PreJMy69FmhvA2xhdAQGsGl3H/700kdoagUa9kXA8RJKy8vgzSDhP2o9UNkwtBql7ncHFNVgVw2p6TQh4peoVVG0RYSVEPijxzabjd2JsFRDhWSXIEdlmAoPl1PCzl2bUV7kQFVuDPfffjm8CEMJDUAz7aionogXlz8Lk/ehaZ9r573LttSkIHwpbbJFWCkK/+N3Tv+wKJObLQeCWHjBeVDQD94popN2HW7rxLIXNqClU0NTaxhRFSgqK0B+YQ5bUEFFeFJ6iIRjjNBkWWVXFBMyyaNF9yi6IoIiUqPoigiM0kSN0kq7BF1VwSsGmut3oqjQgeIsFQ8vuQhpQhCmHILXNQbeMWPxl2Uvw5XhRVD2fLpoySfHpSh0KW22RVgpDP8jt8z6oDyHnyOH/Zg771yYggaBG8LgUBg7d/VgxarNWLfJj7ZeIKYCBUW5yMvJgWizQ9Gpy52DyIMpKiQkYEamgyMjKyIsIi5SCk3UtagOpipRKLEQWve1YeqETIzP1/DgPVcjOLwPomQipgGFBaV445WV4MU8xPSKlZf970tWgT1Fz1uLsFIU+ITZv73ruJcyPcYFvCngzFNnwSkFIEBFYCiGTr+Op55fj7qWMD7fOsD0skiSpqCoBFFFhSvNA0NTWKSUkDj+tq52qmPRnRQXEqSmazLUyCC6OlpRVerGyTPG47oFM4FYFyS7AdHlggwH3n1/AxSF0tHC1664d/X5KQ5ZSptvEVZKwx83/pXfX3J/b/POO4qyHDhxxmR4ctIAQ4Ysa9jV2IfV63Zj/ecd2Nk4gJ6AgUxfNirGlX81kkPfQekeRVqJmlViAUXCvRRhUTqY2HwTDoehKUH4OzowrTYdJx9bjqsXngFtuAuSFobX54O/04/NOxuxz6+idNLpD/3kykdvt+BKbQ9YhJXa+H9l/acrblu0feOaP+Z6OBw7bSLyqkthDvWxlWB7WwL4ZHM3XnrjE6YxVdc0iHSvCwUFhXH1T1FgRBWJRlmkxfMii8ZINobn47sKRU5CmpsUTnWosSgCgW4osQAmVjhx7RVnYva0sTBCPYASgy9zDNqbO7CnsR11Lf2YdvzC66df8MBTFlSWByzCss6BrzywcdWjcz9+69k3asfnoCjfiZoTpgOBfsQ0E4FgFNsb/Hj6+XVoaVdQ36DA6RCQV1QCd5qbbYqmUZ1IlK78ORCJRSHYRGhmFDZRgp1zw85JCPkH0dnahLJSJ8aWCHjwV5ehNM+OQHcHDFVBYWEe1q/fANV04fPNLVh806+Pzpp84RcWTJYHyAMWYVnnwTc80Lrpr9VPP373jllHV4DXAjjl4nlAwM9URnsCMfQM2vCHP7+F9i4d6z/zg8RlcguykVuQC0EUIasaYiRhzJN2lgyX28aGmD2SC8N+PwId3ZhUlYEp1Tl4ZMl1GOjcCiXSw7res/IKseb9jyE5s/HuR1vNpY88W+komdtkQWR5IOEBi7Csc+GgHlj6s6l1tYd5DlPD9Zi3YB5gZkGVBaYm09YbwJ9ffxufbG3D7mYDPX4FYzK9KCwohmaYEG02hCJBpHk8TDfLJfFo3rsbbruOqjIOlyyYg4VzT0BfewMcJuDNHwNwMt546x3IZjb2tMTql9z221qufDbpM1s3ywNfecAiLOtk+FYP/PaO2Z8UZ0dnmvIATppzBtIyfZCH+2BP82B/Tze+2N2J55Z/hpYODY31Q2wbT0l5GRMAFCQehqxCDUfR0dqB6gonyopEPLB0MUrzbOjraICg6cjLKUXjngY0dXegZ9iEZitfe+Vtb55qwWJ54GAesAjLOi/+pQdWPH3jwy271/+yqlDD+KpCjDv6eKhDA5BsMXR19CCopOPxZ1airkXHp1sCbI1YepYLvsws7G9uZX1aUyZ5UVWs4zf33wS3GEJXWzOcDg/yK6qw88OP0R/QsG1vCFNmzrtj1vy7H7QgsTzwbR6wCMs6N/6tB7a/98zC1a/e92LtxGxILhtmzTgSNkGFqURh8B40dyt4+a0vsP6zRrR2R7C/Pf6VJcUc8rPsuHDBbJx/1lQ4xSAGe/YjN7cAmi5h7bufgIcbW7a147Jr7ptZeNRFG/7twVj/kNIesAgrpeH/z403d+2yLXnqkp3ji5VKjxTGccfMQlphMQxFRkRW2LboxsZuPP67VxEYUGmTIXKzPbj951egIFtCcLgDJheBr7wI/n0t2PLZTphSLr7cE9l9912PHWHVq/5zLFL5Py3CSmX0/wvb/3L/iW8JSvdP8rOzkJ3jxeHHHQUM90GRaVWXEyZy0NTUDc4QMa68ADYpiIGOvXC6eTjKS7Bzw0b4/SHs3zeAwqqZT5967bJr/4vDsD6Soh6wCCtFgf8uZn/5zhOXvvfOH/8ysdwJD3ox56STAGchDD4dOuyQXJkwQ1Gm6tBavxUFeW6IThlr//42TD4bm7d1mYtuemRm7pTzNn6X47A+m3oesAgr9TD/Xiw2TZNbet2E3cdUeseLvIr88sORVzoW6Xm50GMKBE4AicFH/F1oa2tEfcMu6IYDvYOODVdd+ssTucrT5e/lQKwvSSkPWISVUnB//8a+/pvrH923a/3NE6rHgOfD8GWl4/DaSWxL86ZNm9HX2w+TT0PdvmEcddzcW2bPX/rr7/8orG9MFQ9YhJUqSP+AdprmR+KyBx57sbNt2/mlJblIS4srioZCYbR3+uH25L+x+NonLuYKjoz8gIdhfXUKeMAirBQA+ccy0TS/lN5/e/N5Ha3NUyVTMMdWlP5zelXlCusK4I+FQPL/jkVYyY+xZaHlgaTxgEVYSQOlZYjlgeT3gEVYyY+xZaHlgaTxgEVYSQOlZYjlgeT3gEVYyY+xZaHlgaTxgEVYSQOlZYjlgeT3gEVYyY+xZaHlgaTxgEVYSQOlZYjlgeT3gEVYyY+xZaHlgaTxgEVYSQOlZYjlgeT3gEVYyY+xZaHlgaTxwP8DlPTW4WVQUF0AAAAASUVORK5CYII=;" vertex="1" parent="1">
          <mxGeometry x="60" y="1100" width="89.29" height="50" as="geometry" />
        </mxCell>
        <mxCell id="dNDYI4cQHrYuXAy6lbNG-6" value="&lt;font style=&quot;font-size: 18px;&quot;&gt;&lt;b&gt;CADASTRO DO FORNECEDOR&lt;/b&gt;&lt;/font&gt;" style="text;html=1;align=center;verticalAlign=middle;whiteSpace=wrap;rounded=0;" vertex="1" parent="1">
          <mxGeometry x="129" y="120" width="570" height="40" as="geometry" />
        </mxCell>
        <mxCell id="dNDYI4cQHrYuXAy6lbNG-7" value="&lt;font style=&quot;font-size: 18px;&quot;&gt;&lt;b&gt;CADASTRO DO FORNECEDOR&lt;/b&gt;&lt;/font&gt;" style="text;html=1;align=center;verticalAlign=middle;whiteSpace=wrap;rounded=0;" vertex="1" parent="1">
          <mxGeometry x="-30" y="510" width="570" height="40" as="geometry" />
        </mxCell>
        <mxCell id="dNDYI4cQHrYuXAy6lbNG-8" value="" style="rounded=1;whiteSpace=wrap;html=1;" vertex="1" parent="1">
          <mxGeometry x="129" y="600" width="250" height="30" as="geometry" />
        </mxCell>
        <mxCell id="dNDYI4cQHrYuXAy6lbNG-9" value="" style="rounded=1;whiteSpace=wrap;html=1;" vertex="1" parent="1">
          <mxGeometry x="289" y="190" width="250" height="30" as="geometry" />
        </mxCell>
        <mxCell id="dNDYI4cQHrYuXAy6lbNG-10" value="&lt;font style=&quot;font-size: 18px;&quot;&gt;&lt;b&gt;Nome completo&lt;/b&gt;&lt;/font&gt;" style="text;html=1;align=center;verticalAlign=middle;whiteSpace=wrap;rounded=0;" vertex="1" parent="1">
          <mxGeometry x="290" y="160" width="150" height="30" as="geometry" />
        </mxCell>
        <mxCell id="dNDYI4cQHrYuXAy6lbNG-11" value="&lt;font style=&quot;font-size: 18px;&quot;&gt;&lt;b&gt;Nome completo&lt;/b&gt;&lt;/font&gt;" style="text;html=1;align=center;verticalAlign=middle;whiteSpace=wrap;rounded=0;" vertex="1" parent="1">
          <mxGeometry x="129" y="570" width="150" height="30" as="geometry" />
        </mxCell>
      </root>
    </mxGraphModel>
  </diagram>
</mxfile>
